<ttFont>
    <TTGlyph name=".notdef" xMin="0" yMin="0" xMax="500" yMax="700">
      <contour>
        <pt x="0" y="700" on="1"/>
        <pt x="500" y="700" on="1"/>
        <pt x="500" y="0" on="1"/>
        <pt x="0" y="0" on="1"/>
      </contour>
      <contour>
        <pt x="50" y="650" on="1"/>
        <pt x="50" y="50" on="1"/>
        <pt x="450" y="50" on="1"/>
        <pt x="450" y="650" on="1"/>
      </contour>
      <contour>
        <pt x="229" y="278" on="1"/>
        <pt x="229" y="307" on="0"/>
        <pt x="256" y="345" on="0"/>
        <pt x="283" y="367" on="1"/>
        <pt x="311" y="390" on="0"/>
        <pt x="339" y="431" on="0"/>
        <pt x="339" y="465" on="1"/>
        <pt x="339" y="496" on="0"/>
        <pt x="301" y="552" on="0"/>
        <pt x="250" y="552" on="1"/>
        <pt x="192" y="552" on="0"/>
        <pt x="152" y="485" on="0"/>
        <pt x="152" y="452" on="1"/>
        <pt x="152" y="424" on="1"/>
        <pt x="103" y="424" on="1"/>
        <pt x="99" y="436" on="0"/>
        <pt x="99" y="455" on="1"/>
        <pt x="99" y="478" on="0"/>
        <pt x="120" y="544" on="0"/>
        <pt x="187" y="602" on="0"/>
        <pt x="250" y="602" on="1"/>
        <pt x="313" y="602" on="0"/>
        <pt x="376" y="546" on="0"/>
        <pt x="393" y="486" on="0"/>
        <pt x="393" y="467" on="1"/>
        <pt x="393" y="422" on="0"/>
        <pt x="356" y="364" on="0"/>
        <pt x="326" y="338" on="1"/>
        <pt x="304" y="320" on="0"/>
        <pt x="282" y="290" on="0"/>
        <pt x="282" y="268" on="1"/>
        <pt x="282" y="215" on="1"/>
        <pt x="229" y="215" on="1"/>
      </contour>
      <contour>
        <pt x="225" y="169" on="1"/>
        <pt x="285" y="169" on="1"/>
        <pt x="285" y="99" on="1"/>
        <pt x="225" y="99" on="1"/>
      </contour>
    </TTGlyph>
    <TTGlyph name="A" xMin="28" yMin="0" xMax="656" yMax="688">
      <contour>
        <pt x="496" y="183" on="1"/>
        <pt x="186" y="183" on="1"/>
        <pt x="115" y="0" on="1"/>
        <pt x="28" y="0" on="1"/>
        <pt x="288" y="688" on="1"/>
        <pt x="396" y="688" on="1"/>
        <pt x="656" y="0" on="1"/>
        <pt x="567" y="0" on="1"/>
      </contour>
      <contour>
        <pt x="338" y="595" on="1"/>
        <pt x="212" y="264" on="1"/>
        <pt x="469" y="264" on="1"/>
        <pt x="343" y="595" on="1"/>
      </contour>
    </TTGlyph>
    <TTGlyph name="A.ss01" xMin="92" yMin="0" xMax="617" yMax="696">
      <contour>
        <pt x="531" y="235" on="1"/>
        <pt x="177" y="235" on="1"/>
        <pt x="177" y="0" on="1"/>
        <pt x="92" y="0" on="1"/>
        <pt x="92" y="387" on="1"/>
        <pt x="92" y="521" on="0"/>
        <pt x="126" y="646" on="0"/>
        <pt x="234" y="696" on="0"/>
        <pt x="354" y="696" on="1"/>
        <pt x="474" y="696" on="0"/>
        <pt x="582" y="645" on="0"/>
        <pt x="617" y="521" on="0"/>
        <pt x="617" y="387" on="1"/>
        <pt x="617" y="0" on="1"/>
        <pt x="531" y="0" on="1"/>
      </contour>
      <contour>
        <pt x="531" y="511" on="0"/>
        <pt x="511" y="586" on="0"/>
        <pt x="440" y="616" on="0"/>
        <pt x="354" y="616" on="1"/>
        <pt x="268" y="616" on="0"/>
        <pt x="197" y="586" on="0"/>
        <pt x="177" y="511" on="0"/>
        <pt x="177" y="420" on="1"/>
        <pt x="177" y="319" on="1"/>
        <pt x="531" y="319" on="1"/>
        <pt x="531" y="420" on="1"/>
      </contour>
    </TTGlyph>
    <TTGlyph name="AE" xMin="-7" yMin="0" xMax="899" yMax="688">
      <contour>
        <pt x="481" y="183" on="1"/>
        <pt x="171" y="183" on="1"/>
        <pt x="80" y="0" on="1"/>
        <pt x="-7" y="0" on="1"/>
        <pt x="328" y="688" on="1"/>
        <pt x="899" y="688" on="1"/>
        <pt x="899" y="608" on="1"/>
        <pt x="456" y="608" on="1"/>
        <pt x="519" y="387" on="1"/>
        <pt x="852" y="387" on="1"/>
        <pt x="852" y="307" on="1"/>
        <pt x="537" y="307" on="1"/>
        <pt x="602" y="80" on="1"/>
        <pt x="899" y="80" on="1"/>
        <pt x="899" y="0" on="1"/>
        <pt x="531" y="0" on="1"/>
      </contour>
      <contour>
        <pt x="369" y="595" on="1"/>
        <pt x="205" y="264" on="1"/>
        <pt x="463" y="264" on="1"/>
        <pt x="374" y="595" on="1"/>
      </contour>
    </TTGlyph>
    <TTGlyph name="AEacute" xMin="-7" yMin="0" xMax="899" yMax="888">
      <component glyphName="AE" x="0" y="0" flags="0x0"/>
      <component glyphName="acutecomb.case" x="650" y="0" flags="0x0"/>
    </TTGlyph>
    <TTGlyph name="Aacute" xMin="28" yMin="0" xMax="656" yMax="891">
      <component glyphName="A" x="0" y="0" flags="0x0"/>
      <component glyphName="acute" x="270" y="148" flags="0x4"/>
    </TTGlyph>
    <TTGlyph name="Aacute.ss01" xMin="92" yMin="0" xMax="617" yMax="891">
      <component glyphName="A.ss01" x="0" y="0" flags="0x0"/>
      <component glyphName="acute" x="293" y="148" flags="0x4"/>
    </TTGlyph>
    <TTGlyph name="Abreve" xMin="28" yMin="0" xMax="656" yMax="888">
      <component glyphName="A" x="0" y="0" flags="0x0"/>
      <component glyphName="uni0306.case" x="500" y="0" flags="0x0"/>
    </TTGlyph>
    <TTGlyph name="Abreve.ss01" xMin="92" yMin="0" xMax="617" yMax="888">
      <component glyphName="A.ss01" x="0" y="0" flags="0x0"/>
      <component glyphName="uni0306.case" x="513" y="0" flags="0x0"/>
    </TTGlyph>
    <TTGlyph name="Acircumflex" xMin="28" yMin="0" xMax="656" yMax="892">
      <component glyphName="A" x="0" y="0" flags="0x0"/>
      <component glyphName="circumflex" x="177" y="149" flags="0x4"/>
    </TTGlyph>
    <TTGlyph name="Acircumflex.ss01" xMin="92" yMin="0" xMax="617" yMax="892">
      <component glyphName="A.ss01" x="0" y="0" flags="0x0"/>
      <component glyphName="circumflex" x="192" y="149" flags="0x4"/>
    </TTGlyph>
    <TTGlyph name="Adieresis" xMin="28" yMin="0" xMax="656" yMax="858">
      <component glyphName="A" x="0" y="0" flags="0x0"/>
      <component glyphName="dieresis" x="189" y="128" flags="0x4"/>
    </TTGlyph>
    <TTGlyph name="Adieresis.ss01" xMin="92" yMin="0" xMax="617" yMax="858">
      <component glyphName="A.ss01" x="0" y="0" flags="0x0"/>
      <component glyphName="dieresis" x="205" y="128" flags="0x4"/>
    </TTGlyph>
    <TTGlyph name="Agrave" xMin="28" yMin="0" xMax="656" yMax="891">
      <component glyphName="A" x="0" y="0" flags="0x0"/>
      <component glyphName="grave" x="183" y="148" flags="0x4"/>
    </TTGlyph>
    <TTGlyph name="Agrave.ss01" xMin="92" yMin="0" xMax="617" yMax="891">
      <component glyphName="A.ss01" x="0" y="0" flags="0x0"/>
      <component glyphName="grave" x="192" y="148" flags="0x4"/>
    </TTGlyph>
    <TTGlyph name="Amacron" xMin="28" yMin="0" xMax="656" yMax="887">
      <component glyphName="A" x="0" y="0" flags="0x0"/>
      <component glyphName="uni0304.case" x="523" y="0" flags="0x0"/>
    </TTGlyph>
    <TTGlyph name="Amacron.ss01" xMin="92" yMin="0" xMax="617" yMax="887">
      <component glyphName="A.ss01" x="0" y="0" flags="0x0"/>
      <component glyphName="uni0304.case" x="536" y="0" flags="0x0"/>
    </TTGlyph>
    <TTGlyph name="Aogonek" xMin="28" yMin="-196" xMax="656" yMax="688">
      <contour>
        <pt x="578" y="-139" on="0"/>
        <pt x="625" y="-139" on="1"/>
        <pt x="642" y="-138" on="1"/>
        <pt x="642" y="-194" on="1"/>
        <pt x="606" y="-196" on="0"/>
        <pt x="603" y="-196" on="1"/>
        <pt x="507" y="-196" on="0"/>
        <pt x="507" y="-118" on="1"/>
        <pt x="507" y="-90" on="0"/>
        <pt x="539" y="-26" on="0"/>
        <pt x="566" y="1" on="1"/>
        <pt x="496" y="183" on="1"/>
        <pt x="186" y="183" on="1"/>
        <pt x="115" y="0" on="1"/>
        <pt x="28" y="0" on="1"/>
        <pt x="288" y="688" on="1"/>
        <pt x="396" y="688" on="1"/>
        <pt x="656" y="0" on="1"/>
        <pt x="637" y="0" on="1"/>
        <pt x="615" y="-18" on="0"/>
        <pt x="578" y="-76" on="0"/>
        <pt x="578" y="-99" on="1"/>
      </contour>
      <contour>
        <pt x="469" y="264" on="1"/>
        <pt x="343" y="595" on="1"/>
        <pt x="338" y="595" on="1"/>
        <pt x="212" y="264" on="1"/>
      </contour>
    </TTGlyph>
    <TTGlyph name="Aogonek.ss01" xMin="92" yMin="-196" xMax="617" yMax="696">
      <contour>
        <pt x="579" y="-19" on="0"/>
        <pt x="543" y="-76" on="0"/>
        <pt x="543" y="-99" on="1"/>
        <pt x="543" y="-139" on="0"/>
        <pt x="590" y="-139" on="1"/>
        <pt x="600" y="-139" on="0"/>
        <pt x="607" y="-137" on="1"/>
        <pt x="607" y="-194" on="1"/>
        <pt x="581" y="-196" on="0"/>
        <pt x="568" y="-196" on="1"/>
        <pt x="472" y="-196" on="0"/>
        <pt x="472" y="-118" on="1"/>
        <pt x="472" y="-90" on="0"/>
        <pt x="504" y="-26" on="0"/>
        <pt x="531" y="1" on="1"/>
        <pt x="531" y="235" on="1"/>
        <pt x="177" y="235" on="1"/>
        <pt x="177" y="0" on="1"/>
        <pt x="92" y="0" on="1"/>
        <pt x="92" y="387" on="1"/>
        <pt x="92" y="521" on="0"/>
        <pt x="126" y="646" on="0"/>
        <pt x="234" y="696" on="0"/>
        <pt x="354" y="696" on="1"/>
        <pt x="474" y="696" on="0"/>
        <pt x="582" y="645" on="0"/>
        <pt x="617" y="521" on="0"/>
        <pt x="617" y="387" on="1"/>
        <pt x="617" y="0" on="1"/>
        <pt x="601" y="0" on="1"/>
      </contour>
      <contour>
        <pt x="531" y="319" on="1"/>
        <pt x="531" y="420" on="1"/>
        <pt x="531" y="511" on="0"/>
        <pt x="511" y="586" on="0"/>
        <pt x="440" y="616" on="0"/>
        <pt x="354" y="616" on="1"/>
        <pt x="268" y="616" on="0"/>
        <pt x="197" y="586" on="0"/>
        <pt x="177" y="511" on="0"/>
        <pt x="177" y="420" on="1"/>
        <pt x="177" y="319" on="1"/>
      </contour>
    </TTGlyph>
    <TTGlyph name="Aring" xMin="28" yMin="0" xMax="656" yMax="885">
      <contour>
        <pt x="656" y="0" on="1"/>
        <pt x="567" y="0" on="1"/>
        <pt x="496" y="183" on="1"/>
        <pt x="186" y="183" on="1"/>
        <pt x="115" y="0" on="1"/>
        <pt x="28" y="0" on="1"/>
        <pt x="280" y="675" on="1"/>
        <pt x="250" y="680" on="0"/>
        <pt x="223" y="705" on="0"/>
        <pt x="215" y="742" on="0"/>
        <pt x="215" y="777" on="1"/>
        <pt x="215" y="821" on="0"/>
        <pt x="229" y="863" on="0"/>
        <pt x="282" y="885" on="0"/>
        <pt x="341" y="885" on="1"/>
        <pt x="401" y="885" on="0"/>
        <pt x="455" y="863" on="0"/>
        <pt x="470" y="821" on="0"/>
        <pt x="470" y="777" on="1"/>
        <pt x="470" y="742" on="0"/>
        <pt x="462" y="705" on="0"/>
        <pt x="434" y="680" on="0"/>
        <pt x="404" y="675" on="1"/>
      </contour>
      <contour>
        <pt x="268" y="749" on="0"/>
        <pt x="275" y="726" on="0"/>
        <pt x="305" y="716" on="0"/>
        <pt x="341" y="716" on="1"/>
        <pt x="378" y="716" on="0"/>
        <pt x="410" y="726" on="0"/>
        <pt x="417" y="749" on="0"/>
        <pt x="417" y="777" on="1"/>
        <pt x="417" y="805" on="0"/>
        <pt x="410" y="828" on="0"/>
        <pt x="378" y="839" on="0"/>
        <pt x="341" y="839" on="1"/>
        <pt x="305" y="839" on="0"/>
        <pt x="275" y="828" on="0"/>
        <pt x="268" y="805" on="0"/>
        <pt x="268" y="777" on="1"/>
      </contour>
      <contour>
        <pt x="469" y="264" on="1"/>
        <pt x="343" y="595" on="1"/>
        <pt x="338" y="595" on="1"/>
        <pt x="212" y="264" on="1"/>
      </contour>
    </TTGlyph>
    <TTGlyph name="Aring.ss01" xMin="92" yMin="0" xMax="617" yMax="953">
      <component glyphName="A.ss01" x="0" y="0" flags="0x0"/>
      <component glyphName="ring" x="204" y="138" flags="0x4"/>
    </TTGlyph>
    <TTGlyph name="Aringacute" xMin="28" yMin="0" xMax="656" yMax="1085">
      <component glyphName="Aring" x="0" y="0" flags="0x0"/>
      <component glyphName="acutecomb.case" x="515" y="197" flags="0x4"/>
    </TTGlyph>
    <TTGlyph name="Aringacute.ss01" xMin="92" yMin="0" xMax="617" yMax="1100">
      <component glyphName="A.ss01" x="0" y="0" flags="0x0"/>
      <component glyphName="uni030A.case" x="507" y="0" flags="0x0"/>
      <component glyphName="acutecomb.case" x="531" y="212" flags="0x4"/>
    </TTGlyph>
    <TTGlyph name="Atilde" xMin="28" yMin="0" xMax="656" yMax="879">
      <component glyphName="A" x="0" y="0" flags="0x0"/>
      <component glyphName="tilde" x="142" y="135" flags="0x4"/>
    </TTGlyph>
    <TTGlyph name="Atilde.ss01" xMin="92" yMin="0" xMax="617" yMax="878">
      <component glyphName="A.ss01" x="0" y="0" flags="0x0"/>
      <component glyphName="tilde" x="153" y="134" flags="0x4"/>
    </TTGlyph>
    <TTGlyph name="B" xMin="100" yMin="0" xMax="610" yMax="688">
      <contour>
        <pt x="100" y="688" on="1"/>
        <pt x="420" y="688" on="1"/>
        <pt x="518" y="688" on="0"/>
        <pt x="603" y="600" on="0"/>
        <pt x="603" y="515" on="1"/>
        <pt x="603" y="446" on="0"/>
        <pt x="547" y="365" on="0"/>
        <pt x="485" y="353" on="1"/>
        <pt x="485" y="349" on="1"/>
        <pt x="556" y="336" on="0"/>
        <pt x="610" y="252" on="0"/>
        <pt x="610" y="181" on="1"/>
        <pt x="610" y="97" on="0"/>
        <pt x="527" y="0" on="0"/>
        <pt x="417" y="0" on="1"/>
        <pt x="100" y="0" on="1"/>
      </contour>
      <contour>
        <pt x="456" y="388" on="0"/>
        <pt x="517" y="442" on="0"/>
        <pt x="517" y="498" on="1"/>
        <pt x="517" y="540" on="0"/>
        <pt x="495" y="586" on="0"/>
        <pt x="442" y="608" on="0"/>
        <pt x="392" y="608" on="1"/>
        <pt x="186" y="608" on="1"/>
        <pt x="186" y="388" on="1"/>
        <pt x="392" y="388" on="1"/>
      </contour>
      <contour>
        <pt x="446" y="80" on="0"/>
        <pt x="501" y="102" on="0"/>
        <pt x="524" y="151" on="0"/>
        <pt x="524" y="194" on="1"/>
        <pt x="524" y="256" on="0"/>
        <pt x="466" y="308" on="0"/>
        <pt x="396" y="308" on="1"/>
        <pt x="186" y="308" on="1"/>
        <pt x="186" y="80" on="1"/>
        <pt x="396" y="80" on="1"/>
      </contour>
    </TTGlyph>
    <TTGlyph name="C" xMin="77" yMin="-8" xMax="518" yMax="696">
      <contour>
        <pt x="487" y="-1" on="0"/>
        <pt x="394" y="-8" on="0"/>
        <pt x="354" y="-8" on="1"/>
        <pt x="230" y="-8" on="0"/>
        <pt x="116" y="46" on="0"/>
        <pt x="77" y="189" on="0"/>
        <pt x="77" y="344" on="1"/>
        <pt x="77" y="498" on="0"/>
        <pt x="116" y="642" on="0"/>
        <pt x="230" y="696" on="0"/>
        <pt x="354" y="696" on="1"/>
        <pt x="395" y="696" on="0"/>
        <pt x="485" y="688" on="0"/>
        <pt x="514" y="681" on="1"/>
        <pt x="514" y="606" on="1"/>
        <pt x="439" y="616" on="0"/>
        <pt x="376" y="616" on="1"/>
        <pt x="271" y="616" on="0"/>
        <pt x="188" y="584" on="0"/>
        <pt x="162" y="478" on="0"/>
        <pt x="162" y="344" on="1"/>
        <pt x="162" y="210" on="0"/>
        <pt x="188" y="104" on="0"/>
        <pt x="271" y="72" on="0"/>
        <pt x="376" y="72" on="1"/>
        <pt x="453" y="72" on="0"/>
        <pt x="518" y="82" on="1"/>
        <pt x="518" y="5" on="1"/>
      </contour>
    </TTGlyph>
    <TTGlyph name="Cacute" xMin="77" yMin="-8" xMax="518" yMax="888">
      <component glyphName="C" x="0" y="0" flags="0x0"/>
      <component glyphName="acutecomb.case" x="462" y="0" flags="0x0"/>
    </TTGlyph>
    <TTGlyph name="Cacute.loclPLK" xMin="77" yMin="-8" xMax="518" yMax="888">
      <component glyphName="C" x="0" y="0" flags="0x0"/>
      <component glyphName="acute.case.loclPLK" x="233" y="0" flags="0x0"/>
    </TTGlyph>
    <TTGlyph name="Ccaron" xMin="77" yMin="-8" xMax="518" yMax="888">
      <component glyphName="C" x="0" y="0" flags="0x0"/>
      <component glyphName="uni030C.case" x="453" y="0" flags="0x0"/>
    </TTGlyph>
    <TTGlyph name="Ccedilla" xMin="77" yMin="-190" xMax="518" yMax="696">
      <contour>
        <pt x="453" y="72" on="0"/>
        <pt x="518" y="82" on="1"/>
        <pt x="518" y="5" on="1"/>
        <pt x="487" y="-1" on="0"/>
        <pt x="394" y="-8" on="0"/>
        <pt x="354" y="-8" on="1"/>
        <pt x="327" y="-8" on="0"/>
        <pt x="315" y="-7" on="1"/>
        <pt x="277" y="-190" on="1"/>
        <pt x="196" y="-190" on="1"/>
        <pt x="196" y="-185" on="1"/>
        <pt x="257" y="-3" on="1"/>
        <pt x="180" y="6" on="0"/>
        <pt x="104" y="73" on="0"/>
        <pt x="77" y="212" on="0"/>
        <pt x="77" y="344" on="1"/>
        <pt x="77" y="498" on="0"/>
        <pt x="116" y="642" on="0"/>
        <pt x="230" y="696" on="0"/>
        <pt x="354" y="696" on="1"/>
        <pt x="395" y="696" on="0"/>
        <pt x="485" y="688" on="0"/>
        <pt x="514" y="681" on="1"/>
        <pt x="514" y="606" on="1"/>
        <pt x="439" y="616" on="0"/>
        <pt x="376" y="616" on="1"/>
        <pt x="271" y="616" on="0"/>
        <pt x="188" y="584" on="0"/>
        <pt x="162" y="478" on="0"/>
        <pt x="162" y="344" on="1"/>
        <pt x="162" y="210" on="0"/>
        <pt x="188" y="104" on="0"/>
        <pt x="271" y="72" on="0"/>
        <pt x="376" y="72" on="1"/>
      </contour>
    </TTGlyph>
    <TTGlyph name="Ccircumflex" xMin="77" yMin="-8" xMax="518" yMax="888">
      <component glyphName="C" x="0" y="0" flags="0x0"/>
      <component glyphName="uni0302.case" x="453" y="0" flags="0x0"/>
    </TTGlyph>
    <TTGlyph name="Cdotaccent" xMin="77" yMin="-8" xMax="518" yMax="875">
      <component glyphName="C" x="0" y="0" flags="0x0"/>
      <component glyphName="uni0307.case" x="346" y="0" flags="0x0"/>
    </TTGlyph>
    <TTGlyph name="D" xMin="100" yMin="0" xMax="612" yMax="688">
      <contour>
        <pt x="100" y="688" on="1"/>
        <pt x="319" y="688" on="1"/>
        <pt x="462" y="688" on="0"/>
        <pt x="580" y="637" on="0"/>
        <pt x="612" y="505" on="0"/>
        <pt x="612" y="344" on="1"/>
        <pt x="612" y="183" on="0"/>
        <pt x="580" y="51" on="0"/>
        <pt x="462" y="0" on="0"/>
        <pt x="319" y="0" on="1"/>
        <pt x="100" y="0" on="1"/>
      </contour>
      <contour>
        <pt x="305" y="80" on="1"/>
        <pt x="422" y="80" on="0"/>
        <pt x="503" y="105" on="0"/>
        <pt x="527" y="204" on="0"/>
        <pt x="527" y="344" on="1"/>
        <pt x="527" y="483" on="0"/>
        <pt x="502" y="583" on="0"/>
        <pt x="421" y="608" on="0"/>
        <pt x="305" y="608" on="1"/>
        <pt x="186" y="608" on="1"/>
        <pt x="186" y="80" on="1"/>
      </contour>
    </TTGlyph>
    <TTGlyph name="Dcaron" xMin="100" yMin="0" xMax="612" yMax="888">
      <component glyphName="D" x="0" y="0" flags="0x0"/>
      <component glyphName="uni030C.case" x="510" y="0" flags="0x0"/>
    </TTGlyph>
    <TTGlyph name="Dcroat" xMin="32" yMin="0" xMax="612" yMax="688">
      <component glyphName="Eth" x="0" y="0" flags="0x0"/>
    </TTGlyph>
    <TTGlyph name="E" xMin="100" yMin="0" xMax="548" yMax="688">
      <contour>
        <pt x="100" y="688" on="1"/>
        <pt x="548" y="688" on="1"/>
        <pt x="548" y="608" on="1"/>
        <pt x="186" y="608" on="1"/>
        <pt x="186" y="387" on="1"/>
        <pt x="500" y="387" on="1"/>
        <pt x="500" y="307" on="1"/>
        <pt x="186" y="307" on="1"/>
        <pt x="186" y="80" on="1"/>
        <pt x="548" y="80" on="1"/>
        <pt x="548" y="0" on="1"/>
        <pt x="100" y="0" on="1"/>
      </contour>
    </TTGlyph>
    <TTGlyph name="Eacute" xMin="100" yMin="0" xMax="548" yMax="891">
      <component glyphName="E" x="0" y="0" flags="0x0"/>
      <component glyphName="acute" x="269" y="148" flags="0x4"/>
    </TTGlyph>
    <TTGlyph name="Ebreve" xMin="100" yMin="0" xMax="548" yMax="888">
      <component glyphName="E" x="0" y="0" flags="0x0"/>
      <component glyphName="uni0306.case" x="482" y="0" flags="0x0"/>
    </TTGlyph>
    <TTGlyph name="Ecaron" xMin="100" yMin="0" xMax="548" yMax="888">
      <component glyphName="E" x="0" y="0" flags="0x0"/>
      <component glyphName="uni030C.case" x="489" y="0" flags="0x0"/>
    </TTGlyph>
    <TTGlyph name="Ecircumflex" xMin="100" yMin="0" xMax="548" yMax="892">
      <component glyphName="E" x="0" y="0" flags="0x0"/>
      <component glyphName="circumflex" x="160" y="149" flags="0x4"/>
    </TTGlyph>
    <TTGlyph name="Edieresis" xMin="100" yMin="0" xMax="548" yMax="858">
      <component glyphName="E" x="0" y="0" flags="0x0"/>
      <component glyphName="dieresis" x="177" y="128" flags="0x4"/>
    </TTGlyph>
    <TTGlyph name="Edotaccent" xMin="100" yMin="0" xMax="548" yMax="875">
      <component glyphName="E" x="0" y="0" flags="0x0"/>
      <component glyphName="uni0307.case" x="382" y="0" flags="0x0"/>
    </TTGlyph>
    <TTGlyph name="Egrave" xMin="100" yMin="0" xMax="548" yMax="891">
      <component glyphName="E" x="0" y="0" flags="0x0"/>
      <component glyphName="grave" x="164" y="148" flags="0x4"/>
    </TTGlyph>
    <TTGlyph name="Emacron" xMin="100" yMin="0" xMax="548" yMax="887">
      <component glyphName="E" x="0" y="0" flags="0x0"/>
      <component glyphName="uni0304.case" x="505" y="0" flags="0x0"/>
    </TTGlyph>
    <TTGlyph name="Eng" xMin="100" yMin="-200" xMax="632" yMax="688">
      <contour>
        <pt x="632" y="688" on="1"/>
        <pt x="632" y="-57" on="1"/>
        <pt x="632" y="-123" on="0"/>
        <pt x="600" y="-183" on="0"/>
        <pt x="529" y="-200" on="0"/>
        <pt x="454" y="-200" on="1"/>
        <pt x="454" y="-132" on="1"/>
        <pt x="498" y="-132" on="0"/>
        <pt x="538" y="-122" on="0"/>
        <pt x="550" y="-100" on="0"/>
        <pt x="550" y="-77" on="1"/>
        <pt x="550" y="0" on="1"/>
        <pt x="187" y="526" on="1"/>
        <pt x="183" y="526" on="1"/>
        <pt x="183" y="0" on="1"/>
        <pt x="100" y="0" on="1"/>
        <pt x="100" y="688" on="1"/>
        <pt x="188" y="688" on="1"/>
        <pt x="546" y="173" on="1"/>
        <pt x="550" y="173" on="1"/>
        <pt x="550" y="688" on="1"/>
      </contour>
    </TTGlyph>
    <TTGlyph name="Eogonek" xMin="100" yMin="-196" xMax="548" yMax="688">
      <contour>
        <pt x="453" y="-196" on="0"/>
        <pt x="409" y="-155" on="0"/>
        <pt x="409" y="-121" on="1"/>
        <pt x="409" y="-61" on="0"/>
        <pt x="476" y="0" on="1"/>
        <pt x="100" y="0" on="1"/>
        <pt x="100" y="688" on="1"/>
        <pt x="548" y="688" on="1"/>
        <pt x="548" y="608" on="1"/>
        <pt x="186" y="608" on="1"/>
        <pt x="186" y="387" on="1"/>
        <pt x="500" y="387" on="1"/>
        <pt x="500" y="307" on="1"/>
        <pt x="186" y="307" on="1"/>
        <pt x="186" y="80" on="1"/>
        <pt x="548" y="80" on="1"/>
        <pt x="548" y="0" on="1"/>
        <pt x="523" y="-17" on="0"/>
        <pt x="479" y="-76" on="0"/>
        <pt x="479" y="-101" on="1"/>
        <pt x="479" y="-118" on="0"/>
        <pt x="501" y="-139" on="0"/>
        <pt x="525" y="-139" on="1"/>
        <pt x="543" y="-138" on="1"/>
        <pt x="543" y="-194" on="1"/>
        <pt x="540" y="-194" on="0"/>
        <pt x="522" y="-196" on="0"/>
        <pt x="504" y="-196" on="1"/>
      </contour>
    </TTGlyph>
    <TTGlyph name="Eth" xMin="32" yMin="0" xMax="612" yMax="688">
      <contour>
        <pt x="100" y="311" on="1"/>
        <pt x="32" y="311" on="1"/>
        <pt x="32" y="386" on="1"/>
        <pt x="100" y="386" on="1"/>
        <pt x="100" y="688" on="1"/>
        <pt x="319" y="688" on="1"/>
        <pt x="462" y="688" on="0"/>
        <pt x="580" y="637" on="0"/>
        <pt x="612" y="505" on="0"/>
        <pt x="612" y="344" on="1"/>
        <pt x="612" y="183" on="0"/>
        <pt x="580" y="51" on="0"/>
        <pt x="462" y="0" on="0"/>
        <pt x="319" y="0" on="1"/>
        <pt x="100" y="0" on="1"/>
      </contour>
      <contour>
        <pt x="422" y="80" on="0"/>
        <pt x="503" y="105" on="0"/>
        <pt x="527" y="204" on="0"/>
        <pt x="527" y="344" on="1"/>
        <pt x="527" y="483" on="0"/>
        <pt x="502" y="583" on="0"/>
        <pt x="421" y="608" on="0"/>
        <pt x="305" y="608" on="1"/>
        <pt x="186" y="608" on="1"/>
        <pt x="186" y="386" on="1"/>
        <pt x="296" y="386" on="1"/>
        <pt x="296" y="311" on="1"/>
        <pt x="186" y="311" on="1"/>
        <pt x="186" y="80" on="1"/>
        <pt x="305" y="80" on="1"/>
      </contour>
    </TTGlyph>
    <TTGlyph name="Euro" xMin="37" yMin="-8" xMax="563" yMax="696">
      <contour>
        <pt x="291" y="-8" on="0"/>
        <pt x="181" y="30" on="0"/>
        <pt x="132" y="134" on="0"/>
        <pt x="127" y="240" on="1"/>
        <pt x="37" y="240" on="1"/>
        <pt x="37" y="298" on="1"/>
        <pt x="125" y="298" on="1"/>
        <pt x="125" y="393" on="1"/>
        <pt x="37" y="393" on="1"/>
        <pt x="37" y="450" on="1"/>
        <pt x="127" y="450" on="1"/>
        <pt x="133" y="551" on="0"/>
        <pt x="183" y="655" on="0"/>
        <pt x="294" y="696" on="0"/>
        <pt x="400" y="696" on="1"/>
        <pt x="474" y="696" on="0"/>
        <pt x="559" y="681" on="1"/>
        <pt x="559" y="606" on="1"/>
        <pt x="541" y="609" on="0"/>
        <pt x="456" y="616" on="0"/>
        <pt x="421" y="616" on="1"/>
        <pt x="333" y="616" on="0"/>
        <pt x="252" y="595" on="0"/>
        <pt x="217" y="527" on="0"/>
        <pt x="213" y="450" on="1"/>
        <pt x="510" y="450" on="1"/>
        <pt x="510" y="393" on="1"/>
        <pt x="212" y="393" on="1"/>
        <pt x="212" y="298" on="1"/>
        <pt x="510" y="298" on="1"/>
        <pt x="510" y="240" on="1"/>
        <pt x="213" y="240" on="1"/>
        <pt x="217" y="162" on="0"/>
        <pt x="252" y="93" on="0"/>
        <pt x="332" y="72" on="0"/>
        <pt x="421" y="72" on="1"/>
        <pt x="463" y="72" on="0"/>
        <pt x="544" y="79" on="0"/>
        <pt x="563" y="82" on="1"/>
        <pt x="563" y="4" on="1"/>
        <pt x="558" y="3" on="0"/>
        <pt x="464" y="-8" on="0"/>
        <pt x="400" y="-8" on="1"/>
      </contour>
    </TTGlyph>
    <TTGlyph name="F" xMin="100" yMin="0" xMax="528" yMax="688">
      <contour>
        <pt x="100" y="688" on="1"/>
        <pt x="528" y="688" on="1"/>
        <pt x="528" y="608" on="1"/>
        <pt x="186" y="608" on="1"/>
        <pt x="186" y="372" on="1"/>
        <pt x="490" y="372" on="1"/>
        <pt x="490" y="291" on="1"/>
        <pt x="186" y="291" on="1"/>
        <pt x="186" y="0" on="1"/>
        <pt x="100" y="0" on="1"/>
      </contour>
    </TTGlyph>
    <TTGlyph name="G" xMin="77" yMin="-8" xMax="588" yMax="696">
      <contour>
        <pt x="350" y="294" on="1"/>
        <pt x="350" y="373" on="1"/>
        <pt x="588" y="373" on="1"/>
        <pt x="588" y="12" on="1"/>
        <pt x="539" y="3" on="0"/>
        <pt x="416" y="-8" on="0"/>
        <pt x="369" y="-8" on="1"/>
        <pt x="243" y="-8" on="0"/>
        <pt x="122" y="47" on="0"/>
        <pt x="77" y="192" on="0"/>
        <pt x="77" y="344" on="1"/>
        <pt x="77" y="495" on="0"/>
        <pt x="123" y="641" on="0"/>
        <pt x="244" y="696" on="0"/>
        <pt x="369" y="696" on="1"/>
        <pt x="418" y="696" on="0"/>
        <pt x="539" y="684" on="0"/>
        <pt x="585" y="676" on="1"/>
        <pt x="585" y="600" on="1"/>
        <pt x="471" y="616" on="0"/>
        <pt x="411" y="616" on="1"/>
        <pt x="292" y="616" on="0"/>
        <pt x="199" y="590" on="0"/>
        <pt x="162" y="480" on="0"/>
        <pt x="162" y="344" on="1"/>
        <pt x="162" y="218" on="0"/>
        <pt x="190" y="108" on="0"/>
        <pt x="274" y="70" on="0"/>
        <pt x="370" y="70" on="1"/>
        <pt x="400" y="70" on="0"/>
        <pt x="480" y="75" on="0"/>
        <pt x="505" y="78" on="1"/>
        <pt x="505" y="294" on="1"/>
      </contour>
    </TTGlyph>
    <TTGlyph name="G.ss01" xMin="77" yMin="-8" xMax="620" yMax="696">
      <contour>
        <pt x="241" y="-8" on="0"/>
        <pt x="120" y="46" on="0"/>
        <pt x="77" y="191" on="0"/>
        <pt x="77" y="344" on="1"/>
        <pt x="77" y="495" on="0"/>
        <pt x="125" y="641" on="0"/>
        <pt x="249" y="696" on="0"/>
        <pt x="377" y="696" on="1"/>
        <pt x="427" y="696" on="0"/>
        <pt x="549" y="685" on="0"/>
        <pt x="596" y="676" on="1"/>
        <pt x="596" y="600" on="1"/>
        <pt x="479" y="616" on="0"/>
        <pt x="419" y="616" on="1"/>
        <pt x="296" y="616" on="0"/>
        <pt x="200" y="590" on="0"/>
        <pt x="162" y="481" on="0"/>
        <pt x="162" y="344" on="1"/>
        <pt x="162" y="216" on="0"/>
        <pt x="190" y="107" on="0"/>
        <pt x="271" y="72" on="0"/>
        <pt x="365" y="72" on="1"/>
        <pt x="451" y="72" on="0"/>
        <pt x="517" y="97" on="0"/>
        <pt x="535" y="174" on="0"/>
        <pt x="535" y="277" on="1"/>
        <pt x="535" y="303" on="1"/>
        <pt x="378" y="303" on="1"/>
        <pt x="378" y="381" on="1"/>
        <pt x="620" y="381" on="1"/>
        <pt x="620" y="297" on="1"/>
        <pt x="620" y="157" on="0"/>
        <pt x="594" y="41" on="0"/>
        <pt x="492" y="-8" on="0"/>
        <pt x="369" y="-8" on="1"/>
      </contour>
    </TTGlyph>
    <TTGlyph name="G_tilde.loclGUA" xMin="77" yMin="-8" xMax="588" yMax="889">
      <component glyphName="G" x="0" y="0" flags="0x0"/>
      <component glyphName="tildecomb.case" x="540" y="0" flags="0x0"/>
    </TTGlyph>
    <TTGlyph name="Gbreve" xMin="77" yMin="-8" xMax="588" yMax="888">
      <component glyphName="G" x="0" y="0" flags="0x0"/>
      <component glyphName="uni0306.case" x="497" y="0" flags="0x0"/>
    </TTGlyph>
    <TTGlyph name="Gbreve.ss01" xMin="77" yMin="-8" xMax="620" yMax="888">
      <component glyphName="G.ss01" x="0" y="0" flags="0x0"/>
      <component glyphName="uni0306.case" x="505" y="0" flags="0x0"/>
    </TTGlyph>
    <TTGlyph name="Gcaron" xMin="77" yMin="-8" xMax="588" yMax="888">
      <component glyphName="G" x="0" y="0" flags="0x0"/>
      <component glyphName="uni030C.case" x="504" y="0" flags="0x0"/>
    </TTGlyph>
    <TTGlyph name="Gcaron.ss01" xMin="77" yMin="-8" xMax="620" yMax="888">
      <component glyphName="G.ss01" x="0" y="0" flags="0x0"/>
      <component glyphName="uni030C.case" x="512" y="0" flags="0x0"/>
    </TTGlyph>
    <TTGlyph name="Gcircumflex" xMin="77" yMin="-8" xMax="588" yMax="888">
      <component glyphName="G" x="0" y="0" flags="0x0"/>
      <component glyphName="uni0302.case" x="504" y="0" flags="0x0"/>
    </TTGlyph>
    <TTGlyph name="Gcircumflex.ss01" xMin="77" yMin="-8" xMax="620" yMax="888">
      <component glyphName="G.ss01" x="0" y="0" flags="0x0"/>
      <component glyphName="uni0302.case" x="512" y="0" flags="0x0"/>
    </TTGlyph>
    <TTGlyph name="Gcommaaccent" xMin="77" yMin="-266" xMax="588" yMax="696">
      <component glyphName="G" x="0" y="0" flags="0x0"/>
      <component glyphName="uni0326" x="458" y="0" flags="0x0"/>
    </TTGlyph>
    <TTGlyph name="Gcommaaccent.ss01" xMin="77" yMin="-266" xMax="620" yMax="696">
      <component glyphName="G.ss01" x="0" y="0" flags="0x0"/>
      <component glyphName="uni0326" x="466" y="0" flags="0x0"/>
    </TTGlyph>
    <TTGlyph name="Gdotaccent" xMin="77" yMin="-8" xMax="588" yMax="875">
      <component glyphName="G" x="0" y="0" flags="0x0"/>
      <component glyphName="uni0307.case" x="397" y="0" flags="0x0"/>
    </TTGlyph>
    <TTGlyph name="Gdotaccent.ss01" xMin="77" yMin="-8" xMax="620" yMax="875">
      <component glyphName="G.ss01" x="0" y="0" flags="0x0"/>
      <component glyphName="uni0307.case" x="405" y="0" flags="0x0"/>
    </TTGlyph>
    <TTGlyph name="Gtilde.loclGUA.ss01" xMin="77" yMin="-8" xMax="620" yMax="889">
      <component glyphName="G.ss01" x="0" y="0" flags="0x0"/>
      <component glyphName="tildecomb.case" x="548" y="0" flags="0x0"/>
    </TTGlyph>
    <TTGlyph name="H" xMin="100" yMin="0" xMax="632" yMax="688">
      <contour>
        <pt x="547" y="305" on="1"/>
        <pt x="186" y="305" on="1"/>
        <pt x="186" y="0" on="1"/>
        <pt x="100" y="0" on="1"/>
        <pt x="100" y="688" on="1"/>
        <pt x="186" y="688" on="1"/>
        <pt x="186" y="388" on="1"/>
        <pt x="547" y="388" on="1"/>
        <pt x="547" y="688" on="1"/>
        <pt x="632" y="688" on="1"/>
        <pt x="632" y="0" on="1"/>
        <pt x="547" y="0" on="1"/>
      </contour>
    </TTGlyph>
    <TTGlyph name="Hbar" xMin="100" yMin="0" xMax="632" yMax="688">
      <contour>
        <pt x="632" y="688" on="1"/>
        <pt x="632" y="0" on="1"/>
        <pt x="547" y="0" on="1"/>
        <pt x="547" y="273" on="1"/>
        <pt x="186" y="273" on="1"/>
        <pt x="186" y="0" on="1"/>
        <pt x="100" y="0" on="1"/>
        <pt x="100" y="688" on="1"/>
        <pt x="186" y="688" on="1"/>
        <pt x="186" y="555" on="1"/>
        <pt x="547" y="555" on="1"/>
        <pt x="547" y="688" on="1"/>
      </contour>
      <contour>
        <pt x="547" y="356" on="1"/>
        <pt x="547" y="480" on="1"/>
        <pt x="186" y="480" on="1"/>
        <pt x="186" y="356" on="1"/>
      </contour>
    </TTGlyph>
    <TTGlyph name="Hcircumflex" xMin="100" yMin="0" xMax="632" yMax="888">
      <component glyphName="H" x="0" y="0" flags="0x0"/>
      <component glyphName="uni0302.case" x="531" y="0" flags="0x0"/>
    </TTGlyph>
    <TTGlyph name="I" xMin="100" yMin="0" xMax="186" yMax="688">
      <contour>
        <pt x="100" y="688" on="1"/>
        <pt x="186" y="688" on="1"/>
        <pt x="186" y="0" on="1"/>
        <pt x="100" y="0" on="1"/>
      </contour>
    </TTGlyph>
    <TTGlyph name="IJ" xMin="100" yMin="0" xMax="549" yMax="688">
      <component glyphName="I" x="0" y="0" flags="0x0"/>
      <component glyphName="J" x="286" y="0" flags="0x0"/>
    </TTGlyph>
    <TTGlyph name="Iacute" xMin="98" yMin="0" xMax="287" yMax="891">
      <component glyphName="I" x="0" y="0" flags="0x0"/>
      <component glyphName="acute" x="78" y="148" flags="0x4"/>
    </TTGlyph>
    <TTGlyph name="Iacute_J.loclNLD" xMin="100" yMin="0" xMax="660" yMax="888">
      <component glyphName="I" x="0" y="0" flags="0x0"/>
      <component glyphName="acutecomb.case" x="317" y="0" flags="0x0"/>
      <component glyphName="J" x="286" y="0" flags="0x0"/>
      <component glyphName="acutecomb.case" x="680" y="0" flags="0x0"/>
    </TTGlyph>
    <TTGlyph name="Ibreve" xMin="5" yMin="0" xMax="281" yMax="888">
      <component glyphName="I" x="0" y="0" flags="0x0"/>
      <component glyphName="uni0306.case" x="301" y="0" flags="0x0"/>
    </TTGlyph>
    <TTGlyph name="Icircumflex" xMin="-2" yMin="0" xMax="287" yMax="892">
      <component glyphName="I" x="0" y="0" flags="0x0"/>
      <component glyphName="circumflex" x="-22" y="149" flags="0x4"/>
    </TTGlyph>
    <TTGlyph name="Idieresis" xMin="10" yMin="0" xMax="275" yMax="858">
      <component glyphName="I" x="0" y="0" flags="0x0"/>
      <component glyphName="dieresis" x="-10" y="128" flags="0x4"/>
    </TTGlyph>
    <TTGlyph name="Idotaccent" xMin="100" yMin="0" xMax="186" yMax="875">
      <component glyphName="I" x="0" y="0" flags="0x0"/>
      <component glyphName="uni0307.case" x="201" y="0" flags="0x0"/>
    </TTGlyph>
    <TTGlyph name="Igrave" xMin="3" yMin="0" xMax="192" yMax="891">
      <component glyphName="I" x="0" y="0" flags="0x0"/>
      <component glyphName="grave" x="-17" y="148" flags="0x4"/>
    </TTGlyph>
    <TTGlyph name="Imacron" xMin="21" yMin="0" xMax="265" yMax="887">
      <component glyphName="I" x="0" y="0" flags="0x0"/>
      <component glyphName="uni0304.case" x="324" y="0" flags="0x0"/>
    </TTGlyph>
    <TTGlyph name="Iogonek" xMin="52" yMin="-196" xMax="187" yMax="688">
      <contour>
        <pt x="52" y="-196" on="0"/>
        <pt x="52" y="-118" on="1"/>
        <pt x="52" y="-90" on="0"/>
        <pt x="86" y="-26" on="0"/>
        <pt x="114" y="0" on="1"/>
        <pt x="100" y="0" on="1"/>
        <pt x="100" y="688" on="1"/>
        <pt x="186" y="688" on="1"/>
        <pt x="186" y="0" on="1"/>
        <pt x="164" y="-16" on="0"/>
        <pt x="123" y="-75" on="0"/>
        <pt x="123" y="-99" on="1"/>
        <pt x="123" y="-139" on="0"/>
        <pt x="170" y="-139" on="1"/>
        <pt x="187" y="-138" on="1"/>
        <pt x="187" y="-194" on="1"/>
        <pt x="184" y="-194" on="0"/>
        <pt x="160" y="-196" on="0"/>
        <pt x="147" y="-196" on="1"/>
      </contour>
    </TTGlyph>
    <TTGlyph name="Itilde" xMin="-38" yMin="0" xMax="323" yMax="889">
      <component glyphName="I" x="0" y="0" flags="0x0"/>
      <component glyphName="tildecomb.case" x="344" y="0" flags="0x0"/>
    </TTGlyph>
    <TTGlyph name="J" xMin="34" yMin="0" xMax="263" yMax="688">
      <contour>
        <pt x="110" y="78" on="0"/>
        <pt x="163" y="97" on="0"/>
        <pt x="177" y="161" on="0"/>
        <pt x="177" y="254" on="1"/>
        <pt x="177" y="688" on="1"/>
        <pt x="263" y="688" on="1"/>
        <pt x="263" y="284" on="1"/>
        <pt x="263" y="136" on="0"/>
        <pt x="239" y="30" on="0"/>
        <pt x="154" y="1" on="0"/>
        <pt x="34" y="0" on="1"/>
        <pt x="34" y="76" on="1"/>
      </contour>
    </TTGlyph>
    <TTGlyph name="Jcircumflex" xMin="34" yMin="0" xMax="364" yMax="888">
      <component glyphName="J" x="0" y="0" flags="0x0"/>
      <component glyphName="uni0302.case" x="385" y="0" flags="0x0"/>
    </TTGlyph>
    <TTGlyph name="K" xMin="100" yMin="0" xMax="644" yMax="688">
      <contour>
        <pt x="310" y="310" on="1"/>
        <pt x="186" y="310" on="1"/>
        <pt x="186" y="0" on="1"/>
        <pt x="100" y="0" on="1"/>
        <pt x="100" y="688" on="1"/>
        <pt x="186" y="688" on="1"/>
        <pt x="186" y="390" on="1"/>
        <pt x="310" y="390" on="1"/>
        <pt x="545" y="688" on="1"/>
        <pt x="641" y="688" on="1"/>
        <pt x="379" y="355" on="1"/>
        <pt x="644" y="0" on="1"/>
        <pt x="544" y="0" on="1"/>
      </contour>
    </TTGlyph>
    <TTGlyph name="Kcommaaccent" xMin="100" yMin="-266" xMax="644" yMax="688">
      <component glyphName="K" x="0" y="0" flags="0x0"/>
      <component glyphName="uni0326" x="455" y="0" flags="0x0"/>
    </TTGlyph>
    <TTGlyph name="L" xMin="100" yMin="0" xMax="507" yMax="688">
      <contour>
        <pt x="100" y="688" on="1"/>
        <pt x="186" y="688" on="1"/>
        <pt x="186" y="83" on="1"/>
        <pt x="507" y="83" on="1"/>
        <pt x="507" y="0" on="1"/>
        <pt x="100" y="0" on="1"/>
      </contour>
    </TTGlyph>
    <TTGlyph name="Lacute" xMin="100" yMin="0" xMax="507" yMax="888">
      <component glyphName="L" x="0" y="0" flags="0x0"/>
      <component glyphName="acutecomb.case" x="317" y="0" flags="0x0"/>
    </TTGlyph>
    <TTGlyph name="Lcaron" xMin="100" yMin="0" xMax="507" yMax="688">
      <component glyphName="L" x="0" y="0" flags="0x0"/>
      <component glyphName="caron.loclCSY" x="277" y="0" flags="0x0"/>
    </TTGlyph>
    <TTGlyph name="Lcommaaccent" xMin="100" yMin="-266" xMax="507" yMax="688">
      <component glyphName="L" x="0" y="0" flags="0x0"/>
      <component glyphName="uni0326" x="408" y="0" flags="0x0"/>
    </TTGlyph>
    <TTGlyph name="Ldot" xMin="100" yMin="0" xMax="507" yMax="688">
      <component glyphName="L" x="0" y="0" flags="0x0"/>
      <component glyphName="periodcentered" x="303" y="68" flags="0x4"/>
    </TTGlyph>
    <TTGlyph name="Lslash" xMin="36" yMin="0" xMax="507" yMax="688">
      <contour>
        <pt x="507" y="83" on="1"/>
        <pt x="507" y="0" on="1"/>
        <pt x="100" y="0" on="1"/>
        <pt x="100" y="288" on="1"/>
        <pt x="36" y="264" on="1"/>
        <pt x="36" y="336" on="1"/>
        <pt x="100" y="360" on="1"/>
        <pt x="100" y="688" on="1"/>
        <pt x="186" y="688" on="1"/>
        <pt x="186" y="392" on="1"/>
        <pt x="376" y="464" on="1"/>
        <pt x="376" y="392" on="1"/>
        <pt x="186" y="320" on="1"/>
        <pt x="186" y="83" on="1"/>
      </contour>
    </TTGlyph>
    <TTGlyph name="M" xMin="100" yMin="0" xMax="807" yMax="688">
      <contour>
        <pt x="723" y="541" on="1"/>
        <pt x="719" y="541" on="1"/>
        <pt x="483" y="0" on="1"/>
        <pt x="420" y="0" on="1"/>
        <pt x="185" y="541" on="1"/>
        <pt x="181" y="541" on="1"/>
        <pt x="181" y="0" on="1"/>
        <pt x="100" y="0" on="1"/>
        <pt x="100" y="688" on="1"/>
        <pt x="216" y="688" on="1"/>
        <pt x="451" y="153" on="1"/>
        <pt x="456" y="153" on="1"/>
        <pt x="691" y="688" on="1"/>
        <pt x="807" y="688" on="1"/>
        <pt x="807" y="0" on="1"/>
        <pt x="723" y="0" on="1"/>
      </contour>
    </TTGlyph>
    <TTGlyph name="N" xMin="100" yMin="0" xMax="632" yMax="688">
      <contour>
        <pt x="187" y="526" on="1"/>
        <pt x="183" y="526" on="1"/>
        <pt x="183" y="0" on="1"/>
        <pt x="100" y="0" on="1"/>
        <pt x="100" y="688" on="1"/>
        <pt x="188" y="688" on="1"/>
        <pt x="546" y="174" on="1"/>
        <pt x="550" y="174" on="1"/>
        <pt x="550" y="688" on="1"/>
        <pt x="632" y="688" on="1"/>
        <pt x="632" y="0" on="1"/>
        <pt x="550" y="0" on="1"/>
      </contour>
    </TTGlyph>
    <TTGlyph name="Nacute" xMin="100" yMin="0" xMax="632" yMax="888">
      <component glyphName="N" x="0" y="0" flags="0x0"/>
      <component glyphName="acutecomb.case" x="540" y="0" flags="0x0"/>
    </TTGlyph>
    <TTGlyph name="Nacute.loclPLK" xMin="100" yMin="0" xMax="632" yMax="888">
      <component glyphName="N" x="0" y="0" flags="0x0"/>
      <component glyphName="acute.case.loclPLK" x="311" y="0" flags="0x0"/>
    </TTGlyph>
    <TTGlyph name="Ncaron" xMin="100" yMin="0" xMax="632" yMax="888">
      <component glyphName="N" x="0" y="0" flags="0x0"/>
      <component glyphName="uni030C.case" x="531" y="0" flags="0x0"/>
    </TTGlyph>
    <TTGlyph name="Ncommaaccent" xMin="100" yMin="-266" xMax="632" yMax="688">
      <component glyphName="N" x="0" y="0" flags="0x0"/>
      <component glyphName="uni0326" x="485" y="0" flags="0x0"/>
    </TTGlyph>
    <TTGlyph name="Ntilde" xMin="100" yMin="0" xMax="632" yMax="879">
      <component glyphName="N" x="0" y="0" flags="0x0"/>
      <component glyphName="tilde" x="167" y="135" flags="0x4"/>
    </TTGlyph>
    <TTGlyph name="O" xMin="77" yMin="-8" xMax="641" yMax="696">
      <contour>
        <pt x="222" y="-8" on="0"/>
        <pt x="108" y="46" on="0"/>
        <pt x="77" y="181" on="0"/>
        <pt x="77" y="344" on="1"/>
        <pt x="77" y="507" on="0"/>
        <pt x="108" y="642" on="0"/>
        <pt x="222" y="696" on="0"/>
        <pt x="359" y="696" on="1"/>
        <pt x="495" y="696" on="0"/>
        <pt x="610" y="642" on="0"/>
        <pt x="641" y="507" on="0"/>
        <pt x="641" y="344" on="1"/>
        <pt x="641" y="181" on="0"/>
        <pt x="610" y="46" on="0"/>
        <pt x="495" y="-8" on="0"/>
        <pt x="359" y="-8" on="1"/>
      </contour>
      <contour>
        <pt x="461" y="72" on="0"/>
        <pt x="533" y="98" on="0"/>
        <pt x="555" y="202" on="0"/>
        <pt x="555" y="344" on="1"/>
        <pt x="555" y="486" on="0"/>
        <pt x="533" y="590" on="0"/>
        <pt x="461" y="616" on="0"/>
        <pt x="359" y="616" on="1"/>
        <pt x="257" y="616" on="0"/>
        <pt x="184" y="590" on="0"/>
        <pt x="162" y="486" on="0"/>
        <pt x="162" y="344" on="1"/>
        <pt x="162" y="202" on="0"/>
        <pt x="184" y="98" on="0"/>
        <pt x="257" y="72" on="0"/>
        <pt x="359" y="72" on="1"/>
      </contour>
    </TTGlyph>
    <TTGlyph name="OE" xMin="77" yMin="0" xMax="990" yMax="688">
      <contour>
        <pt x="222" y="0" on="0"/>
        <pt x="108" y="52" on="0"/>
        <pt x="77" y="185" on="0"/>
        <pt x="77" y="344" on="1"/>
        <pt x="77" y="503" on="0"/>
        <pt x="108" y="636" on="0"/>
        <pt x="222" y="688" on="0"/>
        <pt x="359" y="688" on="1"/>
        <pt x="990" y="688" on="1"/>
        <pt x="990" y="608" on="1"/>
        <pt x="663" y="608" on="1"/>
        <pt x="620" y="608" on="0"/>
        <pt x="591" y="614" on="1"/>
        <pt x="620" y="584" on="0"/>
        <pt x="640" y="480" on="0"/>
        <pt x="641" y="387" on="1"/>
        <pt x="943" y="387" on="1"/>
        <pt x="943" y="307" on="1"/>
        <pt x="641" y="307" on="1"/>
        <pt x="640" y="208" on="0"/>
        <pt x="621" y="105" on="0"/>
        <pt x="591" y="74" on="1"/>
        <pt x="620" y="80" on="0"/>
        <pt x="663" y="80" on="1"/>
        <pt x="990" y="80" on="1"/>
        <pt x="990" y="0" on="1"/>
        <pt x="359" y="0" on="1"/>
      </contour>
      <contour>
        <pt x="461" y="80" on="0"/>
        <pt x="533" y="106" on="0"/>
        <pt x="555" y="206" on="0"/>
        <pt x="555" y="344" on="1"/>
        <pt x="555" y="482" on="0"/>
        <pt x="533" y="582" on="0"/>
        <pt x="461" y="608" on="0"/>
        <pt x="359" y="608" on="1"/>
        <pt x="257" y="608" on="0"/>
        <pt x="184" y="582" on="0"/>
        <pt x="162" y="482" on="0"/>
        <pt x="162" y="344" on="1"/>
        <pt x="162" y="206" on="0"/>
        <pt x="184" y="106" on="0"/>
        <pt x="257" y="80" on="0"/>
        <pt x="359" y="80" on="1"/>
      </contour>
    </TTGlyph>
    <TTGlyph name="Oacute" xMin="77" yMin="-8" xMax="641" yMax="891">
      <component glyphName="O" x="0" y="0" flags="0x0"/>
      <component glyphName="acute" x="297" y="148" flags="0x4"/>
    </TTGlyph>
    <TTGlyph name="Oacute.loclPLK" xMin="77" yMin="-8" xMax="641" yMax="888">
      <component glyphName="O" x="0" y="0" flags="0x0"/>
      <component glyphName="acute.case.loclPLK" x="304" y="0" flags="0x0"/>
    </TTGlyph>
    <TTGlyph name="Obreve" xMin="77" yMin="-8" xMax="641" yMax="888">
      <component glyphName="O" x="0" y="0" flags="0x0"/>
      <component glyphName="uni0306.case" x="517" y="0" flags="0x0"/>
    </TTGlyph>
    <TTGlyph name="Ocircumflex" xMin="77" yMin="-8" xMax="641" yMax="892">
      <component glyphName="O" x="0" y="0" flags="0x0"/>
      <component glyphName="circumflex" x="194" y="149" flags="0x4"/>
    </TTGlyph>
    <TTGlyph name="Odieresis" xMin="77" yMin="-8" xMax="641" yMax="858">
      <component glyphName="O" x="0" y="0" flags="0x0"/>
      <component glyphName="dieresis" x="206" y="128" flags="0x4"/>
    </TTGlyph>
    <TTGlyph name="Ograve" xMin="77" yMin="-8" xMax="641" yMax="891">
      <component glyphName="O" x="0" y="0" flags="0x0"/>
      <component glyphName="grave" x="185" y="148" flags="0x4"/>
    </TTGlyph>
    <TTGlyph name="Ohorn" xMin="77" yMin="-8" xMax="664" yMax="783">
      <contour>
        <pt x="664" y="783" on="1"/>
        <pt x="664" y="759" on="1"/>
        <pt x="664" y="719" on="0"/>
        <pt x="652" y="674" on="0"/>
        <pt x="617" y="651" on="0"/>
        <pt x="584" y="648" on="1"/>
        <pt x="621" y="615" on="0"/>
        <pt x="641" y="485" on="0"/>
        <pt x="641" y="344" on="1"/>
        <pt x="641" y="181" on="0"/>
        <pt x="610" y="46" on="0"/>
        <pt x="495" y="-8" on="0"/>
        <pt x="359" y="-8" on="1"/>
        <pt x="222" y="-8" on="0"/>
        <pt x="108" y="46" on="0"/>
        <pt x="77" y="181" on="0"/>
        <pt x="77" y="344" on="1"/>
        <pt x="77" y="507" on="0"/>
        <pt x="108" y="642" on="0"/>
        <pt x="222" y="696" on="0"/>
        <pt x="359" y="696" on="1"/>
        <pt x="443" y="696" on="0"/>
        <pt x="488" y="688" on="1"/>
        <pt x="549" y="688" on="1"/>
        <pt x="574" y="688" on="0"/>
        <pt x="598" y="699" on="0"/>
        <pt x="605" y="724" on="0"/>
        <pt x="605" y="751" on="1"/>
        <pt x="605" y="783" on="1"/>
      </contour>
      <contour>
        <pt x="461" y="72" on="0"/>
        <pt x="533" y="98" on="0"/>
        <pt x="555" y="202" on="0"/>
        <pt x="555" y="344" on="1"/>
        <pt x="555" y="486" on="0"/>
        <pt x="533" y="590" on="0"/>
        <pt x="461" y="616" on="0"/>
        <pt x="359" y="616" on="1"/>
        <pt x="257" y="616" on="0"/>
        <pt x="184" y="590" on="0"/>
        <pt x="162" y="486" on="0"/>
        <pt x="162" y="344" on="1"/>
        <pt x="162" y="202" on="0"/>
        <pt x="184" y="98" on="0"/>
        <pt x="257" y="72" on="0"/>
        <pt x="359" y="72" on="1"/>
      </contour>
    </TTGlyph>
    <TTGlyph name="Ohungarumlaut" xMin="77" yMin="-8" xMax="641" yMax="883">
      <component glyphName="O" x="0" y="0" flags="0x0"/>
      <component glyphName="uni030B.case" x="619" y="0" flags="0x0"/>
    </TTGlyph>
    <TTGlyph name="Omacron" xMin="77" yMin="-8" xMax="641" yMax="887">
      <component glyphName="O" x="0" y="0" flags="0x0"/>
      <component glyphName="uni0304.case" x="540" y="0" flags="0x0"/>
    </TTGlyph>
    <TTGlyph name="Oslash" xMin="77" yMin="-55" xMax="641" yMax="743">
      <contour>
        <pt x="620" y="616" on="0"/>
        <pt x="641" y="484" on="0"/>
        <pt x="641" y="344" on="1"/>
        <pt x="641" y="181" on="0"/>
        <pt x="610" y="46" on="0"/>
        <pt x="495" y="-8" on="0"/>
        <pt x="359" y="-8" on="1"/>
        <pt x="244" y="-8" on="0"/>
        <pt x="190" y="9" on="1"/>
        <pt x="151" y="-55" on="1"/>
        <pt x="77" y="-55" on="1"/>
        <pt x="134" y="39" on="1"/>
        <pt x="97" y="72" on="0"/>
        <pt x="77" y="202" on="0"/>
        <pt x="77" y="344" on="1"/>
        <pt x="77" y="507" on="0"/>
        <pt x="108" y="642" on="0"/>
        <pt x="222" y="696" on="0"/>
        <pt x="359" y="696" on="1"/>
        <pt x="475" y="696" on="0"/>
        <pt x="527" y="679" on="1"/>
        <pt x="566" y="743" on="1"/>
        <pt x="641" y="743" on="1"/>
        <pt x="583" y="649" on="1"/>
      </contour>
      <contour>
        <pt x="162" y="247" on="0"/>
        <pt x="171" y="147" on="0"/>
        <pt x="184" y="120" on="1"/>
        <pt x="483" y="607" on="1"/>
        <pt x="463" y="613" on="0"/>
        <pt x="410" y="616" on="0"/>
        <pt x="359" y="616" on="1"/>
        <pt x="257" y="616" on="0"/>
        <pt x="184" y="590" on="0"/>
        <pt x="162" y="486" on="0"/>
        <pt x="162" y="344" on="1"/>
      </contour>
      <contour>
        <pt x="461" y="72" on="0"/>
        <pt x="533" y="98" on="0"/>
        <pt x="555" y="202" on="0"/>
        <pt x="555" y="344" on="1"/>
        <pt x="555" y="441" on="0"/>
        <pt x="546" y="541" on="0"/>
        <pt x="533" y="568" on="1"/>
        <pt x="234" y="81" on="1"/>
        <pt x="254" y="75" on="0"/>
        <pt x="311" y="72" on="0"/>
        <pt x="359" y="72" on="1"/>
      </contour>
    </TTGlyph>
    <TTGlyph name="Oslashacute" xMin="77" yMin="-55" xMax="641" yMax="888">
      <component glyphName="Oslash" x="0" y="0" flags="0x0"/>
      <component glyphName="acutecomb.case" x="533" y="0" flags="0x0"/>
    </TTGlyph>
    <TTGlyph name="Otilde" xMin="77" yMin="-8" xMax="641" yMax="879">
      <component glyphName="O" x="0" y="0" flags="0x0"/>
      <component glyphName="tilde" x="158" y="135" flags="0x4"/>
    </TTGlyph>
    <TTGlyph name="P" xMin="100" yMin="0" xMax="599" yMax="688">
      <contour>
        <pt x="100" y="688" on="1"/>
        <pt x="402" y="688" on="1"/>
        <pt x="485" y="688" on="0"/>
        <pt x="571" y="634" on="0"/>
        <pt x="599" y="542" on="0"/>
        <pt x="599" y="469" on="1"/>
        <pt x="599" y="399" on="0"/>
        <pt x="571" y="306" on="0"/>
        <pt x="484" y="250" on="0"/>
        <pt x="400" y="250" on="1"/>
        <pt x="186" y="250" on="1"/>
        <pt x="186" y="0" on="1"/>
        <pt x="100" y="0" on="1"/>
      </contour>
      <contour>
        <pt x="371" y="330" on="1"/>
        <pt x="436" y="330" on="0"/>
        <pt x="496" y="357" on="0"/>
        <pt x="514" y="413" on="0"/>
        <pt x="514" y="469" on="1"/>
        <pt x="514" y="525" on="0"/>
        <pt x="497" y="581" on="0"/>
        <pt x="438" y="608" on="0"/>
        <pt x="373" y="608" on="1"/>
        <pt x="186" y="608" on="1"/>
        <pt x="186" y="330" on="1"/>
      </contour>
    </TTGlyph>
    <TTGlyph name="Q" xMin="77" yMin="-115" xMax="659" yMax="696">
      <contour>
        <pt x="659" y="-113" on="1"/>
        <pt x="659" y="-115" on="1"/>
        <pt x="561" y="-115" on="1"/>
        <pt x="479" y="-1" on="1"/>
        <pt x="433" y="-8" on="0"/>
        <pt x="359" y="-8" on="1"/>
        <pt x="222" y="-8" on="0"/>
        <pt x="108" y="46" on="0"/>
        <pt x="77" y="181" on="0"/>
        <pt x="77" y="344" on="1"/>
        <pt x="77" y="507" on="0"/>
        <pt x="108" y="642" on="0"/>
        <pt x="222" y="696" on="0"/>
        <pt x="359" y="696" on="1"/>
        <pt x="495" y="696" on="0"/>
        <pt x="610" y="642" on="0"/>
        <pt x="641" y="507" on="0"/>
        <pt x="641" y="344" on="1"/>
        <pt x="641" y="237" on="0"/>
        <pt x="631" y="119" on="0"/>
        <pt x="596" y="42" on="0"/>
        <pt x="559" y="22" on="1"/>
      </contour>
      <contour>
        <pt x="426" y="72" on="1"/>
        <pt x="321" y="218" on="1"/>
        <pt x="413" y="218" on="1"/>
        <pt x="509" y="88" on="1"/>
        <pt x="529" y="101" on="0"/>
        <pt x="549" y="157" on="0"/>
        <pt x="555" y="254" on="0"/>
        <pt x="555" y="344" on="1"/>
        <pt x="555" y="486" on="0"/>
        <pt x="533" y="590" on="0"/>
        <pt x="461" y="616" on="0"/>
        <pt x="359" y="616" on="1"/>
        <pt x="257" y="616" on="0"/>
        <pt x="184" y="590" on="0"/>
        <pt x="162" y="486" on="0"/>
        <pt x="162" y="344" on="1"/>
        <pt x="162" y="202" on="0"/>
        <pt x="184" y="98" on="0"/>
        <pt x="257" y="72" on="0"/>
        <pt x="359" y="72" on="1"/>
      </contour>
    </TTGlyph>
    <TTGlyph name="R" xMin="100" yMin="0" xMax="618" yMax="688">
      <contour>
        <pt x="526" y="0" on="1"/>
        <pt x="419" y="270" on="1"/>
        <pt x="402" y="270" on="1"/>
        <pt x="186" y="270" on="1"/>
        <pt x="186" y="0" on="1"/>
        <pt x="100" y="0" on="1"/>
        <pt x="100" y="688" on="1"/>
        <pt x="416" y="688" on="1"/>
        <pt x="498" y="688" on="0"/>
        <pt x="582" y="636" on="0"/>
        <pt x="608" y="548" on="0"/>
        <pt x="608" y="479" on="1"/>
        <pt x="608" y="408" on="0"/>
        <pt x="566" y="303" on="0"/>
        <pt x="501" y="284" on="1"/>
        <pt x="618" y="0" on="1"/>
      </contour>
      <contour>
        <pt x="444" y="350" on="0"/>
        <pt x="505" y="377" on="0"/>
        <pt x="522" y="429" on="0"/>
        <pt x="522" y="479" on="1"/>
        <pt x="522" y="530" on="0"/>
        <pt x="506" y="582" on="0"/>
        <pt x="449" y="608" on="0"/>
        <pt x="387" y="608" on="1"/>
        <pt x="186" y="608" on="1"/>
        <pt x="186" y="350" on="1"/>
        <pt x="380" y="350" on="1"/>
      </contour>
    </TTGlyph>
    <TTGlyph name="R.ss01" xMin="100" yMin="0" xMax="612" yMax="688">
      <contour>
        <pt x="612" y="0" on="1"/>
        <pt x="528" y="0" on="1"/>
        <pt x="517" y="152" on="1"/>
        <pt x="514" y="196" on="0"/>
        <pt x="499" y="243" on="0"/>
        <pt x="445" y="273" on="0"/>
        <pt x="388" y="273" on="1"/>
        <pt x="186" y="273" on="1"/>
        <pt x="186" y="0" on="1"/>
        <pt x="100" y="0" on="1"/>
        <pt x="100" y="688" on="1"/>
        <pt x="421" y="688" on="1"/>
        <pt x="525" y="688" on="0"/>
        <pt x="608" y="598" on="0"/>
        <pt x="608" y="501" on="1"/>
        <pt x="608" y="413" on="0"/>
        <pt x="551" y="333" on="0"/>
        <pt x="490" y="319" on="1"/>
        <pt x="490" y="315" on="1"/>
        <pt x="528" y="307" on="0"/>
        <pt x="573" y="279" on="0"/>
        <pt x="598" y="221" on="0"/>
        <pt x="601" y="171" on="1"/>
      </contour>
      <contour>
        <pt x="442" y="353" on="0"/>
        <pt x="501" y="381" on="0"/>
        <pt x="522" y="436" on="0"/>
        <pt x="522" y="481" on="1"/>
        <pt x="522" y="530" on="0"/>
        <pt x="506" y="581" on="0"/>
        <pt x="450" y="608" on="0"/>
        <pt x="390" y="608" on="1"/>
        <pt x="186" y="608" on="1"/>
        <pt x="186" y="353" on="1"/>
        <pt x="385" y="353" on="1"/>
      </contour>
    </TTGlyph>
    <TTGlyph name="Racute" xMin="100" yMin="0" xMax="618" yMax="888">
      <component glyphName="R" x="0" y="0" flags="0x0"/>
      <component glyphName="acutecomb.case" x="515" y="0" flags="0x0"/>
    </TTGlyph>
    <TTGlyph name="Racute.ss01" xMin="100" yMin="0" xMax="612" yMax="888">
      <component glyphName="R.ss01" x="0" y="0" flags="0x0"/>
      <component glyphName="acutecomb.case" x="518" y="0" flags="0x0"/>
    </TTGlyph>
    <TTGlyph name="Rcaron" xMin="100" yMin="0" xMax="618" yMax="888">
      <component glyphName="R" x="0" y="0" flags="0x0"/>
      <component glyphName="uni030C.case" x="506" y="0" flags="0x0"/>
    </TTGlyph>
    <TTGlyph name="Rcaron.ss01" xMin="100" yMin="0" xMax="612" yMax="888">
      <component glyphName="R.ss01" x="0" y="0" flags="0x0"/>
      <component glyphName="uni030C.case" x="509" y="0" flags="0x0"/>
    </TTGlyph>
    <TTGlyph name="Rcommaaccent" xMin="100" yMin="-266" xMax="618" yMax="688">
      <component glyphName="R" x="0" y="0" flags="0x0"/>
      <component glyphName="uni0326" x="460" y="0" flags="0x0"/>
    </TTGlyph>
    <TTGlyph name="Rcommaaccent.ss01" xMin="100" yMin="-266" xMax="612" yMax="688">
      <component glyphName="R.ss01" x="0" y="0" flags="0x0"/>
      <component glyphName="uni0326" x="463" y="0" flags="0x0"/>
    </TTGlyph>
    <TTGlyph name="S" xMin="67" yMin="-8" xMax="561" yMax="696">
      <contour>
        <pt x="274" y="-8" on="0"/>
        <pt x="139" y="0" on="0"/>
        <pt x="87" y="6" on="1"/>
        <pt x="87" y="85" on="1"/>
        <pt x="217" y="72" on="0"/>
        <pt x="304" y="72" on="1"/>
        <pt x="358" y="72" on="0"/>
        <pt x="421" y="81" on="0"/>
        <pt x="443" y="93" on="1"/>
        <pt x="463" y="105" on="0"/>
        <pt x="475" y="152" on="0"/>
        <pt x="475" y="191" on="1"/>
        <pt x="475" y="238" on="0"/>
        <pt x="465" y="277" on="0"/>
        <pt x="428" y="295" on="0"/>
        <pt x="383" y="299" on="1"/>
        <pt x="213" y="318" on="1"/>
        <pt x="151" y="325" on="0"/>
        <pt x="88" y="370" on="0"/>
        <pt x="67" y="443" on="0"/>
        <pt x="67" y="502" on="1"/>
        <pt x="67" y="584" on="0"/>
        <pt x="124" y="668" on="0"/>
        <pt x="227" y="696" on="0"/>
        <pt x="314" y="696" on="1"/>
        <pt x="372" y="696" on="0"/>
        <pt x="492" y="686" on="0"/>
        <pt x="527" y="679" on="1"/>
        <pt x="527" y="603" on="1"/>
        <pt x="489" y="609" on="0"/>
        <pt x="377" y="616" on="0"/>
        <pt x="329" y="616" on="1"/>
        <pt x="273" y="616" on="0"/>
        <pt x="205" y="606" on="0"/>
        <pt x="186" y="594" on="1"/>
        <pt x="165" y="582" on="0"/>
        <pt x="153" y="542" on="0"/>
        <pt x="153" y="505" on="1"/>
        <pt x="153" y="464" on="0"/>
        <pt x="165" y="427" on="0"/>
        <pt x="199" y="410" on="0"/>
        <pt x="238" y="406" on="1"/>
        <pt x="406" y="387" on="1"/>
        <pt x="466" y="381" on="0"/>
        <pt x="532" y="351" on="0"/>
        <pt x="547" y="312" on="1"/>
        <pt x="561" y="276" on="0"/>
        <pt x="561" y="197" on="1"/>
        <pt x="561" y="106" on="0"/>
        <pt x="505" y="17" on="0"/>
        <pt x="411" y="-8" on="0"/>
        <pt x="329" y="-8" on="1"/>
      </contour>
    </TTGlyph>
    <TTGlyph name="Sacute" xMin="67" yMin="-8" xMax="561" yMax="888">
      <component glyphName="S" x="0" y="0" flags="0x0"/>
      <component glyphName="acutecomb.case" x="489" y="0" flags="0x0"/>
    </TTGlyph>
    <TTGlyph name="Sacute.loclPLK" xMin="67" yMin="-8" xMax="561" yMax="888">
      <component glyphName="S" x="0" y="0" flags="0x0"/>
      <component glyphName="acute.case.loclPLK" x="260" y="0" flags="0x0"/>
    </TTGlyph>
    <TTGlyph name="Scaron" xMin="67" yMin="-8" xMax="561" yMax="892">
      <component glyphName="S" x="0" y="0" flags="0x0"/>
      <component glyphName="caron" x="158" y="149" flags="0x4"/>
    </TTGlyph>
    <TTGlyph name="Scedilla" xMin="67" yMin="-190" xMax="561" yMax="696">
      <contour>
        <pt x="561" y="108" on="0"/>
        <pt x="509" y="20" on="0"/>
        <pt x="418" y="-7" on="0"/>
        <pt x="342" y="-8" on="1"/>
        <pt x="304" y="-190" on="1"/>
        <pt x="223" y="-190" on="1"/>
        <pt x="223" y="-185" on="1"/>
        <pt x="283" y="-7" on="1"/>
        <pt x="194" y="-6" on="0"/>
        <pt x="87" y="6" on="1"/>
        <pt x="87" y="85" on="1"/>
        <pt x="217" y="72" on="0"/>
        <pt x="304" y="72" on="1"/>
        <pt x="358" y="72" on="0"/>
        <pt x="421" y="81" on="0"/>
        <pt x="443" y="93" on="1"/>
        <pt x="463" y="105" on="0"/>
        <pt x="475" y="152" on="0"/>
        <pt x="475" y="191" on="1"/>
        <pt x="475" y="238" on="0"/>
        <pt x="465" y="277" on="0"/>
        <pt x="428" y="295" on="0"/>
        <pt x="383" y="299" on="1"/>
        <pt x="213" y="318" on="1"/>
        <pt x="151" y="325" on="0"/>
        <pt x="88" y="370" on="0"/>
        <pt x="67" y="443" on="0"/>
        <pt x="67" y="502" on="1"/>
        <pt x="67" y="584" on="0"/>
        <pt x="124" y="668" on="0"/>
        <pt x="227" y="696" on="0"/>
        <pt x="314" y="696" on="1"/>
        <pt x="372" y="696" on="0"/>
        <pt x="492" y="686" on="0"/>
        <pt x="527" y="679" on="1"/>
        <pt x="527" y="603" on="1"/>
        <pt x="489" y="609" on="0"/>
        <pt x="377" y="616" on="0"/>
        <pt x="329" y="616" on="1"/>
        <pt x="273" y="616" on="0"/>
        <pt x="205" y="606" on="0"/>
        <pt x="186" y="594" on="1"/>
        <pt x="165" y="582" on="0"/>
        <pt x="153" y="542" on="0"/>
        <pt x="153" y="505" on="1"/>
        <pt x="153" y="464" on="0"/>
        <pt x="165" y="427" on="0"/>
        <pt x="199" y="410" on="0"/>
        <pt x="238" y="406" on="1"/>
        <pt x="406" y="387" on="1"/>
        <pt x="466" y="381" on="0"/>
        <pt x="532" y="351" on="0"/>
        <pt x="547" y="312" on="1"/>
        <pt x="561" y="276" on="0"/>
        <pt x="561" y="197" on="1"/>
      </contour>
    </TTGlyph>
    <TTGlyph name="Scircumflex" xMin="67" yMin="-8" xMax="561" yMax="888">
      <component glyphName="S" x="0" y="0" flags="0x0"/>
      <component glyphName="uni0302.case" x="480" y="0" flags="0x0"/>
    </TTGlyph>
    <TTGlyph name="Scommaaccent" xMin="67" yMin="-266" xMax="561" yMax="696">
      <component glyphName="S" x="0" y="0" flags="0x0"/>
      <component glyphName="uni0326" x="434" y="0" flags="0x0"/>
    </TTGlyph>
    <TTGlyph name="T" xMin="30" yMin="0" xMax="551" yMax="688">
      <contour>
        <pt x="248" y="605" on="1"/>
        <pt x="30" y="605" on="1"/>
        <pt x="30" y="688" on="1"/>
        <pt x="551" y="688" on="1"/>
        <pt x="551" y="605" on="1"/>
        <pt x="334" y="605" on="1"/>
        <pt x="334" y="0" on="1"/>
        <pt x="248" y="0" on="1"/>
      </contour>
    </TTGlyph>
    <TTGlyph name="Tbar" xMin="30" yMin="0" xMax="551" yMax="688">
      <contour>
        <pt x="334" y="605" on="1"/>
        <pt x="334" y="375" on="1"/>
        <pt x="526" y="375" on="1"/>
        <pt x="526" y="302" on="1"/>
        <pt x="334" y="302" on="1"/>
        <pt x="334" y="0" on="1"/>
        <pt x="248" y="0" on="1"/>
        <pt x="248" y="302" on="1"/>
        <pt x="55" y="302" on="1"/>
        <pt x="55" y="375" on="1"/>
        <pt x="248" y="375" on="1"/>
        <pt x="248" y="605" on="1"/>
        <pt x="30" y="605" on="1"/>
        <pt x="30" y="688" on="1"/>
        <pt x="551" y="688" on="1"/>
        <pt x="551" y="605" on="1"/>
      </contour>
    </TTGlyph>
    <TTGlyph name="Tcaron" xMin="30" yMin="0" xMax="551" yMax="888">
      <component glyphName="T" x="0" y="0" flags="0x0"/>
      <component glyphName="uni030C.case" x="456" y="0" flags="0x0"/>
    </TTGlyph>
    <TTGlyph name="Thorn" xMin="100" yMin="0" xMax="599" yMax="688">
      <contour>
        <pt x="100" y="688" on="1"/>
        <pt x="186" y="688" on="1"/>
        <pt x="186" y="569" on="1"/>
        <pt x="402" y="569" on="1"/>
        <pt x="485" y="569" on="0"/>
        <pt x="571" y="515" on="0"/>
        <pt x="599" y="423" on="0"/>
        <pt x="599" y="351" on="1"/>
        <pt x="599" y="281" on="0"/>
        <pt x="571" y="188" on="0"/>
        <pt x="484" y="132" on="0"/>
        <pt x="400" y="132" on="1"/>
        <pt x="186" y="132" on="1"/>
        <pt x="186" y="0" on="1"/>
        <pt x="100" y="0" on="1"/>
      </contour>
      <contour>
        <pt x="371" y="212" on="1"/>
        <pt x="436" y="212" on="0"/>
        <pt x="496" y="239" on="0"/>
        <pt x="514" y="295" on="0"/>
        <pt x="514" y="351" on="1"/>
        <pt x="514" y="407" on="0"/>
        <pt x="497" y="462" on="0"/>
        <pt x="438" y="489" on="0"/>
        <pt x="373" y="489" on="1"/>
        <pt x="186" y="489" on="1"/>
        <pt x="186" y="212" on="1"/>
      </contour>
    </TTGlyph>
    <TTGlyph name="U" xMin="92" yMin="-8" xMax="617" yMax="688">
      <contour>
        <pt x="617" y="688" on="1"/>
        <pt x="617" y="301" on="1"/>
        <pt x="617" y="167" on="0"/>
        <pt x="583" y="42" on="0"/>
        <pt x="475" y="-8" on="0"/>
        <pt x="355" y="-8" on="1"/>
        <pt x="235" y="-8" on="0"/>
        <pt x="127" y="43" on="0"/>
        <pt x="92" y="167" on="0"/>
        <pt x="92" y="301" on="1"/>
        <pt x="92" y="688" on="1"/>
        <pt x="177" y="688" on="1"/>
        <pt x="177" y="268" on="1"/>
        <pt x="177" y="178" on="0"/>
        <pt x="197" y="102" on="0"/>
        <pt x="269" y="72" on="0"/>
        <pt x="355" y="72" on="1"/>
        <pt x="441" y="72" on="0"/>
        <pt x="512" y="102" on="0"/>
        <pt x="531" y="177" on="0"/>
        <pt x="531" y="268" on="1"/>
        <pt x="531" y="688" on="1"/>
      </contour>
    </TTGlyph>
    <TTGlyph name="Uacute" xMin="92" yMin="-8" xMax="617" yMax="891">
      <component glyphName="U" x="0" y="0" flags="0x0"/>
      <component glyphName="acute" x="297" y="148" flags="0x4"/>
    </TTGlyph>
    <TTGlyph name="Ubreve" xMin="92" yMin="-8" xMax="617" yMax="888">
      <component glyphName="U" x="0" y="0" flags="0x0"/>
      <component glyphName="uni0306.case" x="513" y="0" flags="0x0"/>
    </TTGlyph>
    <TTGlyph name="Ucircumflex" xMin="92" yMin="-8" xMax="617" yMax="892">
      <component glyphName="U" x="0" y="0" flags="0x0"/>
      <component glyphName="circumflex" x="192" y="149" flags="0x4"/>
    </TTGlyph>
    <TTGlyph name="Udieresis" xMin="92" yMin="-8" xMax="617" yMax="858">
      <component glyphName="U" x="0" y="0" flags="0x0"/>
      <component glyphName="dieresis" x="202" y="128" flags="0x4"/>
    </TTGlyph>
    <TTGlyph name="Ugrave" xMin="92" yMin="-8" xMax="617" yMax="891">
      <component glyphName="U" x="0" y="0" flags="0x0"/>
      <component glyphName="grave" x="200" y="148" flags="0x4"/>
    </TTGlyph>
    <TTGlyph name="Uhorn" xMin="92" yMin="-8" xMax="723" yMax="783">
      <contour>
        <pt x="723" y="783" on="1"/>
        <pt x="723" y="759" on="1"/>
        <pt x="723" y="714" on="0"/>
        <pt x="707" y="668" on="0"/>
        <pt x="662" y="648" on="0"/>
        <pt x="617" y="647" on="1"/>
        <pt x="617" y="301" on="1"/>
        <pt x="617" y="167" on="0"/>
        <pt x="583" y="42" on="0"/>
        <pt x="475" y="-8" on="0"/>
        <pt x="355" y="-8" on="1"/>
        <pt x="235" y="-8" on="0"/>
        <pt x="127" y="43" on="0"/>
        <pt x="92" y="167" on="0"/>
        <pt x="92" y="301" on="1"/>
        <pt x="92" y="688" on="1"/>
        <pt x="177" y="688" on="1"/>
        <pt x="177" y="268" on="1"/>
        <pt x="177" y="178" on="0"/>
        <pt x="197" y="102" on="0"/>
        <pt x="269" y="72" on="0"/>
        <pt x="355" y="72" on="1"/>
        <pt x="441" y="72" on="0"/>
        <pt x="512" y="102" on="0"/>
        <pt x="531" y="177" on="0"/>
        <pt x="531" y="268" on="1"/>
        <pt x="531" y="688" on="1"/>
        <pt x="608" y="688" on="1"/>
        <pt x="633" y="688" on="0"/>
        <pt x="657" y="699" on="0"/>
        <pt x="664" y="724" on="0"/>
        <pt x="664" y="751" on="1"/>
        <pt x="664" y="783" on="1"/>
      </contour>
    </TTGlyph>
    <TTGlyph name="Uhungarumlaut" xMin="92" yMin="-8" xMax="617" yMax="883">
      <component glyphName="U" x="0" y="0" flags="0x0"/>
      <component glyphName="uni030B.case" x="615" y="0" flags="0x0"/>
    </TTGlyph>
    <TTGlyph name="Umacron" xMin="92" yMin="-8" xMax="617" yMax="887">
      <component glyphName="U" x="0" y="0" flags="0x0"/>
      <component glyphName="uni0304.case" x="536" y="0" flags="0x0"/>
    </TTGlyph>
    <TTGlyph name="Uogonek" xMin="92" yMin="-196" xMax="617" yMax="688">
      <contour>
        <pt x="617" y="688" on="1"/>
        <pt x="617" y="301" on="1"/>
        <pt x="617" y="214" on="0"/>
        <pt x="605" y="109" on="0"/>
        <pt x="571" y="41" on="0"/>
        <pt x="537" y="22" on="1"/>
        <pt x="501" y="3" on="0"/>
        <pt x="451" y="-60" on="0"/>
        <pt x="451" y="-99" on="1"/>
        <pt x="451" y="-118" on="0"/>
        <pt x="472" y="-139" on="0"/>
        <pt x="498" y="-139" on="1"/>
        <pt x="515" y="-138" on="1"/>
        <pt x="515" y="-194" on="1"/>
        <pt x="479" y="-196" on="0"/>
        <pt x="475" y="-196" on="1"/>
        <pt x="380" y="-196" on="0"/>
        <pt x="380" y="-118" on="1"/>
        <pt x="380" y="-91" on="0"/>
        <pt x="410" y="-31" on="0"/>
        <pt x="436" y="-4" on="1"/>
        <pt x="405" y="-8" on="0"/>
        <pt x="355" y="-8" on="1"/>
        <pt x="235" y="-8" on="0"/>
        <pt x="127" y="43" on="0"/>
        <pt x="92" y="167" on="0"/>
        <pt x="92" y="301" on="1"/>
        <pt x="92" y="688" on="1"/>
        <pt x="177" y="688" on="1"/>
        <pt x="177" y="268" on="1"/>
        <pt x="177" y="178" on="0"/>
        <pt x="197" y="102" on="0"/>
        <pt x="269" y="72" on="0"/>
        <pt x="355" y="72" on="1"/>
        <pt x="441" y="72" on="0"/>
        <pt x="512" y="102" on="0"/>
        <pt x="531" y="177" on="0"/>
        <pt x="531" y="268" on="1"/>
        <pt x="531" y="688" on="1"/>
      </contour>
    </TTGlyph>
    <TTGlyph name="Uring" xMin="92" yMin="-8" xMax="617" yMax="930">
      <component glyphName="U" x="0" y="0" flags="0x0"/>
      <component glyphName="uni030A.case" x="507" y="0" flags="0x0"/>
    </TTGlyph>
    <TTGlyph name="Utilde" xMin="92" yMin="-8" xMax="617" yMax="889">
      <component glyphName="U" x="0" y="0" flags="0x0"/>
      <component glyphName="tildecomb.case" x="556" y="0" flags="0x0"/>
    </TTGlyph>
    <TTGlyph name="V" xMin="29" yMin="0" xMax="634" yMax="688">
      <contour>
        <pt x="29" y="688" on="1"/>
        <pt x="119" y="688" on="1"/>
        <pt x="330" y="106" on="1"/>
        <pt x="335" y="106" on="1"/>
        <pt x="547" y="688" on="1"/>
        <pt x="634" y="688" on="1"/>
        <pt x="386" y="0" on="1"/>
        <pt x="278" y="0" on="1"/>
      </contour>
    </TTGlyph>
    <TTGlyph name="W" xMin="36" yMin="0" xMax="952" yMax="688">
      <contour>
        <pt x="496" y="547" on="1"/>
        <pt x="492" y="547" on="1"/>
        <pt x="326" y="0" on="1"/>
        <pt x="224" y="0" on="1"/>
        <pt x="36" y="688" on="1"/>
        <pt x="124" y="688" on="1"/>
        <pt x="278" y="118" on="1"/>
        <pt x="283" y="118" on="1"/>
        <pt x="451" y="688" on="1"/>
        <pt x="541" y="688" on="1"/>
        <pt x="711" y="118" on="1"/>
        <pt x="717" y="118" on="1"/>
        <pt x="866" y="688" on="1"/>
        <pt x="952" y="688" on="1"/>
        <pt x="765" y="0" on="1"/>
        <pt x="663" y="0" on="1"/>
      </contour>
    </TTGlyph>
    <TTGlyph name="Wacute" xMin="36" yMin="0" xMax="952" yMax="888">
      <component glyphName="W" x="0" y="0" flags="0x0"/>
      <component glyphName="acutecomb.case" x="668" y="0" flags="0x0"/>
    </TTGlyph>
    <TTGlyph name="Wcircumflex" xMin="36" yMin="0" xMax="952" yMax="888">
      <component glyphName="W" x="0" y="0" flags="0x0"/>
      <component glyphName="uni0302.case" x="659" y="0" flags="0x0"/>
    </TTGlyph>
    <TTGlyph name="Wdieresis" xMin="36" yMin="0" xMax="952" yMax="875">
      <component glyphName="W" x="0" y="0" flags="0x0"/>
      <component glyphName="uni0308.case" x="646" y="0" flags="0x0"/>
    </TTGlyph>
    <TTGlyph name="Wgrave" xMin="36" yMin="0" xMax="952" yMax="888">
      <component glyphName="W" x="0" y="0" flags="0x0"/>
      <component glyphName="gravecomb.case" x="552" y="0" flags="0x0"/>
    </TTGlyph>
    <TTGlyph name="X" xMin="29" yMin="0" xMax="646" yMax="688">
      <contour>
        <pt x="340" y="271" on="1"/>
        <pt x="332" y="271" on="1"/>
        <pt x="127" y="0" on="1"/>
        <pt x="29" y="0" on="1"/>
        <pt x="286" y="345" on="1"/>
        <pt x="33" y="688" on="1"/>
        <pt x="135" y="688" on="1"/>
        <pt x="335" y="423" on="1"/>
        <pt x="343" y="423" on="1"/>
        <pt x="544" y="688" on="1"/>
        <pt x="643" y="688" on="1"/>
        <pt x="390" y="348" on="1"/>
        <pt x="646" y="0" on="1"/>
        <pt x="545" y="0" on="1"/>
      </contour>
    </TTGlyph>
    <TTGlyph name="Y" xMin="12" yMin="0" xMax="598" yMax="688">
      <contour>
        <pt x="261" y="260" on="1"/>
        <pt x="12" y="688" on="1"/>
        <pt x="104" y="688" on="1"/>
        <pt x="303" y="353" on="1"/>
        <pt x="310" y="353" on="1"/>
        <pt x="508" y="688" on="1"/>
        <pt x="598" y="688" on="1"/>
        <pt x="347" y="260" on="1"/>
        <pt x="347" y="0" on="1"/>
        <pt x="261" y="0" on="1"/>
      </contour>
    </TTGlyph>
    <TTGlyph name="Y.loclGUA" xMin="42" yMin="0" xMax="568" yMax="688">
      <contour>
        <pt x="568" y="688" on="1"/>
        <pt x="568" y="505" on="1"/>
        <pt x="568" y="379" on="0"/>
        <pt x="539" y="256" on="0"/>
        <pt x="446" y="201" on="0"/>
        <pt x="347" y="197" on="1"/>
        <pt x="347" y="0" on="1"/>
        <pt x="261" y="0" on="1"/>
        <pt x="261" y="197" on="1"/>
        <pt x="163" y="201" on="0"/>
        <pt x="72" y="257" on="0"/>
        <pt x="42" y="379" on="0"/>
        <pt x="42" y="505" on="1"/>
        <pt x="42" y="688" on="1"/>
        <pt x="128" y="688" on="1"/>
        <pt x="128" y="472" on="1"/>
        <pt x="128" y="381" on="0"/>
        <pt x="148" y="306" on="0"/>
        <pt x="219" y="276" on="0"/>
        <pt x="305" y="276" on="1"/>
        <pt x="391" y="276" on="0"/>
        <pt x="462" y="306" on="0"/>
        <pt x="482" y="381" on="0"/>
        <pt x="482" y="472" on="1"/>
        <pt x="482" y="688" on="1"/>
      </contour>
    </TTGlyph>
    <TTGlyph name="Yacute" xMin="12" yMin="0" xMax="598" yMax="891">
      <component glyphName="Y" x="0" y="0" flags="0x0"/>
      <component glyphName="acute" x="256" y="148" flags="0x4"/>
    </TTGlyph>
    <TTGlyph name="Yacute.loclGUA" xMin="42" yMin="0" xMax="568" yMax="888">
      <component glyphName="Y.loclGUA" x="0" y="0" flags="0x0"/>
      <component glyphName="acutecomb.case" x="478" y="0" flags="0x0"/>
    </TTGlyph>
    <TTGlyph name="Ycircumflex" xMin="12" yMin="0" xMax="598" yMax="888">
      <component glyphName="Y" x="0" y="0" flags="0x0"/>
      <component glyphName="uni0302.case" x="470" y="0" flags="0x0"/>
    </TTGlyph>
    <TTGlyph name="Ycircumflex.loclGUA" xMin="42" yMin="0" xMax="568" yMax="888">
      <component glyphName="Y.loclGUA" x="0" y="0" flags="0x0"/>
      <component glyphName="uni0302.case" x="469" y="0" flags="0x0"/>
    </TTGlyph>
    <TTGlyph name="Ydieresis" xMin="12" yMin="0" xMax="598" yMax="858">
      <component glyphName="Y" x="0" y="0" flags="0x0"/>
      <component glyphName="dieresis" x="156" y="128" flags="0x4"/>
    </TTGlyph>
    <TTGlyph name="Ydieresis.loclGUA" xMin="42" yMin="0" xMax="568" yMax="875">
      <component glyphName="Y.loclGUA" x="0" y="0" flags="0x0"/>
      <component glyphName="uni0308.case" x="456" y="0" flags="0x0"/>
    </TTGlyph>
    <TTGlyph name="Ygrave" xMin="12" yMin="0" xMax="598" yMax="888">
      <component glyphName="Y" x="0" y="0" flags="0x0"/>
      <component glyphName="gravecomb.case" x="363" y="0" flags="0x0"/>
    </TTGlyph>
    <TTGlyph name="Ygrave.loclGUA" xMin="42" yMin="0" xMax="568" yMax="888">
      <component glyphName="Y.loclGUA" x="0" y="0" flags="0x0"/>
      <component glyphName="gravecomb.case" x="362" y="0" flags="0x0"/>
    </TTGlyph>
    <TTGlyph name="Z" xMin="54" yMin="0" xMax="556" yMax="688">
      <contour>
        <pt x="54" y="76" on="1"/>
        <pt x="442" y="608" on="1"/>
        <pt x="65" y="608" on="1"/>
        <pt x="65" y="688" on="1"/>
        <pt x="551" y="688" on="1"/>
        <pt x="551" y="614" on="1"/>
        <pt x="161" y="80" on="1"/>
        <pt x="556" y="80" on="1"/>
        <pt x="556" y="0" on="1"/>
        <pt x="54" y="0" on="1"/>
      </contour>
    </TTGlyph>
    <TTGlyph name="Zacute" xMin="54" yMin="0" xMax="556" yMax="888">
      <component glyphName="Z" x="0" y="0" flags="0x0"/>
      <component glyphName="acutecomb.case" x="478" y="0" flags="0x0"/>
    </TTGlyph>
    <TTGlyph name="Zacute.loclPLK" xMin="54" yMin="0" xMax="556" yMax="888">
      <component glyphName="Z" x="0" y="0" flags="0x0"/>
      <component glyphName="acute.case.loclPLK" x="249" y="0" flags="0x0"/>
    </TTGlyph>
    <TTGlyph name="Zcaron" xMin="54" yMin="0" xMax="556" yMax="891">
      <component glyphName="Z" x="0" y="0" flags="0x0"/>
      <component glyphName="caron" x="146" y="148" flags="0x4"/>
    </TTGlyph>
    <TTGlyph name="Zdotaccent" xMin="54" yMin="0" xMax="556" yMax="875">
      <component glyphName="Z" x="0" y="0" flags="0x0"/>
      <component glyphName="uni0307.case" x="362" y="0" flags="0x0"/>
    </TTGlyph>
    <TTGlyph name="a" xMin="55" yMin="-8" xMax="483" yMax="518">
      <contour>
        <pt x="135" y="-8" on="0"/>
        <pt x="55" y="57" on="0"/>
        <pt x="55" y="140" on="1"/>
        <pt x="55" y="199" on="0"/>
        <pt x="83" y="265" on="0"/>
        <pt x="150" y="295" on="0"/>
        <pt x="211" y="295" on="1"/>
        <pt x="240" y="295" on="0"/>
        <pt x="402" y="290" on="1"/>
        <pt x="402" y="320" on="1"/>
        <pt x="402" y="380" on="0"/>
        <pt x="379" y="430" on="0"/>
        <pt x="318" y="444" on="0"/>
        <pt x="245" y="444" on="1"/>
        <pt x="213" y="444" on="0"/>
        <pt x="116" y="437" on="0"/>
        <pt x="89" y="433" on="1"/>
        <pt x="89" y="504" on="1"/>
        <pt x="168" y="518" on="0"/>
        <pt x="274" y="518" on="1"/>
        <pt x="364" y="518" on="0"/>
        <pt x="453" y="481" on="0"/>
        <pt x="483" y="398" on="0"/>
        <pt x="483" y="319" on="1"/>
        <pt x="483" y="0" on="1"/>
        <pt x="410" y="0" on="1"/>
        <pt x="406" y="71" on="1"/>
        <pt x="400" y="71" on="1"/>
        <pt x="379" y="23" on="0"/>
        <pt x="286" y="-8" on="0"/>
        <pt x="223" y="-8" on="1"/>
      </contour>
      <contour>
        <pt x="304" y="65" on="0"/>
        <pt x="367" y="83" on="0"/>
        <pt x="381" y="109" on="1"/>
        <pt x="402" y="145" on="0"/>
        <pt x="402" y="209" on="1"/>
        <pt x="402" y="232" on="1"/>
        <pt x="232" y="232" on="1"/>
        <pt x="190" y="232" on="0"/>
        <pt x="151" y="220" on="0"/>
        <pt x="135" y="185" on="0"/>
        <pt x="135" y="148" on="1"/>
        <pt x="135" y="112" on="0"/>
        <pt x="153" y="78" on="0"/>
        <pt x="202" y="65" on="0"/>
        <pt x="254" y="65" on="1"/>
      </contour>
    </TTGlyph>
    <TTGlyph name="aacute" xMin="55" yMin="-8" xMax="483" yMax="743">
      <component glyphName="a" x="0" y="0" flags="0x0"/>
      <component glyphName="acute" x="221" y="0" flags="0x0"/>
    </TTGlyph>
    <TTGlyph name="abreve" xMin="55" yMin="-8" xMax="483" yMax="743">
      <component glyphName="a" x="0" y="0" flags="0x0"/>
      <component glyphName="uni0306" x="443" y="0" flags="0x0"/>
    </TTGlyph>
    <TTGlyph name="acircumflex" xMin="55" yMin="-8" xMax="483" yMax="743">
      <component glyphName="a" x="0" y="0" flags="0x0"/>
      <component glyphName="circumflex" x="122" y="0" flags="0x0"/>
    </TTGlyph>
    <TTGlyph name="acute" xMin="20" yMin="602" xMax="209" yMax="743">
      <contour>
        <pt x="20" y="607" on="1"/>
        <pt x="121" y="743" on="1"/>
        <pt x="209" y="743" on="1"/>
        <pt x="209" y="738" on="1"/>
        <pt x="80" y="602" on="1"/>
        <pt x="20" y="602" on="1"/>
      </contour>
    </TTGlyph>
    <TTGlyph name="acute.case.loclPLK" xMin="20" yMin="747" xMax="159" yMax="888">
      <contour>
        <pt x="20" y="752" on="1"/>
        <pt x="71" y="888" on="1"/>
        <pt x="159" y="888" on="1"/>
        <pt x="159" y="883" on="1"/>
        <pt x="80" y="747" on="1"/>
        <pt x="20" y="747" on="1"/>
      </contour>
    </TTGlyph>
    <TTGlyph name="acute.loclPLK" xMin="20" yMin="602" xMax="159" yMax="743">
      <contour>
        <pt x="20" y="607" on="1"/>
        <pt x="71" y="743" on="1"/>
        <pt x="159" y="743" on="1"/>
        <pt x="159" y="738" on="1"/>
        <pt x="80" y="602" on="1"/>
        <pt x="20" y="602" on="1"/>
      </contour>
    </TTGlyph>
    <TTGlyph name="acutecomb" xMin="-209" yMin="602" xMax="-20" yMax="743">
      <contour>
        <pt x="-209" y="607" on="1"/>
        <pt x="-108" y="743" on="1"/>
        <pt x="-20" y="743" on="1"/>
        <pt x="-20" y="738" on="1"/>
        <pt x="-149" y="602" on="1"/>
        <pt x="-209" y="602" on="1"/>
      </contour>
    </TTGlyph>
    <TTGlyph name="acutecomb.case" xMin="-209" yMin="747" xMax="-20" yMax="888">
      <contour>
        <pt x="-209" y="752" on="1"/>
        <pt x="-108" y="888" on="1"/>
        <pt x="-20" y="888" on="1"/>
        <pt x="-20" y="883" on="1"/>
        <pt x="-149" y="747" on="1"/>
        <pt x="-209" y="747" on="1"/>
      </contour>
    </TTGlyph>
    <TTGlyph name="adieresis" xMin="55" yMin="-8" xMax="483" yMax="730">
      <component glyphName="a" x="0" y="0" flags="0x0"/>
      <component glyphName="dieresis" x="134" y="0" flags="0x0"/>
    </TTGlyph>
    <TTGlyph name="ae" xMin="55" yMin="-8" xMax="832" yMax="518">
      <contour>
        <pt x="832" y="228" on="1"/>
        <pt x="484" y="228" on="1"/>
        <pt x="484" y="154" on="0"/>
        <pt x="503" y="91" on="0"/>
        <pt x="571" y="66" on="0"/>
        <pt x="649" y="66" on="1"/>
        <pt x="728" y="66" on="0"/>
        <pt x="812" y="77" on="1"/>
        <pt x="812" y="6" on="1"/>
        <pt x="780" y="0" on="0"/>
        <pt x="679" y="-8" on="0"/>
        <pt x="632" y="-8" on="1"/>
        <pt x="544" y="-8" on="0"/>
        <pt x="453" y="26" on="0"/>
        <pt x="432" y="68" on="1"/>
        <pt x="404" y="22" on="0"/>
        <pt x="303" y="-8" on="0"/>
        <pt x="234" y="-8" on="1"/>
        <pt x="140" y="-8" on="0"/>
        <pt x="55" y="57" on="0"/>
        <pt x="55" y="140" on="1"/>
        <pt x="55" y="199" on="0"/>
        <pt x="83" y="264" on="0"/>
        <pt x="149" y="293" on="0"/>
        <pt x="211" y="293" on="1"/>
        <pt x="326" y="292" on="1"/>
        <pt x="358" y="291" on="0"/>
        <pt x="402" y="291" on="1"/>
        <pt x="402" y="320" on="1"/>
        <pt x="402" y="380" on="0"/>
        <pt x="379" y="430" on="0"/>
        <pt x="318" y="444" on="0"/>
        <pt x="245" y="444" on="1"/>
        <pt x="212" y="444" on="0"/>
        <pt x="111" y="437" on="0"/>
        <pt x="89" y="433" on="1"/>
        <pt x="89" y="504" on="1"/>
        <pt x="173" y="518" on="0"/>
        <pt x="274" y="518" on="1"/>
        <pt x="346" y="518" on="0"/>
        <pt x="428" y="493" on="0"/>
        <pt x="447" y="463" on="1"/>
        <pt x="470" y="492" on="0"/>
        <pt x="556" y="518" on="0"/>
        <pt x="628" y="518" on="1"/>
        <pt x="724" y="518" on="0"/>
        <pt x="809" y="467" on="0"/>
        <pt x="832" y="365" on="0"/>
        <pt x="832" y="256" on="1"/>
      </contour>
      <contour>
        <pt x="560" y="444" on="0"/>
        <pt x="503" y="421" on="0"/>
        <pt x="484" y="359" on="0"/>
        <pt x="484" y="290" on="1"/>
        <pt x="754" y="290" on="1"/>
        <pt x="754" y="296" on="1"/>
        <pt x="754" y="362" on="0"/>
        <pt x="731" y="424" on="0"/>
        <pt x="679" y="444" on="0"/>
        <pt x="625" y="444" on="1"/>
      </contour>
      <contour>
        <pt x="402" y="229" on="1"/>
        <pt x="232" y="229" on="1"/>
        <pt x="190" y="229" on="0"/>
        <pt x="151" y="218" on="0"/>
        <pt x="135" y="185" on="0"/>
        <pt x="135" y="148" on="1"/>
        <pt x="135" y="112" on="0"/>
        <pt x="153" y="78" on="0"/>
        <pt x="202" y="65" on="0"/>
        <pt x="254" y="65" on="1"/>
        <pt x="305" y="65" on="0"/>
        <pt x="370" y="86" on="0"/>
        <pt x="384" y="116" on="1"/>
        <pt x="402" y="151" on="0"/>
        <pt x="402" y="209" on="1"/>
      </contour>
    </TTGlyph>
    <TTGlyph name="aeacute" xMin="55" yMin="-8" xMax="832" yMax="743">
      <component glyphName="ae" x="0" y="0" flags="0x0"/>
      <component glyphName="acutecomb" x="621" y="0" flags="0x0"/>
    </TTGlyph>
    <TTGlyph name="agrave" xMin="55" yMin="-8" xMax="483" yMax="743">
      <component glyphName="a" x="0" y="0" flags="0x0"/>
      <component glyphName="grave" x="124" y="0" flags="0x0"/>
    </TTGlyph>
    <TTGlyph name="amacron" xMin="55" yMin="-8" xMax="483" yMax="742">
      <component glyphName="a" x="0" y="0" flags="0x0"/>
      <component glyphName="uni0304" x="466" y="0" flags="0x0"/>
    </TTGlyph>
    <TTGlyph name="ampersand" xMin="68" yMin="-8" xMax="698" yMax="696">
      <contour>
        <pt x="698" y="386" on="1"/>
        <pt x="698" y="310" on="1"/>
        <pt x="583" y="310" on="1"/>
        <pt x="583" y="11" on="1"/>
        <pt x="549" y="4" on="0"/>
        <pt x="422" y="-8" on="0"/>
        <pt x="363" y="-8" on="1"/>
        <pt x="240" y="-8" on="0"/>
        <pt x="111" y="38" on="0"/>
        <pt x="68" y="120" on="0"/>
        <pt x="68" y="184" on="1"/>
        <pt x="68" y="239" on="0"/>
        <pt x="96" y="304" on="0"/>
        <pt x="149" y="339" on="0"/>
        <pt x="193" y="349" on="1"/>
        <pt x="193" y="353" on="1"/>
        <pt x="131" y="368" on="0"/>
        <pt x="74" y="442" on="0"/>
        <pt x="74" y="515" on="1"/>
        <pt x="74" y="572" on="0"/>
        <pt x="120" y="650" on="0"/>
        <pt x="247" y="696" on="0"/>
        <pt x="362" y="696" on="1"/>
        <pt x="410" y="696" on="0"/>
        <pt x="532" y="685" on="0"/>
        <pt x="579" y="677" on="1"/>
        <pt x="579" y="606" on="1"/>
        <pt x="533" y="612" on="0"/>
        <pt x="424" y="620" on="0"/>
        <pt x="387" y="620" on="1"/>
        <pt x="286" y="620" on="0"/>
        <pt x="189" y="598" on="0"/>
        <pt x="157" y="549" on="0"/>
        <pt x="157" y="501" on="1"/>
        <pt x="157" y="465" on="0"/>
        <pt x="175" y="417" on="0"/>
        <pt x="236" y="386" on="0"/>
        <pt x="298" y="386" on="1"/>
        <pt x="394" y="386" on="1"/>
        <pt x="394" y="310" on="1"/>
        <pt x="298" y="310" on="1"/>
        <pt x="233" y="310" on="0"/>
        <pt x="170" y="284" on="0"/>
        <pt x="151" y="234" on="0"/>
        <pt x="151" y="188" on="1"/>
        <pt x="151" y="136" on="0"/>
        <pt x="194" y="85" on="0"/>
        <pt x="283" y="67" on="0"/>
        <pt x="363" y="67" on="1"/>
        <pt x="439" y="67" on="0"/>
        <pt x="502" y="74" on="1"/>
        <pt x="502" y="386" on="1"/>
      </contour>
    </TTGlyph>
    <TTGlyph name="aogonek" xMin="55" yMin="-196" xMax="485" yMax="518">
      <contour>
        <pt x="485" y="-138" on="1"/>
        <pt x="485" y="-194" on="1"/>
        <pt x="451" y="-196" on="0"/>
        <pt x="446" y="-196" on="1"/>
        <pt x="395" y="-196" on="0"/>
        <pt x="351" y="-155" on="0"/>
        <pt x="351" y="-121" on="1"/>
        <pt x="351" y="-91" on="0"/>
        <pt x="384" y="-28" on="0"/>
        <pt x="411" y="0" on="1"/>
        <pt x="410" y="0" on="1"/>
        <pt x="406" y="71" on="1"/>
        <pt x="400" y="71" on="1"/>
        <pt x="379" y="23" on="0"/>
        <pt x="286" y="-8" on="0"/>
        <pt x="223" y="-8" on="1"/>
        <pt x="135" y="-8" on="0"/>
        <pt x="55" y="57" on="0"/>
        <pt x="55" y="140" on="1"/>
        <pt x="55" y="199" on="0"/>
        <pt x="83" y="265" on="0"/>
        <pt x="150" y="295" on="0"/>
        <pt x="211" y="295" on="1"/>
        <pt x="240" y="295" on="0"/>
        <pt x="402" y="290" on="1"/>
        <pt x="402" y="320" on="1"/>
        <pt x="402" y="380" on="0"/>
        <pt x="379" y="430" on="0"/>
        <pt x="318" y="444" on="0"/>
        <pt x="245" y="444" on="1"/>
        <pt x="213" y="444" on="0"/>
        <pt x="116" y="437" on="0"/>
        <pt x="89" y="433" on="1"/>
        <pt x="89" y="504" on="1"/>
        <pt x="168" y="518" on="0"/>
        <pt x="274" y="518" on="1"/>
        <pt x="364" y="518" on="0"/>
        <pt x="453" y="481" on="0"/>
        <pt x="483" y="398" on="0"/>
        <pt x="483" y="319" on="1"/>
        <pt x="483" y="0" on="1"/>
        <pt x="460" y="-16" on="0"/>
        <pt x="421" y="-75" on="0"/>
        <pt x="421" y="-101" on="1"/>
        <pt x="421" y="-139" on="0"/>
        <pt x="467" y="-139" on="1"/>
      </contour>
      <contour>
        <pt x="402" y="232" on="1"/>
        <pt x="232" y="232" on="1"/>
        <pt x="190" y="232" on="0"/>
        <pt x="151" y="220" on="0"/>
        <pt x="135" y="185" on="0"/>
        <pt x="135" y="148" on="1"/>
        <pt x="135" y="112" on="0"/>
        <pt x="153" y="78" on="0"/>
        <pt x="202" y="65" on="0"/>
        <pt x="254" y="65" on="1"/>
        <pt x="304" y="65" on="0"/>
        <pt x="367" y="83" on="0"/>
        <pt x="381" y="109" on="1"/>
        <pt x="402" y="145" on="0"/>
        <pt x="402" y="209" on="1"/>
      </contour>
    </TTGlyph>
    <TTGlyph name="approxequal" xMin="67" yMin="96" xMax="429" yMax="413">
      <contour>
        <pt x="67" y="329" on="0"/>
        <pt x="77" y="378" on="0"/>
        <pt x="109" y="402" on="0"/>
        <pt x="141" y="402" on="1"/>
        <pt x="168" y="402" on="0"/>
        <pt x="221" y="390" on="0"/>
        <pt x="261" y="378" on="1"/>
        <pt x="292" y="369" on="0"/>
        <pt x="332" y="360" on="0"/>
        <pt x="351" y="360" on="1"/>
        <pt x="372" y="360" on="0"/>
        <pt x="382" y="381" on="0"/>
        <pt x="382" y="413" on="1"/>
        <pt x="429" y="413" on="1"/>
        <pt x="429" y="369" on="0"/>
        <pt x="419" y="321" on="0"/>
        <pt x="388" y="296" on="0"/>
        <pt x="355" y="296" on="1"/>
        <pt x="328" y="296" on="0"/>
        <pt x="274" y="308" on="0"/>
        <pt x="236" y="320" on="1"/>
        <pt x="213" y="327" on="0"/>
        <pt x="164" y="339" on="0"/>
        <pt x="146" y="339" on="1"/>
        <pt x="125" y="339" on="0"/>
        <pt x="115" y="317" on="0"/>
        <pt x="115" y="285" on="1"/>
        <pt x="67" y="285" on="1"/>
      </contour>
      <contour>
        <pt x="67" y="140" on="0"/>
        <pt x="77" y="188" on="0"/>
        <pt x="109" y="213" on="0"/>
        <pt x="141" y="213" on="1"/>
        <pt x="168" y="213" on="0"/>
        <pt x="221" y="201" on="0"/>
        <pt x="261" y="189" on="1"/>
        <pt x="284" y="182" on="0"/>
        <pt x="333" y="170" on="0"/>
        <pt x="351" y="170" on="1"/>
        <pt x="372" y="170" on="0"/>
        <pt x="382" y="192" on="0"/>
        <pt x="382" y="224" on="1"/>
        <pt x="429" y="224" on="1"/>
        <pt x="429" y="179" on="0"/>
        <pt x="419" y="131" on="0"/>
        <pt x="388" y="107" on="0"/>
        <pt x="355" y="107" on="1"/>
        <pt x="328" y="107" on="0"/>
        <pt x="274" y="119" on="0"/>
        <pt x="236" y="131" on="1"/>
        <pt x="174" y="149" on="0"/>
        <pt x="146" y="149" on="1"/>
        <pt x="125" y="149" on="0"/>
        <pt x="115" y="128" on="0"/>
        <pt x="115" y="96" on="1"/>
        <pt x="67" y="96" on="1"/>
      </contour>
    </TTGlyph>
    <TTGlyph name="aring" xMin="55" yMin="-8" xMax="483" yMax="805">
      <component glyphName="a" x="0" y="0" flags="0x0"/>
      <component glyphName="ring" x="133" y="-10" flags="0x4"/>
    </TTGlyph>
    <TTGlyph name="aringacute" xMin="55" yMin="-8" xMax="483" yMax="988">
      <component glyphName="a" x="0" y="0" flags="0x0"/>
      <component glyphName="uni030A" x="437" y="0" flags="0x0"/>
      <component glyphName="acutecomb" x="459" y="245" flags="0x4"/>
    </TTGlyph>
    <TTGlyph name="arrowboth" xMin="55" yMin="173" xMax="828" yMax="436">
      <contour>
        <pt x="55" y="304" on="1"/>
        <pt x="326" y="436" on="1"/>
        <pt x="289" y="338" on="1"/>
        <pt x="594" y="338" on="1"/>
        <pt x="557" y="436" on="1"/>
        <pt x="828" y="304" on="1"/>
        <pt x="557" y="173" on="1"/>
        <pt x="594" y="270" on="1"/>
        <pt x="289" y="270" on="1"/>
        <pt x="326" y="173" on="1"/>
      </contour>
    </TTGlyph>
    <TTGlyph name="arrowdown" xMin="69" yMin="-85" xMax="326" yMax="688">
      <contour>
        <pt x="69" y="189" on="1"/>
        <pt x="166" y="152" on="1"/>
        <pt x="166" y="688" on="1"/>
        <pt x="230" y="688" on="1"/>
        <pt x="230" y="152" on="1"/>
        <pt x="326" y="189" on="1"/>
        <pt x="198" y="-85" on="1"/>
      </contour>
    </TTGlyph>
    <TTGlyph name="arrowdown.ss01" xMin="30" yMin="171" xMax="315" yMax="456">
      <contour>
        <pt x="30" y="456" on="1"/>
        <pt x="315" y="456" on="1"/>
        <pt x="173" y="171" on="1"/>
      </contour>
    </TTGlyph>
    <TTGlyph name="arrowleft" xMin="55" yMin="173" xMax="828" yMax="436">
      <contour>
        <pt x="322" y="173" on="1"/>
        <pt x="55" y="304" on="1"/>
        <pt x="322" y="436" on="1"/>
        <pt x="284" y="338" on="1"/>
        <pt x="828" y="338" on="1"/>
        <pt x="828" y="270" on="1"/>
        <pt x="284" y="270" on="1"/>
      </contour>
    </TTGlyph>
    <TTGlyph name="arrowleft.ss01" xMin="30" yMin="201" xMax="315" yMax="486">
      <contour>
        <pt x="30" y="343" on="1"/>
        <pt x="315" y="486" on="1"/>
        <pt x="315" y="201" on="1"/>
      </contour>
    </TTGlyph>
    <TTGlyph name="arrowright" xMin="55" yMin="173" xMax="828" yMax="436">
      <contour>
        <pt x="594" y="270" on="1"/>
        <pt x="55" y="270" on="1"/>
        <pt x="55" y="338" on="1"/>
        <pt x="594" y="338" on="1"/>
        <pt x="557" y="436" on="1"/>
        <pt x="828" y="304" on="1"/>
        <pt x="557" y="173" on="1"/>
      </contour>
    </TTGlyph>
    <TTGlyph name="arrowright.ss01" xMin="48" yMin="201" xMax="333" yMax="486">
      <contour>
        <pt x="48" y="486" on="1"/>
        <pt x="333" y="343" on="1"/>
        <pt x="48" y="201" on="1"/>
      </contour>
    </TTGlyph>
    <TTGlyph name="arrowup" xMin="69" yMin="-82" xMax="326" yMax="691">
      <contour>
        <pt x="166" y="454" on="1"/>
        <pt x="69" y="417" on="1"/>
        <pt x="198" y="691" on="1"/>
        <pt x="326" y="417" on="1"/>
        <pt x="230" y="454" on="1"/>
        <pt x="230" y="-82" on="1"/>
        <pt x="166" y="-82" on="1"/>
      </contour>
    </TTGlyph>
    <TTGlyph name="arrowup.ss01" xMin="30" yMin="231" xMax="315" yMax="516">
      <contour>
        <pt x="173" y="516" on="1"/>
        <pt x="315" y="231" on="1"/>
        <pt x="30" y="231" on="1"/>
      </contour>
    </TTGlyph>
    <TTGlyph name="arrowupdn" xMin="69" yMin="-85" xMax="326" yMax="696">
      <contour>
        <pt x="69" y="189" on="1"/>
        <pt x="166" y="152" on="1"/>
        <pt x="166" y="459" on="1"/>
        <pt x="69" y="422" on="1"/>
        <pt x="198" y="696" on="1"/>
        <pt x="326" y="422" on="1"/>
        <pt x="230" y="459" on="1"/>
        <pt x="230" y="152" on="1"/>
        <pt x="326" y="189" on="1"/>
        <pt x="198" y="-85" on="1"/>
      </contour>
    </TTGlyph>
    <TTGlyph name="arrowupdnbse" xMin="55" yMin="-187" xMax="340" yMax="696">
      <contour>
        <pt x="69" y="189" on="1"/>
        <pt x="166" y="152" on="1"/>
        <pt x="166" y="459" on="1"/>
        <pt x="69" y="422" on="1"/>
        <pt x="198" y="696" on="1"/>
        <pt x="326" y="422" on="1"/>
        <pt x="230" y="459" on="1"/>
        <pt x="230" y="152" on="1"/>
        <pt x="326" y="189" on="1"/>
        <pt x="198" y="-85" on="1"/>
      </contour>
      <contour>
        <pt x="55" y="-123" on="1"/>
        <pt x="340" y="-123" on="1"/>
        <pt x="340" y="-187" on="1"/>
        <pt x="55" y="-187" on="1"/>
      </contour>
    </TTGlyph>
    <TTGlyph name="asciicircum" xMin="50" yMin="443" xMax="406" yMax="749">
      <contour>
        <pt x="229" y="688" on="1"/>
        <pt x="117" y="443" on="1"/>
        <pt x="50" y="443" on="1"/>
        <pt x="190" y="749" on="1"/>
        <pt x="267" y="749" on="1"/>
        <pt x="406" y="443" on="1"/>
        <pt x="340" y="443" on="1"/>
      </contour>
    </TTGlyph>
    <TTGlyph name="asciitilde" xMin="67" yMin="238" xMax="429" yMax="366">
      <contour>
        <pt x="429" y="322" on="0"/>
        <pt x="419" y="274" on="0"/>
        <pt x="388" y="249" on="0"/>
        <pt x="355" y="249" on="1"/>
        <pt x="331" y="249" on="0"/>
        <pt x="284" y="259" on="0"/>
        <pt x="243" y="271" on="0"/>
        <pt x="236" y="273" on="1"/>
        <pt x="213" y="280" on="0"/>
        <pt x="164" y="292" on="0"/>
        <pt x="146" y="292" on="1"/>
        <pt x="125" y="292" on="0"/>
        <pt x="115" y="270" on="0"/>
        <pt x="115" y="238" on="1"/>
        <pt x="67" y="238" on="1"/>
        <pt x="67" y="282" on="0"/>
        <pt x="77" y="331" on="0"/>
        <pt x="109" y="355" on="0"/>
        <pt x="141" y="355" on="1"/>
        <pt x="167" y="355" on="0"/>
        <pt x="218" y="344" on="0"/>
        <pt x="260" y="332" on="1"/>
        <pt x="321" y="313" on="0"/>
        <pt x="351" y="313" on="1"/>
        <pt x="372" y="313" on="0"/>
        <pt x="382" y="334" on="0"/>
        <pt x="382" y="366" on="1"/>
        <pt x="429" y="366" on="1"/>
      </contour>
    </TTGlyph>
    <TTGlyph name="asterisk" xMin="48" yMin="319" xMax="394" yMax="688">
      <contour>
        <pt x="249" y="319" on="1"/>
        <pt x="194" y="319" on="1"/>
        <pt x="201" y="465" on="1"/>
        <pt x="75" y="384" on="1"/>
        <pt x="48" y="436" on="1"/>
        <pt x="180" y="503" on="1"/>
        <pt x="48" y="570" on="1"/>
        <pt x="75" y="622" on="1"/>
        <pt x="201" y="541" on="1"/>
        <pt x="194" y="688" on="1"/>
        <pt x="249" y="688" on="1"/>
        <pt x="241" y="542" on="1"/>
        <pt x="367" y="622" on="1"/>
        <pt x="394" y="570" on="1"/>
        <pt x="262" y="503" on="1"/>
        <pt x="394" y="436" on="1"/>
        <pt x="367" y="384" on="1"/>
        <pt x="242" y="465" on="1"/>
      </contour>
    </TTGlyph>
    <TTGlyph name="asterisk.ss02" xMin="35" yMin="-14" xMax="782" yMax="705">
      <contour>
        <pt x="269" y="262" on="1"/>
        <pt x="35" y="436" on="1"/>
        <pt x="322" y="436" on="1"/>
        <pt x="409" y="705" on="1"/>
        <pt x="494" y="436" on="1"/>
        <pt x="782" y="436" on="1"/>
        <pt x="550" y="262" on="1"/>
        <pt x="640" y="-14" on="1"/>
        <pt x="409" y="156" on="1"/>
        <pt x="178" y="-14" on="1"/>
      </contour>
    </TTGlyph>
    <TTGlyph name="at" xMin="84" yMin="-108" xMax="847" yMax="696">
      <contour>
        <pt x="272" y="-108" on="0"/>
        <pt x="121" y="-52" on="0"/>
        <pt x="84" y="97" on="0"/>
        <pt x="84" y="294" on="1"/>
        <pt x="84" y="491" on="0"/>
        <pt x="121" y="641" on="0"/>
        <pt x="272" y="696" on="0"/>
        <pt x="465" y="696" on="1"/>
        <pt x="658" y="696" on="0"/>
        <pt x="809" y="642" on="0"/>
        <pt x="847" y="492" on="0"/>
        <pt x="847" y="294" on="1"/>
        <pt x="847" y="189" on="0"/>
        <pt x="823" y="97" on="0"/>
        <pt x="773" y="75" on="0"/>
        <pt x="718" y="75" on="1"/>
        <pt x="583" y="75" on="1"/>
        <pt x="579" y="136" on="1"/>
        <pt x="574" y="136" on="1"/>
        <pt x="555" y="95" on="0"/>
        <pt x="479" y="68" on="0"/>
        <pt x="426" y="68" on="1"/>
        <pt x="349" y="68" on="0"/>
        <pt x="280" y="125" on="0"/>
        <pt x="280" y="197" on="1"/>
        <pt x="280" y="248" on="0"/>
        <pt x="303" y="303" on="0"/>
        <pt x="359" y="327" on="0"/>
        <pt x="412" y="327" on="1"/>
        <pt x="470" y="327" on="0"/>
        <pt x="576" y="323" on="1"/>
        <pt x="576" y="349" on="1"/>
        <pt x="576" y="399" on="0"/>
        <pt x="558" y="439" on="0"/>
        <pt x="507" y="451" on="0"/>
        <pt x="444" y="451" on="1"/>
        <pt x="415" y="451" on="0"/>
        <pt x="327" y="446" on="0"/>
        <pt x="309" y="443" on="1"/>
        <pt x="309" y="506" on="1"/>
        <pt x="390" y="518" on="0"/>
        <pt x="470" y="518" on="1"/>
        <pt x="548" y="518" on="0"/>
        <pt x="624" y="486" on="0"/>
        <pt x="650" y="416" on="0"/>
        <pt x="650" y="349" on="1"/>
        <pt x="650" y="119" on="1"/>
        <pt x="729" y="119" on="1"/>
        <pt x="759" y="119" on="0"/>
        <pt x="786" y="137" on="0"/>
        <pt x="799" y="210" on="0"/>
        <pt x="799" y="294" on="1"/>
        <pt x="799" y="437" on="0"/>
        <pt x="784" y="565" on="0"/>
        <pt x="725" y="630" on="0"/>
        <pt x="657" y="640" on="1"/>
        <pt x="599" y="650" on="0"/>
        <pt x="464" y="650" on="1"/>
        <pt x="346" y="650" on="0"/>
        <pt x="287" y="642" on="1"/>
        <pt x="211" y="633" on="0"/>
        <pt x="147" y="570" on="0"/>
        <pt x="130" y="442" on="0"/>
        <pt x="130" y="294" on="1"/>
        <pt x="130" y="137" on="0"/>
        <pt x="150" y="7" on="0"/>
        <pt x="228" y="-51" on="0"/>
        <pt x="322" y="-58" on="1"/>
        <pt x="365" y="-62" on="0"/>
        <pt x="465" y="-62" on="1"/>
        <pt x="518" y="-62" on="0"/>
        <pt x="634" y="-59" on="0"/>
        <pt x="650" y="-58" on="1"/>
        <pt x="650" y="-105" on="1"/>
        <pt x="587" y="-108" on="0"/>
        <pt x="465" y="-108" on="1"/>
      </contour>
      <contour>
        <pt x="501" y="131" on="0"/>
        <pt x="554" y="151" on="0"/>
        <pt x="576" y="199" on="0"/>
        <pt x="576" y="245" on="1"/>
        <pt x="576" y="273" on="1"/>
        <pt x="431" y="273" on="1"/>
        <pt x="397" y="273" on="0"/>
        <pt x="365" y="263" on="0"/>
        <pt x="353" y="234" on="0"/>
        <pt x="353" y="202" on="1"/>
        <pt x="353" y="171" on="0"/>
        <pt x="368" y="142" on="0"/>
        <pt x="408" y="131" on="0"/>
        <pt x="451" y="131" on="1"/>
      </contour>
    </TTGlyph>
    <TTGlyph name="atilde" xMin="55" yMin="-8" xMax="483" yMax="743">
      <component glyphName="a" x="0" y="0" flags="0x0"/>
      <component glyphName="tilde" x="84" y="-1" flags="0x4"/>
    </TTGlyph>
    <TTGlyph name="b" xMin="87" yMin="-8" xMax="526" yMax="743">
      <contour>
        <pt x="275" y="-8" on="0"/>
        <pt x="189" y="25" on="0"/>
        <pt x="169" y="71" on="1"/>
        <pt x="163" y="71" on="1"/>
        <pt x="159" y="0" on="1"/>
        <pt x="87" y="0" on="1"/>
        <pt x="87" y="743" on="1"/>
        <pt x="168" y="743" on="1"/>
        <pt x="168" y="446" on="1"/>
        <pt x="173" y="446" on="1"/>
        <pt x="193" y="486" on="0"/>
        <pt x="274" y="518" on="0"/>
        <pt x="339" y="518" on="1"/>
        <pt x="414" y="518" on="0"/>
        <pt x="493" y="472" on="0"/>
        <pt x="526" y="361" on="0"/>
        <pt x="526" y="255" on="1"/>
        <pt x="526" y="149" on="0"/>
        <pt x="493" y="38" on="0"/>
        <pt x="413" y="-8" on="0"/>
        <pt x="337" y="-8" on="1"/>
      </contour>
      <contour>
        <pt x="370" y="70" on="0"/>
        <pt x="425" y="94" on="0"/>
        <pt x="444" y="168" on="0"/>
        <pt x="444" y="255" on="1"/>
        <pt x="444" y="341" on="0"/>
        <pt x="425" y="414" on="0"/>
        <pt x="370" y="439" on="0"/>
        <pt x="305" y="439" on="1"/>
        <pt x="256" y="439" on="0"/>
        <pt x="198" y="415" on="0"/>
        <pt x="186" y="390" on="1"/>
        <pt x="175" y="368" on="0"/>
        <pt x="168" y="306" on="0"/>
        <pt x="168" y="255" on="1"/>
        <pt x="168" y="202" on="0"/>
        <pt x="174" y="142" on="0"/>
        <pt x="185" y="120" on="1"/>
        <pt x="198" y="94" on="0"/>
        <pt x="256" y="70" on="0"/>
        <pt x="305" y="70" on="1"/>
      </contour>
    </TTGlyph>
    <TTGlyph name="backslash" xMin="-4" yMin="-55" xMax="362" yMax="743">
      <contour>
        <pt x="-4" y="743" on="1"/>
        <pt x="71" y="743" on="1"/>
        <pt x="362" y="-55" on="1"/>
        <pt x="288" y="-55" on="1"/>
      </contour>
    </TTGlyph>
    <TTGlyph name="bar" xMin="102" yMin="-161" xMax="176" yMax="743">
      <contour>
        <pt x="102" y="743" on="1"/>
        <pt x="176" y="743" on="1"/>
        <pt x="176" y="-161" on="1"/>
        <pt x="102" y="-161" on="1"/>
      </contour>
    </TTGlyph>
    <TTGlyph name="bar.ss02" xMin="-1" yMin="0" xMax="499" yMax="696">
      <contour>
        <pt x="-1" y="696" on="1"/>
        <pt x="499" y="696" on="1"/>
        <pt x="499" y="0" on="1"/>
        <pt x="-1" y="0" on="1"/>
      </contour>
    </TTGlyph>
    <TTGlyph name="braceleft" xMin="27" yMin="-150" xMax="305" yMax="743">
      <contour>
        <pt x="224" y="-142" on="0"/>
        <pt x="170" y="-93" on="0"/>
        <pt x="128" y="-15" on="0"/>
        <pt x="128" y="32" on="1"/>
        <pt x="128" y="148" on="1"/>
        <pt x="128" y="200" on="0"/>
        <pt x="84" y="273" on="0"/>
        <pt x="27" y="273" on="1"/>
        <pt x="27" y="320" on="1"/>
        <pt x="84" y="320" on="0"/>
        <pt x="128" y="393" on="0"/>
        <pt x="128" y="445" on="1"/>
        <pt x="128" y="560" on="1"/>
        <pt x="128" y="608" on="0"/>
        <pt x="170" y="686" on="0"/>
        <pt x="224" y="735" on="0"/>
        <pt x="242" y="743" on="1"/>
        <pt x="305" y="743" on="1"/>
        <pt x="289" y="735" on="0"/>
        <pt x="240" y="682" on="0"/>
        <pt x="204" y="607" on="0"/>
        <pt x="204" y="568" on="1"/>
        <pt x="204" y="446" on="1"/>
        <pt x="204" y="322" on="0"/>
        <pt x="106" y="300" on="1"/>
        <pt x="106" y="293" on="1"/>
        <pt x="204" y="271" on="0"/>
        <pt x="204" y="146" on="1"/>
        <pt x="204" y="25" on="1"/>
        <pt x="204" y="-14" on="0"/>
        <pt x="240" y="-89" on="0"/>
        <pt x="289" y="-142" on="0"/>
        <pt x="305" y="-150" on="1"/>
        <pt x="242" y="-150" on="1"/>
      </contour>
    </TTGlyph>
    <TTGlyph name="braceright" xMin="19" yMin="-150" xMax="297" yMax="743">
      <contour>
        <pt x="36" y="-142" on="0"/>
        <pt x="84" y="-89" on="0"/>
        <pt x="120" y="-15" on="0"/>
        <pt x="120" y="25" on="1"/>
        <pt x="120" y="146" on="1"/>
        <pt x="120" y="271" on="0"/>
        <pt x="218" y="293" on="1"/>
        <pt x="218" y="300" on="1"/>
        <pt x="120" y="322" on="0"/>
        <pt x="120" y="446" on="1"/>
        <pt x="120" y="568" on="1"/>
        <pt x="120" y="608" on="0"/>
        <pt x="84" y="682" on="0"/>
        <pt x="36" y="735" on="0"/>
        <pt x="19" y="743" on="1"/>
        <pt x="82" y="743" on="1"/>
        <pt x="100" y="735" on="0"/>
        <pt x="154" y="686" on="0"/>
        <pt x="196" y="608" on="0"/>
        <pt x="196" y="560" on="1"/>
        <pt x="196" y="445" on="1"/>
        <pt x="196" y="393" on="0"/>
        <pt x="240" y="320" on="0"/>
        <pt x="297" y="320" on="1"/>
        <pt x="297" y="273" on="1"/>
        <pt x="240" y="273" on="0"/>
        <pt x="196" y="200" on="0"/>
        <pt x="196" y="148" on="1"/>
        <pt x="196" y="32" on="1"/>
        <pt x="196" y="-15" on="0"/>
        <pt x="154" y="-93" on="0"/>
        <pt x="100" y="-142" on="0"/>
        <pt x="82" y="-150" on="1"/>
        <pt x="19" y="-150" on="1"/>
      </contour>
    </TTGlyph>
    <TTGlyph name="bracketleft" xMin="100" yMin="-150" xMax="295" yMax="743">
      <contour>
        <pt x="100" y="743" on="1"/>
        <pt x="295" y="743" on="1"/>
        <pt x="295" y="679" on="1"/>
        <pt x="176" y="675" on="1"/>
        <pt x="176" y="-82" on="1"/>
        <pt x="295" y="-86" on="1"/>
        <pt x="295" y="-150" on="1"/>
        <pt x="100" y="-150" on="1"/>
      </contour>
    </TTGlyph>
    <TTGlyph name="bracketleft.ss02" xMin="45" yMin="0" xMax="397" yMax="696">
      <contour>
        <pt x="45" y="0" on="1"/>
        <pt x="45" y="348" on="1"/>
        <pt x="45" y="449" on="0"/>
        <pt x="135" y="608" on="0"/>
        <pt x="295" y="696" on="0"/>
        <pt x="397" y="696" on="1"/>
        <pt x="397" y="0" on="1"/>
      </contour>
    </TTGlyph>
    <TTGlyph name="bracketright" xMin="42" yMin="-150" xMax="236" yMax="743">
      <contour>
        <pt x="42" y="-86" on="1"/>
        <pt x="161" y="-82" on="1"/>
        <pt x="161" y="675" on="1"/>
        <pt x="42" y="679" on="1"/>
        <pt x="42" y="743" on="1"/>
        <pt x="236" y="743" on="1"/>
        <pt x="236" y="-150" on="1"/>
        <pt x="42" y="-150" on="1"/>
      </contour>
    </TTGlyph>
    <TTGlyph name="bracketright.ss02" xMin="0" yMin="0" xMax="352" yMax="696">
      <contour>
        <pt x="0" y="696" on="1"/>
        <pt x="102" y="696" on="0"/>
        <pt x="262" y="608" on="0"/>
        <pt x="352" y="449" on="0"/>
        <pt x="352" y="348" on="1"/>
        <pt x="352" y="0" on="1"/>
        <pt x="0" y="0" on="1"/>
      </contour>
    </TTGlyph>
    <TTGlyph name="breve" xMin="20" yMin="598" xMax="296" yMax="743">
      <contour>
        <pt x="296" y="693" on="0"/>
        <pt x="279" y="634" on="0"/>
        <pt x="219" y="598" on="0"/>
        <pt x="157" y="598" on="1"/>
        <pt x="95" y="598" on="0"/>
        <pt x="36" y="633" on="0"/>
        <pt x="20" y="692" on="0"/>
        <pt x="20" y="743" on="1"/>
        <pt x="73" y="743" on="1"/>
        <pt x="73" y="707" on="0"/>
        <pt x="81" y="673" on="0"/>
        <pt x="117" y="653" on="0"/>
        <pt x="157" y="653" on="1"/>
        <pt x="197" y="653" on="0"/>
        <pt x="233" y="673" on="0"/>
        <pt x="242" y="708" on="0"/>
        <pt x="242" y="743" on="1"/>
        <pt x="296" y="743" on="1"/>
      </contour>
    </TTGlyph>
    <TTGlyph name="brokenbar" xMin="102" yMin="-161" xMax="176" yMax="743">
      <contour>
        <pt x="102" y="743" on="1"/>
        <pt x="176" y="743" on="1"/>
        <pt x="176" y="390" on="1"/>
        <pt x="102" y="390" on="1"/>
      </contour>
      <contour>
        <pt x="102" y="192" on="1"/>
        <pt x="176" y="192" on="1"/>
        <pt x="176" y="-161" on="1"/>
        <pt x="102" y="-161" on="1"/>
      </contour>
    </TTGlyph>
    <TTGlyph name="bullet" xMin="75" yMin="231" xMax="294" yMax="456">
      <contour>
        <pt x="294" y="289" on="0"/>
        <pt x="282" y="247" on="0"/>
        <pt x="238" y="231" on="0"/>
        <pt x="183" y="231" on="1"/>
        <pt x="129" y="231" on="0"/>
        <pt x="86" y="247" on="0"/>
        <pt x="75" y="289" on="0"/>
        <pt x="75" y="342" on="1"/>
        <pt x="75" y="397" on="0"/>
        <pt x="86" y="440" on="0"/>
        <pt x="130" y="456" on="0"/>
        <pt x="183" y="456" on="1"/>
        <pt x="238" y="456" on="0"/>
        <pt x="282" y="440" on="0"/>
        <pt x="294" y="397" on="0"/>
        <pt x="294" y="342" on="1"/>
      </contour>
    </TTGlyph>
    <TTGlyph name="bullet.ss02" xMin="40" yMin="-8" xMax="743" yMax="696">
      <contour>
        <pt x="343" y="421" on="0"/>
        <pt x="279" y="480" on="0"/>
        <pt x="279" y="533" on="1"/>
        <pt x="279" y="575" on="0"/>
        <pt x="318" y="650" on="0"/>
        <pt x="373" y="696" on="0"/>
        <pt x="392" y="696" on="1"/>
        <pt x="411" y="696" on="0"/>
        <pt x="465" y="650" on="0"/>
        <pt x="504" y="575" on="0"/>
        <pt x="504" y="533" on="1"/>
        <pt x="504" y="480" on="0"/>
        <pt x="441" y="421" on="0"/>
        <pt x="392" y="421" on="1"/>
      </contour>
      <contour>
        <pt x="415" y="481" on="0"/>
        <pt x="444" y="508" on="0"/>
        <pt x="444" y="533" on="1"/>
        <pt x="444" y="560" on="0"/>
        <pt x="426" y="607" on="0"/>
        <pt x="401" y="636" on="0"/>
        <pt x="392" y="636" on="1"/>
        <pt x="383" y="636" on="0"/>
        <pt x="358" y="607" on="0"/>
        <pt x="339" y="560" on="0"/>
        <pt x="339" y="533" on="1"/>
        <pt x="339" y="508" on="0"/>
        <pt x="369" y="481" on="0"/>
        <pt x="392" y="481" on="1"/>
      </contour>
      <contour>
        <pt x="161" y="231" on="0"/>
        <pt x="86" y="270" on="0"/>
        <pt x="40" y="325" on="0"/>
        <pt x="40" y="344" on="1"/>
        <pt x="40" y="363" on="0"/>
        <pt x="86" y="417" on="0"/>
        <pt x="161" y="456" on="0"/>
        <pt x="203" y="456" on="1"/>
        <pt x="256" y="456" on="0"/>
        <pt x="315" y="393" on="0"/>
        <pt x="315" y="344" on="1"/>
        <pt x="315" y="295" on="0"/>
        <pt x="256" y="231" on="0"/>
        <pt x="203" y="231" on="1"/>
      </contour>
      <contour>
        <pt x="527" y="231" on="0"/>
        <pt x="468" y="295" on="0"/>
        <pt x="468" y="344" on="1"/>
        <pt x="468" y="393" on="0"/>
        <pt x="527" y="456" on="0"/>
        <pt x="581" y="456" on="1"/>
        <pt x="622" y="456" on="0"/>
        <pt x="697" y="417" on="0"/>
        <pt x="743" y="363" on="0"/>
        <pt x="743" y="344" on="1"/>
        <pt x="743" y="325" on="0"/>
        <pt x="697" y="270" on="0"/>
        <pt x="623" y="231" on="0"/>
        <pt x="581" y="231" on="1"/>
      </contour>
      <contour>
        <pt x="228" y="291" on="0"/>
        <pt x="255" y="321" on="0"/>
        <pt x="255" y="344" on="1"/>
        <pt x="255" y="367" on="0"/>
        <pt x="228" y="396" on="0"/>
        <pt x="203" y="396" on="1"/>
        <pt x="176" y="396" on="0"/>
        <pt x="129" y="378" on="0"/>
        <pt x="100" y="353" on="0"/>
        <pt x="100" y="344" on="1"/>
        <pt x="100" y="335" on="0"/>
        <pt x="129" y="310" on="0"/>
        <pt x="176" y="291" on="0"/>
        <pt x="203" y="291" on="1"/>
      </contour>
      <contour>
        <pt x="607" y="291" on="0"/>
        <pt x="654" y="310" on="0"/>
        <pt x="683" y="335" on="0"/>
        <pt x="683" y="344" on="1"/>
        <pt x="683" y="353" on="0"/>
        <pt x="654" y="378" on="0"/>
        <pt x="607" y="396" on="0"/>
        <pt x="581" y="396" on="1"/>
        <pt x="556" y="396" on="0"/>
        <pt x="528" y="367" on="0"/>
        <pt x="528" y="344" on="1"/>
        <pt x="528" y="321" on="0"/>
        <pt x="556" y="291" on="0"/>
        <pt x="581" y="291" on="1"/>
      </contour>
      <contour>
        <pt x="373" y="-8" on="0"/>
        <pt x="318" y="38" on="0"/>
        <pt x="279" y="113" on="0"/>
        <pt x="279" y="155" on="1"/>
        <pt x="279" y="208" on="0"/>
        <pt x="343" y="267" on="0"/>
        <pt x="392" y="267" on="1"/>
        <pt x="441" y="267" on="0"/>
        <pt x="504" y="208" on="0"/>
        <pt x="504" y="155" on="1"/>
        <pt x="504" y="113" on="0"/>
        <pt x="465" y="38" on="0"/>
        <pt x="411" y="-8" on="0"/>
        <pt x="392" y="-8" on="1"/>
      </contour>
      <contour>
        <pt x="401" y="52" on="0"/>
        <pt x="426" y="81" on="0"/>
        <pt x="444" y="128" on="0"/>
        <pt x="444" y="155" on="1"/>
        <pt x="444" y="180" on="0"/>
        <pt x="415" y="207" on="0"/>
        <pt x="392" y="207" on="1"/>
        <pt x="369" y="207" on="0"/>
        <pt x="339" y="180" on="0"/>
        <pt x="339" y="155" on="1"/>
        <pt x="339" y="128" on="0"/>
        <pt x="358" y="81" on="0"/>
        <pt x="383" y="52" on="0"/>
        <pt x="392" y="52" on="1"/>
      </contour>
    </TTGlyph>
    <TTGlyph name="c" xMin="65" yMin="-8" xMax="411" yMax="518">
      <contour>
        <pt x="384" y="0" on="0"/>
        <pt x="307" y="-8" on="0"/>
        <pt x="272" y="-8" on="1"/>
        <pt x="178" y="-8" on="0"/>
        <pt x="90" y="46" on="0"/>
        <pt x="65" y="152" on="0"/>
        <pt x="65" y="255" on="1"/>
        <pt x="65" y="356" on="0"/>
        <pt x="95" y="466" on="0"/>
        <pt x="183" y="518" on="0"/>
        <pt x="269" y="518" on="1"/>
        <pt x="303" y="518" on="0"/>
        <pt x="380" y="510" on="0"/>
        <pt x="407" y="505" on="1"/>
        <pt x="407" y="433" on="1"/>
        <pt x="347" y="444" on="0"/>
        <pt x="289" y="444" on="1"/>
        <pt x="225" y="444" on="0"/>
        <pt x="166" y="414" on="0"/>
        <pt x="146" y="338" on="0"/>
        <pt x="146" y="255" on="1"/>
        <pt x="146" y="171" on="0"/>
        <pt x="167" y="94" on="0"/>
        <pt x="226" y="66" on="0"/>
        <pt x="292" y="66" on="1"/>
        <pt x="341" y="66" on="0"/>
        <pt x="411" y="76" on="1"/>
        <pt x="411" y="5" on="1"/>
      </contour>
    </TTGlyph>
    <TTGlyph name="cacute" xMin="65" yMin="-8" xMax="411" yMax="743">
      <component glyphName="c" x="0" y="0" flags="0x0"/>
      <component glyphName="acutecomb" x="402" y="0" flags="0x0"/>
    </TTGlyph>
    <TTGlyph name="cacute.loclPLK" xMin="65" yMin="-8" xMax="411" yMax="743">
      <component glyphName="c" x="0" y="0" flags="0x0"/>
      <component glyphName="acute.loclPLK" x="173" y="0" flags="0x0"/>
    </TTGlyph>
    <TTGlyph name="caron" xMin="20" yMin="601" xMax="309" yMax="743">
      <contour>
        <pt x="20" y="737" on="1"/>
        <pt x="20" y="743" on="1"/>
        <pt x="76" y="743" on="1"/>
        <pt x="164" y="647" on="1"/>
        <pt x="253" y="743" on="1"/>
        <pt x="309" y="743" on="1"/>
        <pt x="309" y="737" on="1"/>
        <pt x="207" y="601" on="1"/>
        <pt x="122" y="601" on="1"/>
      </contour>
    </TTGlyph>
    <TTGlyph name="caron.loclCSY" xMin="51" yMin="442" xMax="144" yMax="688">
      <contour>
        <pt x="65" y="614" on="1"/>
        <pt x="65" y="688" on="1"/>
        <pt x="144" y="688" on="1"/>
        <pt x="144" y="614" on="1"/>
        <pt x="107" y="442" on="1"/>
        <pt x="51" y="442" on="1"/>
      </contour>
    </TTGlyph>
    <TTGlyph name="ccaron" xMin="65" yMin="-8" xMax="411" yMax="743">
      <component glyphName="c" x="0" y="0" flags="0x0"/>
      <component glyphName="uni030C" x="395" y="0" flags="0x0"/>
    </TTGlyph>
    <TTGlyph name="ccedilla" xMin="65" yMin="-190" xMax="411" yMax="518">
      <contour>
        <pt x="341" y="66" on="0"/>
        <pt x="411" y="76" on="1"/>
        <pt x="411" y="5" on="1"/>
        <pt x="384" y="0" on="0"/>
        <pt x="307" y="-8" on="0"/>
        <pt x="272" y="-8" on="1"/>
        <pt x="257" y="-8" on="1"/>
        <pt x="219" y="-190" on="1"/>
        <pt x="138" y="-190" on="1"/>
        <pt x="138" y="-185" on="1"/>
        <pt x="199" y="-3" on="1"/>
        <pt x="139" y="7" on="0"/>
        <pt x="82" y="68" on="0"/>
        <pt x="65" y="166" on="0"/>
        <pt x="65" y="255" on="1"/>
        <pt x="65" y="356" on="0"/>
        <pt x="95" y="466" on="0"/>
        <pt x="183" y="518" on="0"/>
        <pt x="269" y="518" on="1"/>
        <pt x="303" y="518" on="0"/>
        <pt x="380" y="510" on="0"/>
        <pt x="407" y="505" on="1"/>
        <pt x="407" y="433" on="1"/>
        <pt x="347" y="444" on="0"/>
        <pt x="289" y="444" on="1"/>
        <pt x="225" y="444" on="0"/>
        <pt x="166" y="414" on="0"/>
        <pt x="146" y="338" on="0"/>
        <pt x="146" y="255" on="1"/>
        <pt x="146" y="171" on="0"/>
        <pt x="167" y="94" on="0"/>
        <pt x="226" y="66" on="0"/>
        <pt x="292" y="66" on="1"/>
      </contour>
    </TTGlyph>
    <TTGlyph name="ccircumflex" xMin="65" yMin="-8" xMax="411" yMax="743">
      <component glyphName="c" x="0" y="0" flags="0x0"/>
      <component glyphName="uni0302" x="395" y="0" flags="0x0"/>
    </TTGlyph>
    <TTGlyph name="cdotaccent" xMin="65" yMin="-8" xMax="411" yMax="730">
      <component glyphName="c" x="0" y="0" flags="0x0"/>
      <component glyphName="uni0307" x="288" y="0" flags="0x0"/>
    </TTGlyph>
    <TTGlyph name="cedilla" xMin="20" yMin="-190" xMax="141" yMax="8">
      <contour>
        <pt x="20" y="-185" on="1"/>
        <pt x="85" y="8" on="1"/>
        <pt x="141" y="8" on="1"/>
        <pt x="141" y="3" on="1"/>
        <pt x="101" y="-190" on="1"/>
        <pt x="20" y="-190" on="1"/>
      </contour>
    </TTGlyph>
    <TTGlyph name="cent" xMin="65" yMin="-8" xMax="416" yMax="696">
      <contour>
        <pt x="416" y="81" on="1"/>
        <pt x="366" y="69" on="0"/>
        <pt x="304" y="68" on="1"/>
        <pt x="304" y="-8" on="1"/>
        <pt x="241" y="-8" on="1"/>
        <pt x="241" y="68" on="1"/>
        <pt x="167" y="73" on="0"/>
        <pt x="91" y="134" on="0"/>
        <pt x="65" y="246" on="0"/>
        <pt x="65" y="342" on="1"/>
        <pt x="65" y="438" on="0"/>
        <pt x="97" y="553" on="0"/>
        <pt x="173" y="613" on="0"/>
        <pt x="241" y="617" on="1"/>
        <pt x="241" y="696" on="1"/>
        <pt x="304" y="696" on="1"/>
        <pt x="304" y="617" on="1"/>
        <pt x="364" y="615" on="0"/>
        <pt x="411" y="604" on="1"/>
        <pt x="411" y="531" on="1"/>
        <pt x="366" y="539" on="0"/>
        <pt x="304" y="541" on="1"/>
        <pt x="304" y="145" on="1"/>
        <pt x="372" y="147" on="0"/>
        <pt x="416" y="156" on="1"/>
      </contour>
      <contour>
        <pt x="151" y="268" on="0"/>
        <pt x="165" y="190" on="0"/>
        <pt x="203" y="154" on="0"/>
        <pt x="241" y="148" on="1"/>
        <pt x="241" y="538" on="1"/>
        <pt x="203" y="532" on="0"/>
        <pt x="165" y="495" on="0"/>
        <pt x="151" y="417" on="0"/>
        <pt x="151" y="343" on="1"/>
      </contour>
    </TTGlyph>
    <TTGlyph name="circumflex" xMin="20" yMin="601" xMax="309" yMax="743">
      <contour>
        <pt x="20" y="608" on="1"/>
        <pt x="122" y="743" on="1"/>
        <pt x="207" y="743" on="1"/>
        <pt x="309" y="608" on="1"/>
        <pt x="309" y="601" on="1"/>
        <pt x="253" y="601" on="1"/>
        <pt x="164" y="697" on="1"/>
        <pt x="76" y="601" on="1"/>
        <pt x="20" y="601" on="1"/>
      </contour>
    </TTGlyph>
    <TTGlyph name="colon" xMin="64" yMin="0" xMax="159" yMax="510">
      <contour>
        <pt x="64" y="510" on="1"/>
        <pt x="159" y="510" on="1"/>
        <pt x="159" y="408" on="1"/>
        <pt x="64" y="408" on="1"/>
      </contour>
      <contour>
        <pt x="64" y="102" on="1"/>
        <pt x="159" y="102" on="1"/>
        <pt x="159" y="0" on="1"/>
        <pt x="64" y="0" on="1"/>
      </contour>
    </TTGlyph>
    <TTGlyph name="comma" xMin="43" yMin="-123" xMax="159" yMax="102">
      <contour>
        <pt x="68" y="-81" on="0"/>
        <pt x="92" y="-71" on="0"/>
        <pt x="101" y="-44" on="0"/>
        <pt x="101" y="-17" on="1"/>
        <pt x="101" y="0" on="1"/>
        <pt x="64" y="0" on="1"/>
        <pt x="64" y="102" on="1"/>
        <pt x="159" y="102" on="1"/>
        <pt x="159" y="19" on="1"/>
        <pt x="159" y="-41" on="0"/>
        <pt x="142" y="-100" on="0"/>
        <pt x="94" y="-123" on="0"/>
        <pt x="43" y="-123" on="1"/>
        <pt x="43" y="-81" on="1"/>
      </contour>
    </TTGlyph>
    <TTGlyph name="copyright" xMin="85" yMin="-8" xMax="648" yMax="696">
      <contour>
        <pt x="225" y="-8" on="0"/>
        <pt x="113" y="41" on="0"/>
        <pt x="85" y="173" on="0"/>
        <pt x="85" y="344" on="1"/>
        <pt x="85" y="515" on="0"/>
        <pt x="113" y="646" on="0"/>
        <pt x="225" y="696" on="0"/>
        <pt x="366" y="696" on="1"/>
        <pt x="507" y="696" on="0"/>
        <pt x="620" y="646" on="0"/>
        <pt x="648" y="514" on="0"/>
        <pt x="648" y="344" on="1"/>
        <pt x="648" y="173" on="0"/>
        <pt x="620" y="41" on="0"/>
        <pt x="507" y="-8" on="0"/>
        <pt x="366" y="-8" on="1"/>
      </contour>
      <contour>
        <pt x="492" y="34" on="0"/>
        <pt x="582" y="68" on="0"/>
        <pt x="606" y="182" on="0"/>
        <pt x="606" y="344" on="1"/>
        <pt x="606" y="506" on="0"/>
        <pt x="582" y="620" on="0"/>
        <pt x="492" y="653" on="0"/>
        <pt x="366" y="653" on="1"/>
        <pt x="240" y="653" on="0"/>
        <pt x="151" y="620" on="0"/>
        <pt x="127" y="506" on="0"/>
        <pt x="127" y="344" on="1"/>
        <pt x="127" y="182" on="0"/>
        <pt x="151" y="68" on="0"/>
        <pt x="241" y="34" on="0"/>
        <pt x="366" y="34" on="1"/>
      </contour>
      <contour>
        <pt x="322" y="153" on="0"/>
        <pt x="260" y="184" on="0"/>
        <pt x="239" y="261" on="0"/>
        <pt x="239" y="343" on="1"/>
        <pt x="239" y="424" on="0"/>
        <pt x="260" y="501" on="0"/>
        <pt x="323" y="532" on="0"/>
        <pt x="389" y="532" on="1"/>
        <pt x="450" y="532" on="0"/>
        <pt x="477" y="524" on="1"/>
        <pt x="477" y="477" on="1"/>
        <pt x="440" y="482" on="0"/>
        <pt x="400" y="482" on="1"/>
        <pt x="348" y="482" on="0"/>
        <pt x="307" y="465" on="0"/>
        <pt x="294" y="412" on="0"/>
        <pt x="294" y="343" on="1"/>
        <pt x="294" y="274" on="0"/>
        <pt x="307" y="220" on="0"/>
        <pt x="348" y="203" on="0"/>
        <pt x="400" y="203" on="1"/>
        <pt x="446" y="203" on="0"/>
        <pt x="479" y="208" on="1"/>
        <pt x="479" y="160" on="1"/>
        <pt x="442" y="153" on="0"/>
        <pt x="389" y="153" on="1"/>
      </contour>
    </TTGlyph>
    <TTGlyph name="currency" xMin="65" yMin="-9" xMax="653" yMax="696">
      <contour>
        <pt x="65" y="42" on="1"/>
        <pt x="162" y="136" on="1"/>
        <pt x="145" y="164" on="0"/>
        <pt x="135" y="259" on="0"/>
        <pt x="135" y="344" on="1"/>
        <pt x="135" y="428" on="0"/>
        <pt x="145" y="523" on="0"/>
        <pt x="161" y="552" on="1"/>
        <pt x="65" y="645" on="1"/>
        <pt x="112" y="695" on="1"/>
        <pt x="211" y="598" on="1"/>
        <pt x="256" y="619" on="0"/>
        <pt x="359" y="619" on="1"/>
        <pt x="412" y="619" on="0"/>
        <pt x="482" y="609" on="0"/>
        <pt x="506" y="597" on="1"/>
        <pt x="607" y="696" on="1"/>
        <pt x="653" y="646" on="1"/>
        <pt x="557" y="552" on="1"/>
        <pt x="572" y="523" on="0"/>
        <pt x="582" y="428" on="0"/>
        <pt x="582" y="344" on="1"/>
        <pt x="582" y="260" on="0"/>
        <pt x="572" y="165" on="0"/>
        <pt x="556" y="136" on="1"/>
        <pt x="653" y="41" on="1"/>
        <pt x="607" y="-9" on="1"/>
        <pt x="505" y="90" on="1"/>
        <pt x="482" y="78" on="0"/>
        <pt x="412" y="69" on="0"/>
        <pt x="359" y="69" on="1"/>
        <pt x="305" y="69" on="0"/>
        <pt x="234" y="78" on="0"/>
        <pt x="212" y="90" on="1"/>
        <pt x="111" y="-8" on="1"/>
      </contour>
      <contour>
        <pt x="432" y="143" on="0"/>
        <pt x="488" y="171" on="0"/>
        <pt x="501" y="244" on="0"/>
        <pt x="501" y="344" on="1"/>
        <pt x="501" y="444" on="0"/>
        <pt x="488" y="517" on="0"/>
        <pt x="432" y="545" on="0"/>
        <pt x="359" y="545" on="1"/>
        <pt x="285" y="545" on="0"/>
        <pt x="229" y="517" on="0"/>
        <pt x="216" y="444" on="0"/>
        <pt x="216" y="344" on="1"/>
        <pt x="216" y="244" on="0"/>
        <pt x="229" y="171" on="0"/>
        <pt x="286" y="143" on="0"/>
        <pt x="359" y="143" on="1"/>
      </contour>
    </TTGlyph>
    <TTGlyph name="d" xMin="65" yMin="-8" xMax="504" yMax="743">
      <contour>
        <pt x="178" y="-8" on="0"/>
        <pt x="98" y="38" on="0"/>
        <pt x="65" y="149" on="0"/>
        <pt x="65" y="254" on="1"/>
        <pt x="65" y="360" on="0"/>
        <pt x="97" y="472" on="0"/>
        <pt x="176" y="518" on="0"/>
        <pt x="251" y="518" on="1"/>
        <pt x="317" y="518" on="0"/>
        <pt x="398" y="486" on="0"/>
        <pt x="417" y="446" on="1"/>
        <pt x="423" y="446" on="1"/>
        <pt x="423" y="743" on="1"/>
        <pt x="504" y="743" on="1"/>
        <pt x="504" y="0" on="1"/>
        <pt x="431" y="0" on="1"/>
        <pt x="428" y="71" on="1"/>
        <pt x="422" y="71" on="1"/>
        <pt x="401" y="25" on="0"/>
        <pt x="315" y="-8" on="0"/>
        <pt x="254" y="-8" on="1"/>
      </contour>
      <contour>
        <pt x="337" y="70" on="0"/>
        <pt x="397" y="97" on="0"/>
        <pt x="408" y="126" on="1"/>
        <pt x="418" y="149" on="0"/>
        <pt x="423" y="208" on="0"/>
        <pt x="423" y="260" on="1"/>
        <pt x="423" y="303" on="0"/>
        <pt x="417" y="359" on="0"/>
        <pt x="409" y="379" on="1"/>
        <pt x="397" y="410" on="0"/>
        <pt x="336" y="439" on="0"/>
        <pt x="283" y="439" on="1"/>
        <pt x="220" y="439" on="0"/>
        <pt x="165" y="414" on="0"/>
        <pt x="146" y="340" on="0"/>
        <pt x="146" y="255" on="1"/>
        <pt x="146" y="168" on="0"/>
        <pt x="165" y="94" on="0"/>
        <pt x="220" y="70" on="0"/>
        <pt x="285" y="70" on="1"/>
      </contour>
    </TTGlyph>
    <TTGlyph name="dagger" xMin="56" yMin="0" xMax="394" yMax="688">
      <contour>
        <pt x="192" y="447" on="1"/>
        <pt x="56" y="454" on="1"/>
        <pt x="56" y="509" on="1"/>
        <pt x="192" y="517" on="1"/>
        <pt x="199" y="688" on="1"/>
        <pt x="251" y="688" on="1"/>
        <pt x="258" y="517" on="1"/>
        <pt x="394" y="509" on="1"/>
        <pt x="394" y="454" on="1"/>
        <pt x="258" y="447" on="1"/>
        <pt x="251" y="0" on="1"/>
        <pt x="199" y="0" on="1"/>
      </contour>
    </TTGlyph>
    <TTGlyph name="daggerdbl" xMin="56" yMin="0" xMax="394" yMax="688">
      <contour>
        <pt x="192" y="170" on="1"/>
        <pt x="56" y="178" on="1"/>
        <pt x="56" y="233" on="1"/>
        <pt x="192" y="241" on="1"/>
        <pt x="192" y="447" on="1"/>
        <pt x="56" y="454" on="1"/>
        <pt x="56" y="509" on="1"/>
        <pt x="192" y="517" on="1"/>
        <pt x="199" y="688" on="1"/>
        <pt x="251" y="688" on="1"/>
        <pt x="258" y="517" on="1"/>
        <pt x="394" y="509" on="1"/>
        <pt x="394" y="454" on="1"/>
        <pt x="258" y="447" on="1"/>
        <pt x="258" y="241" on="1"/>
        <pt x="394" y="233" on="1"/>
        <pt x="394" y="178" on="1"/>
        <pt x="258" y="170" on="1"/>
        <pt x="251" y="0" on="1"/>
        <pt x="199" y="0" on="1"/>
      </contour>
    </TTGlyph>
    <TTGlyph name="dcaron" xMin="65" yMin="-8" xMax="639" yMax="743">
      <component glyphName="d" x="0" y="0" flags="0x0"/>
      <component glyphName="caron.loclCSY" x="495" y="0" flags="0x0"/>
    </TTGlyph>
    <TTGlyph name="dcroat" xMin="65" yMin="-8" xMax="571" yMax="743">
      <contour>
        <pt x="571" y="615" on="1"/>
        <pt x="504" y="615" on="1"/>
        <pt x="504" y="0" on="1"/>
        <pt x="431" y="0" on="1"/>
        <pt x="428" y="71" on="1"/>
        <pt x="422" y="71" on="1"/>
        <pt x="401" y="25" on="0"/>
        <pt x="315" y="-8" on="0"/>
        <pt x="254" y="-8" on="1"/>
        <pt x="178" y="-8" on="0"/>
        <pt x="98" y="38" on="0"/>
        <pt x="65" y="149" on="0"/>
        <pt x="65" y="254" on="1"/>
        <pt x="65" y="360" on="0"/>
        <pt x="97" y="472" on="0"/>
        <pt x="176" y="518" on="0"/>
        <pt x="251" y="518" on="1"/>
        <pt x="317" y="518" on="0"/>
        <pt x="398" y="486" on="0"/>
        <pt x="417" y="446" on="1"/>
        <pt x="423" y="446" on="1"/>
        <pt x="423" y="615" on="1"/>
        <pt x="287" y="615" on="1"/>
        <pt x="287" y="688" on="1"/>
        <pt x="423" y="688" on="1"/>
        <pt x="423" y="743" on="1"/>
        <pt x="504" y="743" on="1"/>
        <pt x="504" y="688" on="1"/>
        <pt x="571" y="688" on="1"/>
      </contour>
      <contour>
        <pt x="418" y="149" on="0"/>
        <pt x="423" y="208" on="0"/>
        <pt x="423" y="260" on="1"/>
        <pt x="423" y="303" on="0"/>
        <pt x="417" y="359" on="0"/>
        <pt x="409" y="379" on="1"/>
        <pt x="397" y="410" on="0"/>
        <pt x="336" y="439" on="0"/>
        <pt x="283" y="439" on="1"/>
        <pt x="220" y="439" on="0"/>
        <pt x="165" y="414" on="0"/>
        <pt x="146" y="340" on="0"/>
        <pt x="146" y="255" on="1"/>
        <pt x="146" y="168" on="0"/>
        <pt x="165" y="94" on="0"/>
        <pt x="220" y="70" on="0"/>
        <pt x="285" y="70" on="1"/>
        <pt x="337" y="70" on="0"/>
        <pt x="397" y="97" on="0"/>
        <pt x="408" y="126" on="1"/>
      </contour>
    </TTGlyph>
    <TTGlyph name="degree" xMin="63" yMin="397" xMax="327" yMax="696">
      <contour>
        <pt x="133" y="397" on="0"/>
        <pt x="78" y="423" on="0"/>
        <pt x="63" y="482" on="0"/>
        <pt x="63" y="546" on="1"/>
        <pt x="63" y="610" on="0"/>
        <pt x="78" y="669" on="0"/>
        <pt x="133" y="696" on="0"/>
        <pt x="195" y="696" on="1"/>
        <pt x="257" y="696" on="0"/>
        <pt x="312" y="669" on="0"/>
        <pt x="327" y="610" on="0"/>
        <pt x="327" y="546" on="1"/>
        <pt x="327" y="482" on="0"/>
        <pt x="312" y="423" on="0"/>
        <pt x="257" y="397" on="0"/>
        <pt x="195" y="397" on="1"/>
      </contour>
      <contour>
        <pt x="233" y="445" on="0"/>
        <pt x="262" y="460" on="0"/>
        <pt x="269" y="497" on="0"/>
        <pt x="269" y="546" on="1"/>
        <pt x="269" y="595" on="0"/>
        <pt x="262" y="632" on="0"/>
        <pt x="233" y="647" on="0"/>
        <pt x="195" y="647" on="1"/>
        <pt x="157" y="647" on="0"/>
        <pt x="127" y="632" on="0"/>
        <pt x="120" y="595" on="0"/>
        <pt x="120" y="546" on="1"/>
        <pt x="120" y="497" on="0"/>
        <pt x="127" y="460" on="0"/>
        <pt x="157" y="445" on="0"/>
        <pt x="195" y="445" on="1"/>
      </contour>
    </TTGlyph>
    <TTGlyph name="dialog" xMin="59" yMin="-212" xMax="746" yMax="688">
      <contour>
        <pt x="306" y="-127" on="1"/>
        <pt x="494" y="60" on="1"/>
        <pt x="686" y="60" on="1"/>
        <pt x="686" y="628" on="1"/>
        <pt x="119" y="628" on="1"/>
        <pt x="119" y="60" on="1"/>
        <pt x="306" y="60" on="1"/>
        <pt x="306" y="0" on="1"/>
        <pt x="59" y="0" on="1"/>
        <pt x="59" y="688" on="1"/>
        <pt x="746" y="688" on="1"/>
        <pt x="746" y="0" on="1"/>
        <pt x="519" y="0" on="1"/>
        <pt x="306" y="-212" on="1"/>
      </contour>
    </TTGlyph>
    <TTGlyph name="dieresis" xMin="20" yMin="647" xMax="285" yMax="730">
      <contour>
        <pt x="20" y="730" on="1"/>
        <pt x="97" y="730" on="1"/>
        <pt x="97" y="647" on="1"/>
        <pt x="20" y="647" on="1"/>
      </contour>
      <contour>
        <pt x="209" y="730" on="1"/>
        <pt x="285" y="730" on="1"/>
        <pt x="285" y="647" on="1"/>
        <pt x="209" y="647" on="1"/>
      </contour>
    </TTGlyph>
    <TTGlyph name="divide" xMin="70" yMin="24" xMax="470" yMax="481">
      <contour>
        <pt x="234" y="481" on="1"/>
        <pt x="306" y="481" on="1"/>
        <pt x="306" y="401" on="1"/>
        <pt x="234" y="401" on="1"/>
      </contour>
      <contour>
        <pt x="70" y="288" on="1"/>
        <pt x="470" y="288" on="1"/>
        <pt x="470" y="217" on="1"/>
        <pt x="70" y="217" on="1"/>
      </contour>
      <contour>
        <pt x="234" y="105" on="1"/>
        <pt x="306" y="105" on="1"/>
        <pt x="306" y="24" on="1"/>
        <pt x="234" y="24" on="1"/>
      </contour>
    </TTGlyph>
    <TTGlyph name="dollar" xMin="69" yMin="-8" xMax="468" yMax="696">
      <contour>
        <pt x="468" y="167" on="0"/>
        <pt x="437" y="101" on="0"/>
        <pt x="367" y="72" on="0"/>
        <pt x="303" y="68" on="1"/>
        <pt x="303" y="-8" on="1"/>
        <pt x="240" y="-8" on="1"/>
        <pt x="240" y="68" on="1"/>
        <pt x="153" y="71" on="0"/>
        <pt x="86" y="81" on="1"/>
        <pt x="86" y="155" on="1"/>
        <pt x="156" y="146" on="0"/>
        <pt x="240" y="145" on="1"/>
        <pt x="240" y="309" on="1"/>
        <pt x="184" y="316" on="1"/>
        <pt x="117" y="324" on="0"/>
        <pt x="69" y="391" on="0"/>
        <pt x="69" y="462" on="1"/>
        <pt x="69" y="546" on="0"/>
        <pt x="152" y="612" on="0"/>
        <pt x="240" y="617" on="1"/>
        <pt x="240" y="696" on="1"/>
        <pt x="303" y="696" on="1"/>
        <pt x="303" y="618" on="1"/>
        <pt x="372" y="617" on="0"/>
        <pt x="440" y="604" on="1"/>
        <pt x="440" y="531" on="1"/>
        <pt x="374" y="539" on="0"/>
        <pt x="303" y="542" on="1"/>
        <pt x="303" y="383" on="1"/>
        <pt x="363" y="377" on="1"/>
        <pt x="404" y="372" on="0"/>
        <pt x="448" y="345" on="0"/>
        <pt x="468" y="284" on="0"/>
        <pt x="468" y="226" on="1"/>
      </contour>
      <contour>
        <pt x="240" y="390" on="1"/>
        <pt x="240" y="542" on="1"/>
        <pt x="192" y="540" on="0"/>
        <pt x="150" y="509" on="0"/>
        <pt x="150" y="466" on="1"/>
        <pt x="150" y="434" on="0"/>
        <pt x="160" y="407" on="0"/>
        <pt x="184" y="396" on="0"/>
        <pt x="213" y="393" on="1"/>
      </contour>
      <contour>
        <pt x="339" y="147" on="0"/>
        <pt x="375" y="163" on="0"/>
        <pt x="387" y="195" on="0"/>
        <pt x="387" y="224" on="1"/>
        <pt x="387" y="258" on="0"/>
        <pt x="377" y="287" on="0"/>
        <pt x="353" y="296" on="0"/>
        <pt x="324" y="299" on="1"/>
        <pt x="303" y="302" on="1"/>
        <pt x="303" y="145" on="1"/>
      </contour>
    </TTGlyph>
    <TTGlyph name="dotaccent" xMin="20" yMin="647" xMax="97" yMax="730">
      <contour>
        <pt x="20" y="730" on="1"/>
        <pt x="97" y="730" on="1"/>
        <pt x="97" y="647" on="1"/>
        <pt x="20" y="647" on="1"/>
      </contour>
    </TTGlyph>
    <TTGlyph name="dotbelowcomb" xMin="-159" yMin="-165" xMax="-64" yMax="-62">
      <contour>
        <pt x="-159" y="-62" on="1"/>
        <pt x="-64" y="-62" on="1"/>
        <pt x="-64" y="-165" on="1"/>
        <pt x="-159" y="-165" on="1"/>
      </contour>
    </TTGlyph>
    <TTGlyph name="dotlessi" xMin="87" yMin="0" xMax="168" yMax="510">
      <contour>
        <pt x="87" y="510" on="1"/>
        <pt x="168" y="510" on="1"/>
        <pt x="168" y="0" on="1"/>
        <pt x="87" y="0" on="1"/>
      </contour>
    </TTGlyph>
    <TTGlyph name="e" xMin="65" yMin="-8" xMax="495" yMax="518">
      <contour>
        <pt x="495" y="226" on="1"/>
        <pt x="146" y="226" on="1"/>
        <pt x="146" y="153" on="0"/>
        <pt x="166" y="91" on="0"/>
        <pt x="233" y="66" on="0"/>
        <pt x="312" y="66" on="1"/>
        <pt x="389" y="66" on="0"/>
        <pt x="475" y="77" on="1"/>
        <pt x="475" y="6" on="1"/>
        <pt x="443" y="0" on="0"/>
        <pt x="341" y="-8" on="0"/>
        <pt x="295" y="-8" on="1"/>
        <pt x="192" y="-8" on="0"/>
        <pt x="95" y="40" on="0"/>
        <pt x="65" y="146" on="0"/>
        <pt x="65" y="254" on="1"/>
        <pt x="65" y="360" on="0"/>
        <pt x="92" y="466" on="0"/>
        <pt x="187" y="518" on="0"/>
        <pt x="290" y="518" on="1"/>
        <pt x="386" y="518" on="0"/>
        <pt x="472" y="467" on="0"/>
        <pt x="495" y="364" on="0"/>
        <pt x="495" y="255" on="1"/>
      </contour>
      <contour>
        <pt x="223" y="444" on="0"/>
        <pt x="166" y="421" on="0"/>
        <pt x="147" y="358" on="0"/>
        <pt x="146" y="288" on="1"/>
        <pt x="417" y="288" on="1"/>
        <pt x="417" y="296" on="1"/>
        <pt x="417" y="362" on="0"/>
        <pt x="394" y="424" on="0"/>
        <pt x="342" y="444" on="0"/>
        <pt x="288" y="444" on="1"/>
      </contour>
    </TTGlyph>
    <TTGlyph name="eacute" xMin="65" yMin="-8" xMax="495" yMax="743">
      <component glyphName="e" x="0" y="0" flags="0x0"/>
      <component glyphName="acute" x="224" y="0" flags="0x0"/>
    </TTGlyph>
    <TTGlyph name="ebreve" xMin="65" yMin="-8" xMax="495" yMax="743">
      <component glyphName="e" x="0" y="0" flags="0x0"/>
      <component glyphName="uni0306" x="438" y="0" flags="0x0"/>
    </TTGlyph>
    <TTGlyph name="ecaron" xMin="65" yMin="-8" xMax="495" yMax="743">
      <component glyphName="e" x="0" y="0" flags="0x0"/>
      <component glyphName="uni030C" x="445" y="0" flags="0x0"/>
    </TTGlyph>
    <TTGlyph name="ecircumflex" xMin="65" yMin="-8" xMax="495" yMax="743">
      <component glyphName="e" x="0" y="0" flags="0x0"/>
      <component glyphName="circumflex" x="118" y="0" flags="0x0"/>
    </TTGlyph>
    <TTGlyph name="edieresis" xMin="65" yMin="-8" xMax="495" yMax="730">
      <component glyphName="e" x="0" y="0" flags="0x0"/>
      <component glyphName="dieresis" x="131" y="0" flags="0x0"/>
    </TTGlyph>
    <TTGlyph name="edotaccent" xMin="65" yMin="-8" xMax="495" yMax="730">
      <component glyphName="e" x="0" y="0" flags="0x0"/>
      <component glyphName="uni0307" x="338" y="0" flags="0x0"/>
    </TTGlyph>
    <TTGlyph name="egrave" xMin="65" yMin="-8" xMax="495" yMax="743">
      <component glyphName="e" x="0" y="0" flags="0x0"/>
      <component glyphName="grave" x="120" y="0" flags="0x0"/>
    </TTGlyph>
    <TTGlyph name="eight" xMin="74" yMin="-8" xMax="608" yMax="696">
      <contour>
        <pt x="232" y="-8" on="0"/>
        <pt x="116" y="35" on="0"/>
        <pt x="74" y="117" on="0"/>
        <pt x="74" y="184" on="1"/>
        <pt x="74" y="241" on="0"/>
        <pt x="102" y="307" on="0"/>
        <pt x="155" y="339" on="0"/>
        <pt x="199" y="349" on="1"/>
        <pt x="199" y="353" on="1"/>
        <pt x="137" y="365" on="0"/>
        <pt x="80" y="441" on="0"/>
        <pt x="80" y="515" on="1"/>
        <pt x="80" y="579" on="0"/>
        <pt x="126" y="657" on="0"/>
        <pt x="240" y="696" on="0"/>
        <pt x="341" y="696" on="1"/>
        <pt x="443" y="696" on="0"/>
        <pt x="556" y="657" on="0"/>
        <pt x="602" y="579" on="0"/>
        <pt x="602" y="515" on="1"/>
        <pt x="602" y="441" on="0"/>
        <pt x="545" y="365" on="0"/>
        <pt x="483" y="353" on="1"/>
        <pt x="483" y="349" on="1"/>
        <pt x="528" y="339" on="0"/>
        <pt x="581" y="307" on="0"/>
        <pt x="608" y="241" on="0"/>
        <pt x="608" y="184" on="1"/>
        <pt x="608" y="117" on="0"/>
        <pt x="566" y="35" on="0"/>
        <pt x="450" y="-8" on="0"/>
        <pt x="341" y="-8" on="1"/>
      </contour>
      <contour>
        <pt x="414" y="387" on="0"/>
        <pt x="487" y="406" on="0"/>
        <pt x="516" y="454" on="0"/>
        <pt x="516" y="501" on="1"/>
        <pt x="516" y="550" on="0"/>
        <pt x="489" y="597" on="0"/>
        <pt x="416" y="616" on="0"/>
        <pt x="341" y="616" on="1"/>
        <pt x="267" y="616" on="0"/>
        <pt x="195" y="598" on="0"/>
        <pt x="168" y="550" on="0"/>
        <pt x="168" y="501" on="1"/>
        <pt x="168" y="453" on="0"/>
        <pt x="196" y="406" on="0"/>
        <pt x="269" y="387" on="0"/>
        <pt x="341" y="387" on="1"/>
      </contour>
      <contour>
        <pt x="415" y="72" on="0"/>
        <pt x="490" y="89" on="0"/>
        <pt x="522" y="137" on="0"/>
        <pt x="522" y="188" on="1"/>
        <pt x="522" y="242" on="0"/>
        <pt x="492" y="292" on="0"/>
        <pt x="418" y="309" on="0"/>
        <pt x="341" y="309" on="1"/>
        <pt x="264" y="309" on="0"/>
        <pt x="191" y="292" on="0"/>
        <pt x="162" y="242" on="0"/>
        <pt x="162" y="188" on="1"/>
        <pt x="162" y="137" on="0"/>
        <pt x="193" y="89" on="0"/>
        <pt x="267" y="72" on="0"/>
        <pt x="341" y="72" on="1"/>
      </contour>
    </TTGlyph>
    <TTGlyph name="eight.dnom" xMin="43" yMin="-4" xMax="353" yMax="382">
      <contour>
        <pt x="135" y="-4" on="0"/>
        <pt x="68" y="19" on="0"/>
        <pt x="43" y="63" on="0"/>
        <pt x="43" y="101" on="1"/>
        <pt x="43" y="146" on="0"/>
        <pt x="77" y="184" on="0"/>
        <pt x="115" y="192" on="1"/>
        <pt x="115" y="194" on="1"/>
        <pt x="79" y="200" on="0"/>
        <pt x="46" y="242" on="0"/>
        <pt x="46" y="283" on="1"/>
        <pt x="46" y="319" on="0"/>
        <pt x="73" y="362" on="0"/>
        <pt x="139" y="382" on="0"/>
        <pt x="198" y="382" on="1"/>
        <pt x="256" y="382" on="0"/>
        <pt x="322" y="362" on="0"/>
        <pt x="349" y="319" on="0"/>
        <pt x="349" y="283" on="1"/>
        <pt x="349" y="242" on="0"/>
        <pt x="317" y="200" on="0"/>
        <pt x="281" y="194" on="1"/>
        <pt x="281" y="192" on="1"/>
        <pt x="319" y="184" on="0"/>
        <pt x="353" y="146" on="0"/>
        <pt x="353" y="101" on="1"/>
        <pt x="353" y="63" on="0"/>
        <pt x="328" y="19" on="0"/>
        <pt x="261" y="-4" on="0"/>
        <pt x="198" y="-4" on="1"/>
      </contour>
      <contour>
        <pt x="236" y="215" on="0"/>
        <pt x="274" y="224" on="0"/>
        <pt x="289" y="248" on="0"/>
        <pt x="289" y="273" on="1"/>
        <pt x="289" y="298" on="0"/>
        <pt x="275" y="322" on="0"/>
        <pt x="237" y="332" on="0"/>
        <pt x="198" y="332" on="1"/>
        <pt x="159" y="332" on="0"/>
        <pt x="121" y="322" on="0"/>
        <pt x="107" y="298" on="0"/>
        <pt x="107" y="273" on="1"/>
        <pt x="107" y="248" on="0"/>
        <pt x="122" y="224" on="0"/>
        <pt x="160" y="215" on="0"/>
        <pt x="198" y="215" on="1"/>
      </contour>
      <contour>
        <pt x="237" y="46" on="0"/>
        <pt x="276" y="55" on="0"/>
        <pt x="293" y="80" on="0"/>
        <pt x="293" y="106" on="1"/>
        <pt x="293" y="133" on="0"/>
        <pt x="277" y="159" on="0"/>
        <pt x="238" y="168" on="0"/>
        <pt x="198" y="168" on="1"/>
        <pt x="157" y="168" on="0"/>
        <pt x="119" y="159" on="0"/>
        <pt x="104" y="134" on="0"/>
        <pt x="104" y="106" on="1"/>
        <pt x="104" y="80" on="0"/>
        <pt x="120" y="55" on="0"/>
        <pt x="159" y="46" on="0"/>
        <pt x="198" y="46" on="1"/>
      </contour>
    </TTGlyph>
    <TTGlyph name="eight.numr" xMin="43" yMin="304" xMax="353" yMax="690">
      <component glyphName="eight.dnom" x="0" y="308" flags="0x4"/>
    </TTGlyph>
    <TTGlyph name="eight.tnum" xMin="63" yMin="-8" xMax="597" yMax="696">
      <contour>
        <pt x="221" y="-8" on="0"/>
        <pt x="105" y="35" on="0"/>
        <pt x="63" y="117" on="0"/>
        <pt x="63" y="184" on="1"/>
        <pt x="63" y="241" on="0"/>
        <pt x="91" y="307" on="0"/>
        <pt x="144" y="339" on="0"/>
        <pt x="188" y="349" on="1"/>
        <pt x="188" y="353" on="1"/>
        <pt x="126" y="365" on="0"/>
        <pt x="69" y="441" on="0"/>
        <pt x="69" y="515" on="1"/>
        <pt x="69" y="579" on="0"/>
        <pt x="115" y="657" on="0"/>
        <pt x="229" y="696" on="0"/>
        <pt x="330" y="696" on="1"/>
        <pt x="432" y="696" on="0"/>
        <pt x="545" y="657" on="0"/>
        <pt x="591" y="579" on="0"/>
        <pt x="591" y="515" on="1"/>
        <pt x="591" y="441" on="0"/>
        <pt x="534" y="365" on="0"/>
        <pt x="472" y="353" on="1"/>
        <pt x="472" y="349" on="1"/>
        <pt x="517" y="339" on="0"/>
        <pt x="570" y="307" on="0"/>
        <pt x="597" y="241" on="0"/>
        <pt x="597" y="184" on="1"/>
        <pt x="597" y="117" on="0"/>
        <pt x="555" y="35" on="0"/>
        <pt x="439" y="-8" on="0"/>
        <pt x="330" y="-8" on="1"/>
      </contour>
      <contour>
        <pt x="403" y="387" on="0"/>
        <pt x="476" y="406" on="0"/>
        <pt x="505" y="454" on="0"/>
        <pt x="505" y="501" on="1"/>
        <pt x="505" y="550" on="0"/>
        <pt x="478" y="597" on="0"/>
        <pt x="405" y="616" on="0"/>
        <pt x="330" y="616" on="1"/>
        <pt x="256" y="616" on="0"/>
        <pt x="184" y="598" on="0"/>
        <pt x="157" y="550" on="0"/>
        <pt x="157" y="501" on="1"/>
        <pt x="157" y="453" on="0"/>
        <pt x="185" y="406" on="0"/>
        <pt x="258" y="387" on="0"/>
        <pt x="330" y="387" on="1"/>
      </contour>
      <contour>
        <pt x="404" y="72" on="0"/>
        <pt x="479" y="89" on="0"/>
        <pt x="511" y="137" on="0"/>
        <pt x="511" y="188" on="1"/>
        <pt x="511" y="242" on="0"/>
        <pt x="481" y="292" on="0"/>
        <pt x="407" y="309" on="0"/>
        <pt x="330" y="309" on="1"/>
        <pt x="253" y="309" on="0"/>
        <pt x="180" y="292" on="0"/>
        <pt x="151" y="242" on="0"/>
        <pt x="151" y="188" on="1"/>
        <pt x="151" y="137" on="0"/>
        <pt x="182" y="89" on="0"/>
        <pt x="256" y="72" on="0"/>
        <pt x="330" y="72" on="1"/>
      </contour>
    </TTGlyph>
    <TTGlyph name="ellipsis" xMin="64" yMin="0" xMax="604" yMax="102">
      <contour>
        <pt x="64" y="102" on="1"/>
        <pt x="159" y="102" on="1"/>
        <pt x="159" y="0" on="1"/>
        <pt x="64" y="0" on="1"/>
      </contour>
      <contour>
        <pt x="287" y="102" on="1"/>
        <pt x="382" y="102" on="1"/>
        <pt x="382" y="0" on="1"/>
        <pt x="287" y="0" on="1"/>
      </contour>
      <contour>
        <pt x="510" y="102" on="1"/>
        <pt x="604" y="102" on="1"/>
        <pt x="604" y="0" on="1"/>
        <pt x="510" y="0" on="1"/>
      </contour>
    </TTGlyph>
    <TTGlyph name="emacron" xMin="65" yMin="-8" xMax="495" yMax="742">
      <component glyphName="e" x="0" y="0" flags="0x0"/>
      <component glyphName="uni0304" x="461" y="0" flags="0x0"/>
    </TTGlyph>
    <TTGlyph name="emdash" xMin="57" yMin="268" xMax="816" yMax="340">
      <contour>
        <pt x="57" y="340" on="1"/>
        <pt x="816" y="340" on="1"/>
        <pt x="816" y="268" on="1"/>
        <pt x="57" y="268" on="1"/>
      </contour>
    </TTGlyph>
    <TTGlyph name="endash" xMin="57" yMin="268" xMax="415" yMax="340">
      <contour>
        <pt x="57" y="340" on="1"/>
        <pt x="415" y="340" on="1"/>
        <pt x="415" y="268" on="1"/>
        <pt x="57" y="268" on="1"/>
      </contour>
    </TTGlyph>
    <TTGlyph name="eng" xMin="87" yMin="-200" xMax="513" yMax="518">
      <contour>
        <pt x="412" y="518" on="0"/>
        <pt x="487" y="476" on="0"/>
        <pt x="513" y="393" on="0"/>
        <pt x="513" y="319" on="1"/>
        <pt x="513" y="-57" on="1"/>
        <pt x="513" y="-123" on="0"/>
        <pt x="481" y="-183" on="0"/>
        <pt x="410" y="-200" on="0"/>
        <pt x="336" y="-200" on="1"/>
        <pt x="336" y="-132" on="1"/>
        <pt x="380" y="-132" on="0"/>
        <pt x="420" y="-122" on="0"/>
        <pt x="432" y="-100" on="0"/>
        <pt x="432" y="-77" on="1"/>
        <pt x="432" y="287" on="1"/>
        <pt x="432" y="358" on="0"/>
        <pt x="414" y="419" on="0"/>
        <pt x="364" y="439" on="0"/>
        <pt x="305" y="439" on="1"/>
        <pt x="242" y="439" on="0"/>
        <pt x="183" y="399" on="0"/>
        <pt x="168" y="329" on="0"/>
        <pt x="168" y="263" on="1"/>
        <pt x="168" y="0" on="1"/>
        <pt x="87" y="0" on="1"/>
        <pt x="87" y="510" on="1"/>
        <pt x="159" y="510" on="1"/>
        <pt x="163" y="438" on="1"/>
        <pt x="169" y="438" on="1"/>
        <pt x="186" y="477" on="0"/>
        <pt x="264" y="518" on="0"/>
        <pt x="338" y="518" on="1"/>
      </contour>
    </TTGlyph>
    <TTGlyph name="eogonek" xMin="65" yMin="-196" xMax="495" yMax="518">
      <contour>
        <pt x="495" y="226" on="1"/>
        <pt x="146" y="226" on="1"/>
        <pt x="146" y="153" on="0"/>
        <pt x="166" y="91" on="0"/>
        <pt x="233" y="66" on="0"/>
        <pt x="312" y="66" on="1"/>
        <pt x="389" y="66" on="0"/>
        <pt x="475" y="77" on="1"/>
        <pt x="475" y="6" on="1"/>
        <pt x="447" y="-12" on="0"/>
        <pt x="399" y="-74" on="0"/>
        <pt x="399" y="-102" on="1"/>
        <pt x="399" y="-118" on="0"/>
        <pt x="421" y="-139" on="0"/>
        <pt x="445" y="-139" on="1"/>
        <pt x="463" y="-138" on="1"/>
        <pt x="463" y="-194" on="1"/>
        <pt x="460" y="-194" on="0"/>
        <pt x="442" y="-196" on="0"/>
        <pt x="424" y="-196" on="1"/>
        <pt x="373" y="-196" on="0"/>
        <pt x="328" y="-155" on="0"/>
        <pt x="328" y="-122" on="1"/>
        <pt x="328" y="-64" on="0"/>
        <pt x="390" y="-5" on="1"/>
        <pt x="344" y="-8" on="0"/>
        <pt x="295" y="-8" on="1"/>
        <pt x="192" y="-8" on="0"/>
        <pt x="95" y="40" on="0"/>
        <pt x="65" y="146" on="0"/>
        <pt x="65" y="254" on="1"/>
        <pt x="65" y="360" on="0"/>
        <pt x="92" y="466" on="0"/>
        <pt x="187" y="518" on="0"/>
        <pt x="290" y="518" on="1"/>
        <pt x="386" y="518" on="0"/>
        <pt x="472" y="467" on="0"/>
        <pt x="495" y="364" on="0"/>
        <pt x="495" y="255" on="1"/>
      </contour>
      <contour>
        <pt x="223" y="444" on="0"/>
        <pt x="166" y="421" on="0"/>
        <pt x="147" y="358" on="0"/>
        <pt x="146" y="288" on="1"/>
        <pt x="417" y="288" on="1"/>
        <pt x="417" y="296" on="1"/>
        <pt x="417" y="362" on="0"/>
        <pt x="394" y="424" on="0"/>
        <pt x="342" y="444" on="0"/>
        <pt x="288" y="444" on="1"/>
      </contour>
    </TTGlyph>
    <TTGlyph name="equal" xMin="70" yMin="117" xMax="470" yMax="389">
      <contour>
        <pt x="70" y="389" on="1"/>
        <pt x="470" y="389" on="1"/>
        <pt x="470" y="318" on="1"/>
        <pt x="70" y="318" on="1"/>
      </contour>
      <contour>
        <pt x="70" y="188" on="1"/>
        <pt x="470" y="188" on="1"/>
        <pt x="470" y="117" on="1"/>
        <pt x="70" y="117" on="1"/>
      </contour>
    </TTGlyph>
    <TTGlyph name="estimated" xMin="77" yMin="-8" xMax="641" yMax="696">
      <contour>
        <pt x="163" y="169" on="0"/>
        <pt x="187" y="55" on="0"/>
        <pt x="263" y="26" on="0"/>
        <pt x="369" y="26" on="1"/>
        <pt x="466" y="26" on="0"/>
        <pt x="553" y="47" on="0"/>
        <pt x="592" y="118" on="0"/>
        <pt x="598" y="200" on="1"/>
        <pt x="634" y="200" on="1"/>
        <pt x="628" y="108" on="0"/>
        <pt x="583" y="23" on="0"/>
        <pt x="473" y="-8" on="0"/>
        <pt x="359" y="-8" on="1"/>
        <pt x="222" y="-8" on="0"/>
        <pt x="108" y="46" on="0"/>
        <pt x="77" y="181" on="0"/>
        <pt x="77" y="344" on="1"/>
        <pt x="77" y="507" on="0"/>
        <pt x="108" y="642" on="0"/>
        <pt x="222" y="696" on="0"/>
        <pt x="359" y="696" on="1"/>
        <pt x="495" y="696" on="0"/>
        <pt x="610" y="642" on="0"/>
        <pt x="641" y="507" on="0"/>
        <pt x="641" y="344" on="1"/>
        <pt x="641" y="323" on="1"/>
        <pt x="162" y="323" on="1"/>
      </contour>
      <contour>
        <pt x="258" y="662" on="0"/>
        <pt x="186" y="632" on="0"/>
        <pt x="162" y="515" on="0"/>
        <pt x="162" y="357" on="1"/>
        <pt x="555" y="357" on="1"/>
        <pt x="555" y="515" on="0"/>
        <pt x="532" y="632" on="0"/>
        <pt x="459" y="662" on="0"/>
        <pt x="359" y="662" on="1"/>
      </contour>
    </TTGlyph>
    <TTGlyph name="eth" xMin="65" yMin="-8" xMax="512" yMax="743">
      <contour>
        <pt x="183" y="-8" on="0"/>
        <pt x="91" y="37" on="0"/>
        <pt x="65" y="140" on="0"/>
        <pt x="65" y="254" on="1"/>
        <pt x="65" y="363" on="0"/>
        <pt x="89" y="467" on="0"/>
        <pt x="175" y="517" on="0"/>
        <pt x="270" y="517" on="1"/>
        <pt x="353" y="517" on="0"/>
        <pt x="399" y="493" on="1"/>
        <pt x="403" y="495" on="1"/>
        <pt x="379" y="562" on="0"/>
        <pt x="340" y="616" on="1"/>
        <pt x="222" y="597" on="1"/>
        <pt x="222" y="656" on="1"/>
        <pt x="303" y="669" on="1"/>
        <pt x="274" y="701" on="0"/>
        <pt x="231" y="739" on="1"/>
        <pt x="231" y="743" on="1"/>
        <pt x="321" y="743" on="1"/>
        <pt x="326" y="738" on="0"/>
        <pt x="364" y="705" on="0"/>
        <pt x="383" y="683" on="1"/>
        <pt x="491" y="701" on="1"/>
        <pt x="491" y="642" on="1"/>
        <pt x="419" y="630" on="1"/>
        <pt x="478" y="544" on="0"/>
        <pt x="498" y="438" on="1"/>
        <pt x="512" y="362" on="0"/>
        <pt x="512" y="271" on="1"/>
        <pt x="512" y="145" on="0"/>
        <pt x="488" y="38" on="0"/>
        <pt x="397" y="-8" on="0"/>
        <pt x="289" y="-8" on="1"/>
      </contour>
      <contour>
        <pt x="362" y="66" on="0"/>
        <pt x="418" y="91" on="0"/>
        <pt x="431" y="160" on="0"/>
        <pt x="431" y="254" on="1"/>
        <pt x="431" y="338" on="0"/>
        <pt x="418" y="409" on="0"/>
        <pt x="359" y="444" on="0"/>
        <pt x="289" y="444" on="1"/>
        <pt x="216" y="444" on="0"/>
        <pt x="159" y="417" on="0"/>
        <pt x="146" y="348" on="0"/>
        <pt x="146" y="254" on="1"/>
        <pt x="146" y="160" on="0"/>
        <pt x="159" y="91" on="0"/>
        <pt x="215" y="66" on="0"/>
        <pt x="289" y="66" on="1"/>
      </contour>
    </TTGlyph>
    <TTGlyph name="exclam" xMin="80" yMin="0" xMax="174" yMax="688">
      <contour>
        <pt x="92" y="290" on="1"/>
        <pt x="80" y="528" on="0"/>
        <pt x="80" y="592" on="1"/>
        <pt x="80" y="688" on="1"/>
        <pt x="174" y="688" on="1"/>
        <pt x="174" y="592" on="1"/>
        <pt x="174" y="519" on="0"/>
        <pt x="164" y="333" on="1"/>
        <pt x="163" y="294" on="0"/>
        <pt x="159" y="225" on="0"/>
        <pt x="159" y="201" on="1"/>
        <pt x="96" y="201" on="1"/>
      </contour>
      <contour>
        <pt x="80" y="102" on="1"/>
        <pt x="174" y="102" on="1"/>
        <pt x="174" y="0" on="1"/>
        <pt x="80" y="0" on="1"/>
      </contour>
    </TTGlyph>
    <TTGlyph name="exclam.case" xMin="80" yMin="0" xMax="174" yMax="688">
      <component glyphName="exclam" x="0" y="0" flags="0x0"/>
    </TTGlyph>
    <TTGlyph name="exclam.ss02" xMin="45" yMin="-8" xMax="749" yMax="696">
      <contour>
        <pt x="302" y="-8" on="0"/>
        <pt x="140" y="87" on="0"/>
        <pt x="45" y="249" on="0"/>
        <pt x="45" y="344" on="1"/>
        <pt x="45" y="439" on="0"/>
        <pt x="140" y="601" on="0"/>
        <pt x="302" y="696" on="0"/>
        <pt x="397" y="696" on="1"/>
        <pt x="492" y="696" on="0"/>
        <pt x="654" y="601" on="0"/>
        <pt x="749" y="439" on="0"/>
        <pt x="749" y="344" on="1"/>
        <pt x="749" y="249" on="0"/>
        <pt x="654" y="87" on="0"/>
        <pt x="492" y="-8" on="0"/>
        <pt x="397" y="-8" on="1"/>
      </contour>
      <contour>
        <pt x="480" y="37" on="0"/>
        <pt x="621" y="120" on="0"/>
        <pt x="704" y="261" on="0"/>
        <pt x="704" y="344" on="1"/>
        <pt x="704" y="427" on="0"/>
        <pt x="621" y="568" on="0"/>
        <pt x="480" y="651" on="0"/>
        <pt x="397" y="651" on="1"/>
        <pt x="314" y="651" on="0"/>
        <pt x="173" y="568" on="0"/>
        <pt x="90" y="427" on="0"/>
        <pt x="90" y="344" on="1"/>
        <pt x="90" y="261" on="0"/>
        <pt x="173" y="120" on="0"/>
        <pt x="314" y="37" on="0"/>
        <pt x="397" y="37" on="1"/>
      </contour>
      <contour>
        <pt x="373" y="290" on="0"/>
        <pt x="363" y="413" on="0"/>
        <pt x="363" y="480" on="1"/>
        <pt x="363" y="579" on="1"/>
        <pt x="431" y="579" on="1"/>
        <pt x="431" y="480" on="1"/>
        <pt x="431" y="413" on="0"/>
        <pt x="421" y="290" on="0"/>
        <pt x="417" y="268" on="1"/>
        <pt x="377" y="268" on="1"/>
      </contour>
      <contour>
        <pt x="363" y="191" on="1"/>
        <pt x="431" y="191" on="1"/>
        <pt x="431" y="109" on="1"/>
        <pt x="363" y="109" on="1"/>
      </contour>
    </TTGlyph>
    <TTGlyph name="exclamdbl" xMin="80" yMin="0" xMax="384" yMax="688">
      <component glyphName="exclam" x="210" y="0" flags="0x0"/>
      <component glyphName="exclam" x="0" y="0" flags="0x0"/>
    </TTGlyph>
    <TTGlyph name="exclamdown" xMin="74" yMin="-178" xMax="169" yMax="510">
      <contour>
        <pt x="74" y="510" on="1"/>
        <pt x="169" y="510" on="1"/>
        <pt x="169" y="408" on="1"/>
        <pt x="74" y="408" on="1"/>
      </contour>
      <contour>
        <pt x="74" y="-82" on="1"/>
        <pt x="74" y="-45" on="0"/>
        <pt x="82" y="139" on="0"/>
        <pt x="84" y="175" on="1"/>
        <pt x="90" y="295" on="0"/>
        <pt x="90" y="309" on="1"/>
        <pt x="153" y="309" on="1"/>
        <pt x="153" y="285" on="0"/>
        <pt x="157" y="216" on="0"/>
        <pt x="158" y="177" on="1"/>
        <pt x="168" y="-9" on="0"/>
        <pt x="168" y="-82" on="1"/>
        <pt x="168" y="-178" on="1"/>
        <pt x="74" y="-178" on="1"/>
      </contour>
    </TTGlyph>
    <TTGlyph name="exclamdown.case" xMin="74" yMin="0" xMax="169" yMax="688">
      <component glyphName="exclamdown" x="0" y="178" flags="0x4"/>
    </TTGlyph>
    <TTGlyph name="f" xMin="26" yMin="0" xMax="343" yMax="742">
      <contour>
        <pt x="130" y="436" on="1"/>
        <pt x="26" y="436" on="1"/>
        <pt x="26" y="510" on="1"/>
        <pt x="130" y="510" on="1"/>
        <pt x="130" y="586" on="1"/>
        <pt x="130" y="658" on="0"/>
        <pt x="170" y="724" on="0"/>
        <pt x="254" y="742" on="0"/>
        <pt x="343" y="742" on="1"/>
        <pt x="343" y="675" on="1"/>
        <pt x="285" y="675" on="0"/>
        <pt x="231" y="664" on="0"/>
        <pt x="211" y="634" on="0"/>
        <pt x="211" y="601" on="1"/>
        <pt x="211" y="510" on="1"/>
        <pt x="343" y="510" on="1"/>
        <pt x="343" y="436" on="1"/>
        <pt x="211" y="436" on="1"/>
        <pt x="211" y="0" on="1"/>
        <pt x="130" y="0" on="1"/>
      </contour>
    </TTGlyph>
    <TTGlyph name="f_f" xMin="26" yMin="0" xMax="715" yMax="742">
      <component glyphName="f" x="0" y="0" flags="0x0"/>
      <component glyphName="f" x="372" y="0" flags="0x0"/>
    </TTGlyph>
    <TTGlyph name="fi" xMin="26" yMin="0" xMax="542" yMax="743">
      <component glyphName="f" x="0" y="0" flags="0x0"/>
      <component glyphName="i" x="372" y="0" flags="0x0"/>
    </TTGlyph>
    <TTGlyph name="five" xMin="82" yMin="-8" xMax="550" yMax="688">
      <contour>
        <pt x="204" y="72" on="0"/>
        <pt x="281" y="72" on="1"/>
        <pt x="357" y="72" on="0"/>
        <pt x="434" y="95" on="0"/>
        <pt x="463" y="151" on="0"/>
        <pt x="463" y="204" on="1"/>
        <pt x="463" y="262" on="0"/>
        <pt x="432" y="314" on="0"/>
        <pt x="353" y="331" on="0"/>
        <pt x="268" y="331" on="1"/>
        <pt x="196" y="331" on="0"/>
        <pt x="90" y="318" on="1"/>
        <pt x="90" y="688" on="1"/>
        <pt x="499" y="688" on="1"/>
        <pt x="499" y="607" on="1"/>
        <pt x="169" y="607" on="1"/>
        <pt x="169" y="402" on="1"/>
        <pt x="241" y="411" on="0"/>
        <pt x="322" y="411" on="1"/>
        <pt x="417" y="411" on="0"/>
        <pt x="515" y="368" on="0"/>
        <pt x="550" y="285" on="0"/>
        <pt x="550" y="214" on="1"/>
        <pt x="550" y="129" on="0"/>
        <pt x="507" y="35" on="0"/>
        <pt x="395" y="-8" on="0"/>
        <pt x="288" y="-8" on="1"/>
        <pt x="240" y="-8" on="0"/>
        <pt x="123" y="2" on="0"/>
        <pt x="82" y="10" on="1"/>
        <pt x="82" y="84" on="1"/>
      </contour>
    </TTGlyph>
    <TTGlyph name="five.dnom" xMin="49" yMin="-4" xMax="322" yMax="377">
      <contour>
        <pt x="123" y="47" on="0"/>
        <pt x="160" y="47" on="1"/>
        <pt x="203" y="47" on="0"/>
        <pt x="245" y="58" on="0"/>
        <pt x="261" y="86" on="0"/>
        <pt x="261" y="114" on="1"/>
        <pt x="261" y="143" on="0"/>
        <pt x="244" y="170" on="0"/>
        <pt x="200" y="179" on="0"/>
        <pt x="153" y="179" on="1"/>
        <pt x="125" y="179" on="0"/>
        <pt x="53" y="173" on="1"/>
        <pt x="53" y="377" on="1"/>
        <pt x="294" y="377" on="1"/>
        <pt x="294" y="325" on="1"/>
        <pt x="107" y="325" on="1"/>
        <pt x="107" y="224" on="1"/>
        <pt x="141" y="230" on="0"/>
        <pt x="193" y="230" on="1"/>
        <pt x="247" y="230" on="0"/>
        <pt x="303" y="205" on="0"/>
        <pt x="322" y="158" on="0"/>
        <pt x="322" y="119" on="1"/>
        <pt x="322" y="73" on="0"/>
        <pt x="296" y="21" on="0"/>
        <pt x="231" y="-4" on="0"/>
        <pt x="169" y="-4" on="1"/>
        <pt x="112" y="-4" on="0"/>
        <pt x="49" y="5" on="1"/>
        <pt x="49" y="53" on="1"/>
      </contour>
    </TTGlyph>
    <TTGlyph name="five.numr" xMin="49" yMin="304" xMax="322" yMax="685">
      <contour>
        <pt x="123" y="355" on="0"/>
        <pt x="160" y="355" on="1"/>
        <pt x="203" y="355" on="0"/>
        <pt x="245" y="366" on="0"/>
        <pt x="261" y="394" on="0"/>
        <pt x="261" y="422" on="1"/>
        <pt x="261" y="451" on="0"/>
        <pt x="244" y="478" on="0"/>
        <pt x="200" y="487" on="0"/>
        <pt x="153" y="487" on="1"/>
        <pt x="125" y="487" on="0"/>
        <pt x="53" y="481" on="1"/>
        <pt x="53" y="685" on="1"/>
        <pt x="294" y="685" on="1"/>
        <pt x="294" y="633" on="1"/>
        <pt x="107" y="633" on="1"/>
        <pt x="107" y="532" on="1"/>
        <pt x="141" y="538" on="0"/>
        <pt x="193" y="538" on="1"/>
        <pt x="247" y="538" on="0"/>
        <pt x="303" y="513" on="0"/>
        <pt x="322" y="466" on="0"/>
        <pt x="322" y="427" on="1"/>
        <pt x="322" y="381" on="0"/>
        <pt x="296" y="329" on="0"/>
        <pt x="231" y="304" on="0"/>
        <pt x="169" y="304" on="1"/>
        <pt x="112" y="304" on="0"/>
        <pt x="49" y="313" on="1"/>
        <pt x="49" y="361" on="1"/>
      </contour>
    </TTGlyph>
    <TTGlyph name="five.tnum" xMin="104" yMin="-8" xMax="572" yMax="688">
      <contour>
        <pt x="224" y="72" on="0"/>
        <pt x="303" y="72" on="1"/>
        <pt x="379" y="72" on="0"/>
        <pt x="456" y="95" on="0"/>
        <pt x="485" y="151" on="0"/>
        <pt x="485" y="204" on="1"/>
        <pt x="485" y="262" on="0"/>
        <pt x="454" y="314" on="0"/>
        <pt x="375" y="331" on="0"/>
        <pt x="289" y="331" on="1"/>
        <pt x="216" y="331" on="0"/>
        <pt x="112" y="318" on="1"/>
        <pt x="112" y="688" on="1"/>
        <pt x="521" y="688" on="1"/>
        <pt x="521" y="607" on="1"/>
        <pt x="191" y="607" on="1"/>
        <pt x="191" y="402" on="1"/>
        <pt x="261" y="411" on="0"/>
        <pt x="343" y="411" on="1"/>
        <pt x="438" y="411" on="0"/>
        <pt x="537" y="368" on="0"/>
        <pt x="572" y="285" on="0"/>
        <pt x="572" y="214" on="1"/>
        <pt x="572" y="129" on="0"/>
        <pt x="529" y="35" on="0"/>
        <pt x="416" y="-8" on="0"/>
        <pt x="309" y="-8" on="1"/>
        <pt x="261" y="-8" on="0"/>
        <pt x="145" y="2" on="0"/>
        <pt x="104" y="10" on="1"/>
        <pt x="104" y="84" on="1"/>
      </contour>
    </TTGlyph>
    <TTGlyph name="fiveeighths" xMin="49" yMin="-4" xMax="859" yMax="688">
      <component glyphName="five.numr" x="0" y="0" flags="0x0"/>
      <component glyphName="fraction" x="363" y="0" flags="0x0"/>
      <component glyphName="eight.dnom" x="506" y="0" flags="0x0"/>
    </TTGlyph>
    <TTGlyph name="fl" xMin="26" yMin="0" xMax="540" yMax="743">
      <component glyphName="f" x="0" y="0" flags="0x0"/>
      <component glyphName="l" x="372" y="0" flags="0x0"/>
    </TTGlyph>
    <TTGlyph name="florin" xMin="-139" yMin="-191" xMax="403" yMax="742">
      <contour>
        <pt x="322" y="674" on="0"/>
        <pt x="266" y="655" on="0"/>
        <pt x="240" y="596" on="0"/>
        <pt x="223" y="517" on="1"/>
        <pt x="222" y="510" on="1"/>
        <pt x="353" y="510" on="1"/>
        <pt x="339" y="436" on="1"/>
        <pt x="207" y="436" on="1"/>
        <pt x="116" y="17" on="1"/>
        <pt x="95" y="-84" on="0"/>
        <pt x="41" y="-170" on="0"/>
        <pt x="-44" y="-191" on="0"/>
        <pt x="-139" y="-191" on="1"/>
        <pt x="-126" y="-124" on="1"/>
        <pt x="-69" y="-124" on="0"/>
        <pt x="-13" y="-112" on="0"/>
        <pt x="14" y="-80" on="0"/>
        <pt x="22" y="-44" on="1"/>
        <pt x="126" y="436" on="1"/>
        <pt x="22" y="436" on="1"/>
        <pt x="36" y="510" on="1"/>
        <pt x="140" y="510" on="1"/>
        <pt x="141" y="513" on="1"/>
        <pt x="166" y="624" on="0"/>
        <pt x="220" y="718" on="0"/>
        <pt x="306" y="742" on="0"/>
        <pt x="403" y="742" on="1"/>
        <pt x="390" y="674" on="1"/>
      </contour>
    </TTGlyph>
    <TTGlyph name="four" xMin="46" yMin="0" xMax="597" yMax="688">
      <contour>
        <pt x="410" y="159" on="1"/>
        <pt x="46" y="159" on="1"/>
        <pt x="46" y="230" on="1"/>
        <pt x="315" y="688" on="1"/>
        <pt x="410" y="688" on="1"/>
        <pt x="142" y="239" on="1"/>
        <pt x="410" y="239" on="1"/>
        <pt x="428" y="476" on="1"/>
        <pt x="496" y="476" on="1"/>
        <pt x="496" y="239" on="1"/>
        <pt x="597" y="239" on="1"/>
        <pt x="597" y="159" on="1"/>
        <pt x="496" y="159" on="1"/>
        <pt x="496" y="0" on="1"/>
        <pt x="410" y="0" on="1"/>
      </contour>
    </TTGlyph>
    <TTGlyph name="four.dnom" xMin="26" yMin="0" xMax="347" yMax="377">
      <contour>
        <pt x="232" y="84" on="1"/>
        <pt x="26" y="84" on="1"/>
        <pt x="26" y="129" on="1"/>
        <pt x="169" y="377" on="1"/>
        <pt x="235" y="377" on="1"/>
        <pt x="91" y="135" on="1"/>
        <pt x="233" y="135" on="1"/>
        <pt x="248" y="255" on="1"/>
        <pt x="291" y="255" on="1"/>
        <pt x="291" y="135" on="1"/>
        <pt x="347" y="135" on="1"/>
        <pt x="347" y="84" on="1"/>
        <pt x="291" y="84" on="1"/>
        <pt x="291" y="0" on="1"/>
        <pt x="232" y="0" on="1"/>
      </contour>
    </TTGlyph>
    <TTGlyph name="four.numr" xMin="26" yMin="308" xMax="347" yMax="685">
      <component glyphName="four.dnom" x="0" y="308" flags="0x4"/>
    </TTGlyph>
    <TTGlyph name="four.ss01" xMin="46" yMin="0" xMax="597" yMax="688">
      <contour>
        <pt x="410" y="158" on="1"/>
        <pt x="46" y="158" on="1"/>
        <pt x="46" y="233" on="1"/>
        <pt x="381" y="688" on="1"/>
        <pt x="496" y="688" on="1"/>
        <pt x="496" y="239" on="1"/>
        <pt x="597" y="239" on="1"/>
        <pt x="597" y="158" on="1"/>
        <pt x="496" y="158" on="1"/>
        <pt x="496" y="0" on="1"/>
        <pt x="410" y="0" on="1"/>
      </contour>
      <contour>
        <pt x="410" y="239" on="1"/>
        <pt x="410" y="602" on="1"/>
        <pt x="409" y="602" on="1"/>
        <pt x="136" y="239" on="1"/>
      </contour>
    </TTGlyph>
    <TTGlyph name="four.tnum" xMin="54" yMin="0" xMax="605" yMax="688">
      <contour>
        <pt x="418" y="159" on="1"/>
        <pt x="54" y="159" on="1"/>
        <pt x="54" y="230" on="1"/>
        <pt x="323" y="688" on="1"/>
        <pt x="418" y="688" on="1"/>
        <pt x="149" y="239" on="1"/>
        <pt x="418" y="239" on="1"/>
        <pt x="436" y="476" on="1"/>
        <pt x="503" y="476" on="1"/>
        <pt x="503" y="239" on="1"/>
        <pt x="605" y="239" on="1"/>
        <pt x="605" y="159" on="1"/>
        <pt x="503" y="159" on="1"/>
        <pt x="503" y="0" on="1"/>
        <pt x="418" y="0" on="1"/>
      </contour>
    </TTGlyph>
    <TTGlyph name="fraction" xMin="-186" yMin="0" xMax="329" yMax="688">
      <contour>
        <pt x="264" y="688" on="1"/>
        <pt x="329" y="688" on="1"/>
        <pt x="-121" y="0" on="1"/>
        <pt x="-186" y="0" on="1"/>
      </contour>
    </TTGlyph>
    <TTGlyph name="g" xMin="65" yMin="-206" xMax="504" yMax="518">
      <contour>
        <pt x="167" y="-206" on="0"/>
        <pt x="93" y="-197" on="1"/>
        <pt x="93" y="-126" on="1"/>
        <pt x="189" y="-132" on="0"/>
        <pt x="256" y="-132" on="1"/>
        <pt x="333" y="-132" on="0"/>
        <pt x="402" y="-104" on="0"/>
        <pt x="423" y="-33" on="0"/>
        <pt x="423" y="45" on="1"/>
        <pt x="423" y="67" on="1"/>
        <pt x="418" y="67" on="1"/>
        <pt x="399" y="28" on="0"/>
        <pt x="318" y="-5" on="0"/>
        <pt x="254" y="-5" on="1"/>
        <pt x="177" y="-5" on="0"/>
        <pt x="97" y="40" on="0"/>
        <pt x="65" y="150" on="0"/>
        <pt x="65" y="255" on="1"/>
        <pt x="65" y="361" on="0"/>
        <pt x="98" y="472" on="0"/>
        <pt x="178" y="518" on="0"/>
        <pt x="254" y="518" on="1"/>
        <pt x="315" y="518" on="0"/>
        <pt x="402" y="484" on="0"/>
        <pt x="422" y="438" on="1"/>
        <pt x="428" y="438" on="1"/>
        <pt x="431" y="510" on="1"/>
        <pt x="504" y="510" on="1"/>
        <pt x="504" y="65" on="1"/>
        <pt x="504" y="-43" on="0"/>
        <pt x="473" y="-153" on="0"/>
        <pt x="375" y="-206" on="0"/>
        <pt x="273" y="-206" on="1"/>
      </contour>
      <contour>
        <pt x="335" y="73" on="0"/>
        <pt x="394" y="98" on="0"/>
        <pt x="406" y="124" on="1"/>
        <pt x="416" y="146" on="0"/>
        <pt x="423" y="206" on="0"/>
        <pt x="423" y="256" on="1"/>
        <pt x="423" y="307" on="0"/>
        <pt x="418" y="364" on="0"/>
        <pt x="408" y="384" on="1"/>
        <pt x="395" y="414" on="0"/>
        <pt x="335" y="440" on="0"/>
        <pt x="285" y="440" on="1"/>
        <pt x="221" y="440" on="0"/>
        <pt x="165" y="415" on="0"/>
        <pt x="146" y="342" on="0"/>
        <pt x="146" y="256" on="1"/>
        <pt x="146" y="171" on="0"/>
        <pt x="165" y="98" on="0"/>
        <pt x="221" y="73" on="0"/>
        <pt x="285" y="73" on="1"/>
      </contour>
    </TTGlyph>
    <TTGlyph name="g_tilde.loclGUA" xMin="65" yMin="-206" xMax="504" yMax="744">
      <component glyphName="g" x="0" y="0" flags="0x0"/>
      <component glyphName="tildecomb" x="497" y="0" flags="0x0"/>
    </TTGlyph>
    <TTGlyph name="gbreve" xMin="65" yMin="-206" xMax="504" yMax="743">
      <component glyphName="g" x="0" y="0" flags="0x0"/>
      <component glyphName="uni0306" x="454" y="0" flags="0x0"/>
    </TTGlyph>
    <TTGlyph name="gcaron" xMin="65" yMin="-206" xMax="504" yMax="743">
      <component glyphName="g" x="0" y="0" flags="0x0"/>
      <component glyphName="uni030C" x="461" y="0" flags="0x0"/>
    </TTGlyph>
    <TTGlyph name="gcircumflex" xMin="65" yMin="-206" xMax="504" yMax="743">
      <component glyphName="g" x="0" y="0" flags="0x0"/>
      <component glyphName="uni0302" x="461" y="0" flags="0x0"/>
    </TTGlyph>
    <TTGlyph name="gcommaaccent" xMin="65" yMin="-206" xMax="504" yMax="807">
      <component glyphName="g" x="0" y="0" flags="0x0"/>
      <component glyphName="uni0312" x="671" y="0" flags="0x0"/>
    </TTGlyph>
    <TTGlyph name="gdotaccent" xMin="65" yMin="-206" xMax="504" yMax="730">
      <component glyphName="g" x="0" y="0" flags="0x0"/>
      <component glyphName="uni0307" x="354" y="0" flags="0x0"/>
    </TTGlyph>
    <TTGlyph name="germandbls" xMin="87" yMin="0" xMax="543" yMax="750">
      <contour>
        <pt x="261" y="0" on="1"/>
        <pt x="261" y="74" on="1"/>
        <pt x="315" y="74" on="1"/>
        <pt x="386" y="74" on="0"/>
        <pt x="442" y="93" on="0"/>
        <pt x="461" y="158" on="0"/>
        <pt x="461" y="239" on="1"/>
        <pt x="461" y="306" on="0"/>
        <pt x="436" y="372" on="0"/>
        <pt x="377" y="396" on="0"/>
        <pt x="319" y="396" on="1"/>
        <pt x="288" y="396" on="1"/>
        <pt x="288" y="471" on="1"/>
        <pt x="319" y="471" on="1"/>
        <pt x="370" y="471" on="0"/>
        <pt x="427" y="489" on="0"/>
        <pt x="452" y="529" on="0"/>
        <pt x="452" y="566" on="1"/>
        <pt x="452" y="611" on="0"/>
        <pt x="428" y="657" on="0"/>
        <pt x="368" y="676" on="0"/>
        <pt x="310" y="676" on="1"/>
        <pt x="256" y="676" on="0"/>
        <pt x="197" y="655" on="0"/>
        <pt x="167" y="591" on="0"/>
        <pt x="167" y="528" on="1"/>
        <pt x="167" y="0" on="1"/>
        <pt x="87" y="0" on="1"/>
        <pt x="87" y="541" on="1"/>
        <pt x="87" y="614" on="0"/>
        <pt x="129" y="705" on="0"/>
        <pt x="230" y="750" on="0"/>
        <pt x="316" y="750" on="1"/>
        <pt x="401" y="750" on="0"/>
        <pt x="496" y="711" on="0"/>
        <pt x="534" y="635" on="0"/>
        <pt x="534" y="574" on="1"/>
        <pt x="534" y="513" on="0"/>
        <pt x="478" y="449" on="0"/>
        <pt x="418" y="439" on="1"/>
        <pt x="418" y="435" on="1"/>
        <pt x="482" y="424" on="0"/>
        <pt x="543" y="336" on="0"/>
        <pt x="543" y="241" on="1"/>
        <pt x="543" y="148" on="0"/>
        <pt x="512" y="47" on="0"/>
        <pt x="423" y="0" on="0"/>
        <pt x="335" y="0" on="1"/>
      </contour>
    </TTGlyph>
    <TTGlyph name="grave" xMin="20" yMin="602" xMax="209" yMax="743">
      <contour>
        <pt x="20" y="738" on="1"/>
        <pt x="20" y="743" on="1"/>
        <pt x="108" y="743" on="1"/>
        <pt x="209" y="607" on="1"/>
        <pt x="209" y="602" on="1"/>
        <pt x="149" y="602" on="1"/>
      </contour>
    </TTGlyph>
    <TTGlyph name="gravecomb" xMin="-209" yMin="602" xMax="-20" yMax="743">
      <contour>
        <pt x="-209" y="738" on="1"/>
        <pt x="-209" y="743" on="1"/>
        <pt x="-121" y="743" on="1"/>
        <pt x="-20" y="607" on="1"/>
        <pt x="-20" y="602" on="1"/>
        <pt x="-80" y="602" on="1"/>
      </contour>
    </TTGlyph>
    <TTGlyph name="gravecomb.case" xMin="-209" yMin="747" xMax="-20" yMax="888">
      <contour>
        <pt x="-209" y="883" on="1"/>
        <pt x="-209" y="888" on="1"/>
        <pt x="-121" y="888" on="1"/>
        <pt x="-20" y="752" on="1"/>
        <pt x="-20" y="747" on="1"/>
        <pt x="-80" y="747" on="1"/>
      </contour>
    </TTGlyph>
    <TTGlyph name="greater" xMin="70" yMin="44" xMax="470" yMax="462">
      <contour>
        <pt x="70" y="118" on="1"/>
        <pt x="404" y="253" on="1"/>
        <pt x="70" y="387" on="1"/>
        <pt x="70" y="462" on="1"/>
        <pt x="470" y="294" on="1"/>
        <pt x="470" y="211" on="1"/>
        <pt x="70" y="44" on="1"/>
      </contour>
    </TTGlyph>
    <TTGlyph name="greaterequal" xMin="70" yMin="-1" xMax="470" yMax="591">
      <contour>
        <pt x="70" y="248" on="1"/>
        <pt x="404" y="382" on="1"/>
        <pt x="70" y="516" on="1"/>
        <pt x="70" y="591" on="1"/>
        <pt x="470" y="423" on="1"/>
        <pt x="470" y="341" on="1"/>
        <pt x="70" y="173" on="1"/>
      </contour>
      <contour>
        <pt x="70" y="70" on="1"/>
        <pt x="470" y="70" on="1"/>
        <pt x="470" y="-1" on="1"/>
        <pt x="70" y="-1" on="1"/>
      </contour>
    </TTGlyph>
    <TTGlyph name="guillemotleft" xMin="47" yMin="99" xMax="405" yMax="510">
      <contour>
        <pt x="47" y="304" on="1"/>
        <pt x="179" y="510" on="1"/>
        <pt x="237" y="510" on="1"/>
        <pt x="123" y="304" on="1"/>
        <pt x="237" y="99" on="1"/>
        <pt x="179" y="99" on="1"/>
      </contour>
      <contour>
        <pt x="214" y="304" on="1"/>
        <pt x="347" y="510" on="1"/>
        <pt x="405" y="510" on="1"/>
        <pt x="291" y="304" on="1"/>
        <pt x="405" y="99" on="1"/>
        <pt x="347" y="99" on="1"/>
      </contour>
    </TTGlyph>
    <TTGlyph name="guillemotright" xMin="69" yMin="99" xMax="427" yMax="510">
      <contour>
        <pt x="183" y="304" on="1"/>
        <pt x="69" y="510" on="1"/>
        <pt x="127" y="510" on="1"/>
        <pt x="259" y="304" on="1"/>
        <pt x="127" y="99" on="1"/>
        <pt x="69" y="99" on="1"/>
      </contour>
      <contour>
        <pt x="351" y="304" on="1"/>
        <pt x="237" y="510" on="1"/>
        <pt x="295" y="510" on="1"/>
        <pt x="427" y="304" on="1"/>
        <pt x="295" y="99" on="1"/>
        <pt x="237" y="99" on="1"/>
      </contour>
    </TTGlyph>
    <TTGlyph name="guilsinglleft" xMin="46" yMin="99" xMax="236" yMax="510">
      <contour>
        <pt x="46" y="304" on="1"/>
        <pt x="178" y="510" on="1"/>
        <pt x="236" y="510" on="1"/>
        <pt x="123" y="304" on="1"/>
        <pt x="236" y="99" on="1"/>
        <pt x="178" y="99" on="1"/>
      </contour>
    </TTGlyph>
    <TTGlyph name="guilsinglright" xMin="69" yMin="99" xMax="260" yMax="510">
      <contour>
        <pt x="183" y="304" on="1"/>
        <pt x="69" y="510" on="1"/>
        <pt x="128" y="510" on="1"/>
        <pt x="260" y="304" on="1"/>
        <pt x="128" y="99" on="1"/>
        <pt x="69" y="99" on="1"/>
      </contour>
    </TTGlyph>
    <TTGlyph name="h" xMin="87" yMin="0" xMax="513" yMax="743">
      <contour>
        <pt x="432" y="287" on="1"/>
        <pt x="432" y="358" on="0"/>
        <pt x="414" y="419" on="0"/>
        <pt x="364" y="439" on="0"/>
        <pt x="305" y="439" on="1"/>
        <pt x="242" y="439" on="0"/>
        <pt x="183" y="399" on="0"/>
        <pt x="168" y="329" on="0"/>
        <pt x="168" y="263" on="1"/>
        <pt x="168" y="0" on="1"/>
        <pt x="87" y="0" on="1"/>
        <pt x="87" y="743" on="1"/>
        <pt x="168" y="743" on="1"/>
        <pt x="168" y="443" on="1"/>
        <pt x="173" y="443" on="1"/>
        <pt x="189" y="479" on="0"/>
        <pt x="266" y="517" on="0"/>
        <pt x="338" y="517" on="1"/>
        <pt x="412" y="517" on="0"/>
        <pt x="487" y="476" on="0"/>
        <pt x="513" y="393" on="0"/>
        <pt x="513" y="319" on="1"/>
        <pt x="513" y="0" on="1"/>
        <pt x="432" y="0" on="1"/>
      </contour>
    </TTGlyph>
    <TTGlyph name="hbar" xMin="20" yMin="0" xMax="513" yMax="743">
      <contour>
        <pt x="412" y="517" on="0"/>
        <pt x="487" y="476" on="0"/>
        <pt x="513" y="393" on="0"/>
        <pt x="513" y="319" on="1"/>
        <pt x="513" y="0" on="1"/>
        <pt x="432" y="0" on="1"/>
        <pt x="432" y="287" on="1"/>
        <pt x="432" y="358" on="0"/>
        <pt x="414" y="419" on="0"/>
        <pt x="364" y="439" on="0"/>
        <pt x="305" y="439" on="1"/>
        <pt x="242" y="439" on="0"/>
        <pt x="183" y="399" on="0"/>
        <pt x="168" y="329" on="0"/>
        <pt x="168" y="263" on="1"/>
        <pt x="168" y="0" on="1"/>
        <pt x="87" y="0" on="1"/>
        <pt x="87" y="615" on="1"/>
        <pt x="20" y="615" on="1"/>
        <pt x="20" y="688" on="1"/>
        <pt x="87" y="688" on="1"/>
        <pt x="87" y="743" on="1"/>
        <pt x="168" y="743" on="1"/>
        <pt x="168" y="688" on="1"/>
        <pt x="304" y="688" on="1"/>
        <pt x="304" y="615" on="1"/>
        <pt x="168" y="615" on="1"/>
        <pt x="168" y="443" on="1"/>
        <pt x="173" y="443" on="1"/>
        <pt x="189" y="479" on="0"/>
        <pt x="266" y="517" on="0"/>
        <pt x="338" y="517" on="1"/>
      </contour>
    </TTGlyph>
    <TTGlyph name="hcircumflex" xMin="-18" yMin="0" xMax="513" yMax="921">
      <component glyphName="h" x="0" y="0" flags="0x0"/>
      <component glyphName="uni0302" x="292" y="178" flags="0x4"/>
    </TTGlyph>
    <TTGlyph name="hookabovecomb" xMin="-273" yMin="607" xMax="-26" yMax="805">
      <contour>
        <pt x="-202" y="616" on="1"/>
        <pt x="-202" y="643" on="0"/>
        <pt x="-184" y="664" on="0"/>
        <pt x="-157" y="672" on="1"/>
        <pt x="-135" y="679" on="1"/>
        <pt x="-101" y="687" on="0"/>
        <pt x="-83" y="701" on="0"/>
        <pt x="-83" y="719" on="1"/>
        <pt x="-83" y="744" on="0"/>
        <pt x="-114" y="756" on="0"/>
        <pt x="-162" y="756" on="1"/>
        <pt x="-211" y="756" on="0"/>
        <pt x="-273" y="751" on="1"/>
        <pt x="-273" y="797" on="1"/>
        <pt x="-222" y="805" on="0"/>
        <pt x="-157" y="805" on="1"/>
        <pt x="-108" y="805" on="0"/>
        <pt x="-54" y="794" on="0"/>
        <pt x="-26" y="760" on="0"/>
        <pt x="-26" y="726" on="1"/>
        <pt x="-26" y="691" on="0"/>
        <pt x="-51" y="660" on="0"/>
        <pt x="-88" y="650" on="1"/>
        <pt x="-112" y="643" on="1"/>
        <pt x="-133" y="637" on="0"/>
        <pt x="-149" y="630" on="0"/>
        <pt x="-153" y="619" on="0"/>
        <pt x="-153" y="607" on="1"/>
        <pt x="-202" y="607" on="1"/>
      </contour>
    </TTGlyph>
    <TTGlyph name="hookabovecomb.case" xMin="-273" yMin="731" xMax="-26" yMax="928">
      <contour>
        <pt x="-202" y="740" on="1"/>
        <pt x="-202" y="767" on="0"/>
        <pt x="-184" y="788" on="0"/>
        <pt x="-157" y="796" on="1"/>
        <pt x="-135" y="802" on="1"/>
        <pt x="-101" y="811" on="0"/>
        <pt x="-83" y="825" on="0"/>
        <pt x="-83" y="843" on="1"/>
        <pt x="-83" y="861" on="0"/>
        <pt x="-100" y="877" on="0"/>
        <pt x="-133" y="880" on="0"/>
        <pt x="-171" y="880" on="1"/>
        <pt x="-220" y="880" on="0"/>
        <pt x="-273" y="875" on="1"/>
        <pt x="-273" y="921" on="1"/>
        <pt x="-217" y="928" on="0"/>
        <pt x="-157" y="928" on="1"/>
        <pt x="-108" y="928" on="0"/>
        <pt x="-54" y="918" on="0"/>
        <pt x="-26" y="884" on="0"/>
        <pt x="-26" y="849" on="1"/>
        <pt x="-26" y="814" on="0"/>
        <pt x="-51" y="783" on="0"/>
        <pt x="-88" y="773" on="1"/>
        <pt x="-112" y="767" on="1"/>
        <pt x="-132" y="761" on="0"/>
        <pt x="-149" y="754" on="0"/>
        <pt x="-153" y="743" on="0"/>
        <pt x="-153" y="731" on="1"/>
        <pt x="-202" y="731" on="1"/>
      </contour>
    </TTGlyph>
    <TTGlyph name="house" xMin="55" yMin="0" xMax="690" yMax="695">
      <contour>
        <pt x="55" y="414" on="1"/>
        <pt x="340" y="695" on="1"/>
        <pt x="404" y="695" on="1"/>
        <pt x="690" y="414" on="1"/>
        <pt x="689" y="0" on="1"/>
        <pt x="55" y="0" on="1"/>
      </contour>
      <contour>
        <pt x="625" y="59" on="1"/>
        <pt x="626" y="392" on="1"/>
        <pt x="372" y="640" on="1"/>
        <pt x="119" y="392" on="1"/>
        <pt x="119" y="59" on="1"/>
      </contour>
    </TTGlyph>
    <TTGlyph name="hungarumlaut" xMin="20" yMin="607" xMax="386" yMax="738">
      <contour>
        <pt x="20" y="612" on="1"/>
        <pt x="116" y="738" on="1"/>
        <pt x="193" y="738" on="1"/>
        <pt x="193" y="733" on="1"/>
        <pt x="72" y="607" on="1"/>
        <pt x="20" y="607" on="1"/>
      </contour>
      <contour>
        <pt x="212" y="612" on="1"/>
        <pt x="309" y="738" on="1"/>
        <pt x="386" y="738" on="1"/>
        <pt x="386" y="733" on="1"/>
        <pt x="265" y="607" on="1"/>
        <pt x="212" y="607" on="1"/>
      </contour>
    </TTGlyph>
    <TTGlyph name="hyphen" xMin="59" yMin="246" xMax="303" yMax="325">
      <contour>
        <pt x="59" y="325" on="1"/>
        <pt x="303" y="325" on="1"/>
        <pt x="303" y="246" on="1"/>
        <pt x="59" y="246" on="1"/>
      </contour>
    </TTGlyph>
    <TTGlyph name="i" xMin="84" yMin="0" xMax="170" yMax="743">
      <contour>
        <pt x="84" y="743" on="1"/>
        <pt x="170" y="743" on="1"/>
        <pt x="170" y="650" on="1"/>
        <pt x="84" y="650" on="1"/>
      </contour>
      <contour>
        <pt x="87" y="510" on="1"/>
        <pt x="168" y="510" on="1"/>
        <pt x="168" y="0" on="1"/>
        <pt x="87" y="0" on="1"/>
      </contour>
    </TTGlyph>
    <TTGlyph name="i.loclTRK" xMin="87" yMin="0" xMax="168" yMax="730">
      <component glyphName="dotlessi" x="0" y="0" flags="0x0"/>
      <component glyphName="uni0307" x="185" y="0" flags="0x0"/>
    </TTGlyph>
    <TTGlyph name="iacute" xMin="86" yMin="0" xMax="275" yMax="743">
      <component glyphName="dotlessi" x="0" y="0" flags="0x0"/>
      <component glyphName="acute" x="66" y="0" flags="0x0"/>
    </TTGlyph>
    <TTGlyph name="iacute_j.loclNLD" xMin="87" yMin="-200" xMax="533" yMax="743">
      <component glyphName="dotlessi" x="0" y="0" flags="0x0"/>
      <component glyphName="acutecomb" x="299" y="0" flags="0x0"/>
      <component glyphName="uni0237" x="254" y="0" flags="0x0"/>
      <component glyphName="acutecomb" x="553" y="0" flags="0x0"/>
    </TTGlyph>
    <TTGlyph name="ibreve" xMin="-11" yMin="0" xMax="265" yMax="743">
      <component glyphName="dotlessi" x="0" y="0" flags="0x0"/>
      <component glyphName="uni0306" x="285" y="0" flags="0x0"/>
    </TTGlyph>
    <TTGlyph name="icircumflex" xMin="-17" yMin="0" xMax="272" yMax="743">
      <component glyphName="dotlessi" x="0" y="0" flags="0x0"/>
      <component glyphName="circumflex" x="-37" y="0" flags="0x0"/>
    </TTGlyph>
    <TTGlyph name="idieresis" xMin="-5" yMin="0" xMax="260" yMax="730">
      <component glyphName="dotlessi" x="0" y="0" flags="0x0"/>
      <component glyphName="dieresis" x="-25" y="0" flags="0x0"/>
    </TTGlyph>
    <TTGlyph name="igrave" xMin="-20" yMin="0" xMax="169" yMax="743">
      <component glyphName="dotlessi" x="0" y="0" flags="0x0"/>
      <component glyphName="grave" x="-40" y="0" flags="0x0"/>
    </TTGlyph>
    <TTGlyph name="ij" xMin="84" yMin="-200" xMax="424" yMax="743">
      <component glyphName="i" x="0" y="0" flags="0x0"/>
      <component glyphName="j" x="254" y="0" flags="0x0"/>
    </TTGlyph>
    <TTGlyph name="imacron" xMin="5" yMin="0" xMax="249" yMax="742">
      <component glyphName="dotlessi" x="0" y="0" flags="0x0"/>
      <component glyphName="uni0304" x="308" y="0" flags="0x0"/>
    </TTGlyph>
    <TTGlyph name="infinity" xMin="64" yMin="50" xMax="974" yMax="462">
      <contour>
        <pt x="196" y="50" on="0"/>
        <pt x="100" y="96" on="0"/>
        <pt x="64" y="185" on="0"/>
        <pt x="64" y="256" on="1"/>
        <pt x="64" y="327" on="0"/>
        <pt x="100" y="415" on="0"/>
        <pt x="196" y="462" on="0"/>
        <pt x="284" y="462" on="1"/>
        <pt x="381" y="462" on="0"/>
        <pt x="485" y="389" on="0"/>
        <pt x="519" y="324" on="1"/>
        <pt x="554" y="389" on="0"/>
        <pt x="659" y="462" on="0"/>
        <pt x="756" y="462" on="1"/>
        <pt x="844" y="462" on="0"/>
        <pt x="939" y="415" on="0"/>
        <pt x="974" y="327" on="0"/>
        <pt x="974" y="256" on="1"/>
        <pt x="974" y="184" on="0"/>
        <pt x="939" y="96" on="0"/>
        <pt x="844" y="50" on="0"/>
        <pt x="756" y="50" on="1"/>
        <pt x="658" y="50" on="0"/>
        <pt x="553" y="122" on="0"/>
        <pt x="519" y="188" on="1"/>
        <pt x="486" y="122" on="0"/>
        <pt x="381" y="50" on="0"/>
        <pt x="284" y="50" on="1"/>
      </contour>
      <contour>
        <pt x="372" y="116" on="0"/>
        <pt x="458" y="191" on="0"/>
        <pt x="484" y="256" on="1"/>
        <pt x="458" y="321" on="0"/>
        <pt x="372" y="396" on="0"/>
        <pt x="286" y="396" on="1"/>
        <pt x="222" y="396" on="0"/>
        <pt x="154" y="366" on="0"/>
        <pt x="130" y="307" on="0"/>
        <pt x="130" y="256" on="1"/>
        <pt x="130" y="205" on="0"/>
        <pt x="154" y="146" on="0"/>
        <pt x="222" y="116" on="0"/>
        <pt x="286" y="116" on="1"/>
      </contour>
      <contour>
        <pt x="818" y="116" on="0"/>
        <pt x="884" y="146" on="0"/>
        <pt x="907" y="205" on="0"/>
        <pt x="907" y="256" on="1"/>
        <pt x="907" y="307" on="0"/>
        <pt x="884" y="366" on="0"/>
        <pt x="818" y="396" on="0"/>
        <pt x="754" y="396" on="1"/>
        <pt x="668" y="396" on="0"/>
        <pt x="580" y="320" on="0"/>
        <pt x="556" y="256" on="1"/>
        <pt x="580" y="192" on="0"/>
        <pt x="668" y="116" on="0"/>
        <pt x="754" y="116" on="1"/>
      </contour>
    </TTGlyph>
    <TTGlyph name="integral" xMin="55" yMin="-190" xMax="326" yMax="696">
      <contour>
        <pt x="55" y="-123" on="1"/>
        <pt x="103" y="-123" on="0"/>
        <pt x="152" y="-114" on="0"/>
        <pt x="172" y="-91" on="0"/>
        <pt x="172" y="-68" on="1"/>
        <pt x="168" y="-11" on="1"/>
        <pt x="129" y="534" on="1"/>
        <pt x="127" y="568" on="0"/>
        <pt x="127" y="575" on="1"/>
        <pt x="127" y="630" on="0"/>
        <pt x="169" y="682" on="0"/>
        <pt x="248" y="696" on="0"/>
        <pt x="326" y="696" on="1"/>
        <pt x="326" y="629" on="1"/>
        <pt x="278" y="629" on="0"/>
        <pt x="229" y="620" on="0"/>
        <pt x="209" y="597" on="0"/>
        <pt x="209" y="574" on="1"/>
        <pt x="211" y="532" on="1"/>
        <pt x="250" y="-15" on="1"/>
        <pt x="253" y="-50" on="0"/>
        <pt x="253" y="-69" on="1"/>
        <pt x="253" y="-124" on="0"/>
        <pt x="212" y="-176" on="0"/>
        <pt x="133" y="-190" on="0"/>
        <pt x="55" y="-190" on="1"/>
      </contour>
    </TTGlyph>
    <TTGlyph name="iogonek" xMin="34" yMin="-196" xMax="169" yMax="730">
      <contour>
        <pt x="165" y="647" on="1"/>
        <pt x="89" y="647" on="1"/>
        <pt x="89" y="730" on="1"/>
        <pt x="165" y="730" on="1"/>
      </contour>
      <contour>
        <pt x="169" y="-138" on="1"/>
        <pt x="169" y="-194" on="1"/>
        <pt x="133" y="-196" on="0"/>
        <pt x="129" y="-196" on="1"/>
        <pt x="34" y="-196" on="0"/>
        <pt x="34" y="-120" on="1"/>
        <pt x="34" y="-90" on="0"/>
        <pt x="67" y="-27" on="0"/>
        <pt x="95" y="0" on="1"/>
        <pt x="87" y="0" on="1"/>
        <pt x="87" y="510" on="1"/>
        <pt x="168" y="510" on="1"/>
        <pt x="168" y="0" on="1"/>
        <pt x="145" y="-16" on="0"/>
        <pt x="105" y="-75" on="0"/>
        <pt x="105" y="-101" on="1"/>
        <pt x="105" y="-139" on="0"/>
        <pt x="150" y="-139" on="1"/>
      </contour>
    </TTGlyph>
    <TTGlyph name="itilde" xMin="-54" yMin="0" xMax="307" yMax="744">
      <component glyphName="dotlessi" x="0" y="0" flags="0x0"/>
      <component glyphName="tildecomb" x="328" y="0" flags="0x0"/>
    </TTGlyph>
    <TTGlyph name="j" xMin="-9" yMin="-200" xMax="170" yMax="743">
      <contour>
        <pt x="84" y="743" on="1"/>
        <pt x="170" y="743" on="1"/>
        <pt x="170" y="650" on="1"/>
        <pt x="84" y="650" on="1"/>
      </contour>
      <contour>
        <pt x="-9" y="-132" on="1"/>
        <pt x="35" y="-132" on="0"/>
        <pt x="75" y="-122" on="0"/>
        <pt x="87" y="-100" on="0"/>
        <pt x="87" y="-77" on="1"/>
        <pt x="87" y="510" on="1"/>
        <pt x="168" y="510" on="1"/>
        <pt x="168" y="-57" on="1"/>
        <pt x="168" y="-123" on="0"/>
        <pt x="136" y="-183" on="0"/>
        <pt x="65" y="-200" on="0"/>
        <pt x="-9" y="-200" on="1"/>
      </contour>
    </TTGlyph>
    <TTGlyph name="jcircumflex" xMin="-18" yMin="-200" xMax="271" yMax="743">
      <component glyphName="uni0237" x="0" y="0" flags="0x0"/>
      <component glyphName="uni0302" x="292" y="0" flags="0x0"/>
    </TTGlyph>
    <TTGlyph name="k" xMin="87" yMin="0" xMax="507" yMax="743">
      <contour>
        <pt x="232" y="220" on="1"/>
        <pt x="168" y="220" on="1"/>
        <pt x="168" y="0" on="1"/>
        <pt x="87" y="0" on="1"/>
        <pt x="87" y="743" on="1"/>
        <pt x="168" y="743" on="1"/>
        <pt x="168" y="295" on="1"/>
        <pt x="232" y="295" on="1"/>
        <pt x="413" y="510" on="1"/>
        <pt x="504" y="510" on="1"/>
        <pt x="297" y="263" on="1"/>
        <pt x="507" y="0" on="1"/>
        <pt x="412" y="0" on="1"/>
      </contour>
    </TTGlyph>
    <TTGlyph name="kcommaaccent" xMin="87" yMin="-266" xMax="507" yMax="743">
      <component glyphName="k" x="0" y="0" flags="0x0"/>
      <component glyphName="uni0326" x="388" y="0" flags="0x0"/>
    </TTGlyph>
    <TTGlyph name="kgreenlandic" xMin="87" yMin="0" xMax="507" yMax="510">
      <contour>
        <pt x="232" y="220" on="1"/>
        <pt x="168" y="220" on="1"/>
        <pt x="168" y="0" on="1"/>
        <pt x="87" y="0" on="1"/>
        <pt x="87" y="510" on="1"/>
        <pt x="168" y="510" on="1"/>
        <pt x="168" y="295" on="1"/>
        <pt x="232" y="295" on="1"/>
        <pt x="413" y="510" on="1"/>
        <pt x="504" y="510" on="1"/>
        <pt x="297" y="263" on="1"/>
        <pt x="507" y="0" on="1"/>
        <pt x="412" y="0" on="1"/>
      </contour>
    </TTGlyph>
    <TTGlyph name="l" xMin="87" yMin="0" xMax="168" yMax="743">
      <contour>
        <pt x="87" y="743" on="1"/>
        <pt x="168" y="743" on="1"/>
        <pt x="168" y="0" on="1"/>
        <pt x="87" y="0" on="1"/>
      </contour>
    </TTGlyph>
</ttFont>
